<?xml version="1.0" standalone="no"?>
<!DOCTYPE svg PUBLIC "-//W3C//DTD SVG 1.1//EN" "http://www.w3.org/Graphics/SVG/1.1/DTD/svg11.dtd" >
<svg>
<metadata>
Created by FontForge 20120731 at Wed Oct 29 02:37:52 2014
 By Orthosie Webhosting
Copyright (c) 2014 Indian Type Foundry (info@indiantypefoundry.com)
</metadata>
<defs>
<font id="KhandRegular" horiz-adv-x="209" >
  <font-face 
    font-family="KhandRegular"
    font-weight="400"
    font-stretch="normal"
    units-per-em="1000"
    panose-1="2 0 0 0 0 0 0 0 0 0"
    ascent="800"
    descent="-200"
    x-height="569"
    cap-height="672"
    bbox="-414 -394 1761 933"
    underline-thickness="50"
    underline-position="-50"
    unicode-range="U+000D-FB02"
  />
<missing-glyph horiz-adv-x="750" 
d="M234 651v-601h282v601h-282zM180 0v701h390v-701h-390z" />
    <glyph glyph-name="fi" unicode="fi" horiz-adv-x="477" 
d="M409 569v-569h-72v508h-176v-508h-71v508h-57v61h57v27q0 139 172 139q66 0 126 -14v-61q-60 15 -119 15t-83.5 -18.5t-24.5 -59.5v-28h248z" />
    <glyph glyph-name="fl" unicode="fl" horiz-adv-x="477" 
d="M409 720v-720h-71v668q-40 7 -85.5 7t-68.5 -18.5t-23 -59.5v-28h99v-61h-99v-508h-71v508h-57v61h57v27q0 139 169 139q61 0 119 -15h31z" />
    <glyph glyph-name=".notdef" horiz-adv-x="750" 
d="M234 651v-601h282v601h-282zM180 0v701h390v-701h-390z" />
    <glyph glyph-name=".null" horiz-adv-x="0" 
 />
    <glyph glyph-name="nonmarkingreturn" horiz-adv-x="333" 
 />
    <glyph glyph-name="NULL" horiz-adv-x="0" 
 />
    <glyph glyph-name="NULL" horiz-adv-x="0" 
 />
    <glyph glyph-name="CR" unicode="&#xd;" horiz-adv-x="0" 
 />
    <glyph glyph-name="space" unicode=" " horiz-adv-x="189" 
 />
    <glyph glyph-name="exclam" unicode="!" horiz-adv-x="248" 
d="M80 39.5q0 45.5 43.5 45.5t43.5 -45.5t-43.5 -45.5t-43.5 45.5zM85 672h77l-9 -500h-59z" />
    <glyph glyph-name="quotedbl" unicode="&#x22;" horiz-adv-x="348" 
d="M81 745h63v-203h-63v203zM203 745h63v-203h-63v203z" />
    <glyph glyph-name="numbersign" unicode="#" horiz-adv-x="531" 
d="M506 432h-85l-31 -210h77v-54h-85l-24 -168h-61l24 168h-143l-24 -168h-62l24 168h-79v54h87l31 210h-79v54h87l24 168h62l-24 -168h143l24 168h61l-24 -168h77v-54zM329 222l31 210h-143l-31 -210h143z" />
    <glyph glyph-name="dollar" unicode="$" horiz-adv-x="388" 
d="M356 194v-54q0 -123 -140 -142v-72h-66v69q-74 3 -117 20v68q59 -22 134 -22q118 0 118 83v42q0 33 -12 52t-43 36l-115 63q-87 47 -87 140v59q0 120 132 138v62h65v-60q63 -3 105 -16v-68q-52 19 -127 19q-103 0 -103 -78v-48q0 -35 13.5 -55t45.5 -38l116 -65
q81 -44 81 -133z" />
    <glyph glyph-name="percent" unicode="%" horiz-adv-x="567" 
d="M310 134q0 68 28 105t83 37t83 -37t28 -105t-28 -105.5t-83 -37.5t-83 37.5t-28 105.5zM421 44q54 0 54 89.5t-54 89.5t-54 -89.5t54 -89.5zM35 538q0 68 28 105.5t83 37.5t83 -37.5t28 -105.5t-28 -105.5t-83 -37.5t-83 37.5t-28 105.5zM199 538q0 90 -53.5 90
t-53.5 -90t53.5 -90t53.5 90zM391 672h55l-270 -672h-54z" />
    <glyph glyph-name="ampersand" unicode="&#x26;" horiz-adv-x="457" 
d="M442 377v-63h-42v-165q0 -71 -44 -114.5t-128 -43.5t-129.5 44t-45.5 114v72q0 97 78 125q-77 28 -77 126v55q0 69 46.5 109.5t142.5 40.5q70 0 126 -18v-69q-58 20 -125 20t-93 -22.5t-26 -64.5v-50q0 -96 89 -96h117v58h69v-58h42zM331 150v164h-116q-91 0 -91 -95v-69
q0 -44 26 -70t78 -26t77.5 26t25.5 70z" />
    <glyph glyph-name="quotesingle" unicode="'" horiz-adv-x="225" 
d="M81 745h63v-203h-63v203z" />
    <glyph glyph-name="parenleft" unicode="(" horiz-adv-x="284" 
d="M156.5 559q-25.5 -121 -25.5 -233.5t25.5 -234.5t69.5 -223h-63q-44 92 -69 217t-25 240.5t25 239.5t69 217h63q-44 -102 -69.5 -223z" />
    <glyph glyph-name="parenright" unicode=")" horiz-adv-x="284" 
d="M190 565q25 -124 25 -239.5t-25 -240.5t-69 -217h-63q44 101 69.5 223t25.5 234.5t-25.5 233.5t-69.5 223h63q44 -93 69 -217z" />
    <glyph glyph-name="asterisk" unicode="*" horiz-adv-x="495" 
d="M218 684v101h62v-101q0 -33 -9 -56q20 15 51 25l97 32l19 -59l-96 -31q-31 -10 -57 -10q19 -12 40 -40l60 -82l-50 -36l-59 81q-20 26 -27 50q-7 -24 -26 -49l-59 -82l-50 36l59 81q21 29 41 41q-27 0 -57 10l-96 31l18 58l96 -31q31 -10 51 -25q-8 26 -8 56z" />
    <glyph glyph-name="plus" unicode="+" horiz-adv-x="439" 
d="M398 354v-59h-146v-149h-65v149h-146v59h146v149h65v-149h146z" />
    <glyph glyph-name="comma" unicode="," horiz-adv-x="146" 
d="M83 85q35 0 35 -33q0 -44 -70 -178h-42l42 211h35z" />
    <glyph glyph-name="hyphen" unicode="-" horiz-adv-x="228" 
d="M40 354h153v-59h-153v59z" />
    <glyph glyph-name="period" unicode="." horiz-adv-x="151" 
d="M32 39.5q0 45.5 43.5 45.5t43.5 -45.5t-43.5 -45.5t-43.5 45.5z" />
    <glyph glyph-name="slash" unicode="/" horiz-adv-x="378" 
d="M299 782h62l-266 -914h-63z" />
    <glyph glyph-name="zero" unicode="0" horiz-adv-x="446" 
d="M316 522q0 96 -93 96t-93 -96v-372q0 -96 93 -96t93 96v372zM59 523q0 72 40 115.5t123.5 43.5t124 -43.5t40.5 -115.5v-375q0 -72 -40.5 -115t-124 -43t-123.5 43t-40 115v375z" />
    <glyph glyph-name="one" unicode="1" horiz-adv-x="278" 
d="M209 672v-672h-72v599l-126 -92v80l117 85h81z" />
    <glyph glyph-name="two" unicode="2" horiz-adv-x="401" 
d="M177 677q177 0 177 -142v-58q-1 -56 -18 -90t-60 -63l-77 -55q-50 -34 -67 -58t-17 -69v-76h241v-66h-313v145q0 63 26 99.5t81 73.5l80 57q31 20 42 44t11 64v48q0 40 -22 60t-87.5 20t-119.5 -21v69q52 18 123 18z" />
    <glyph glyph-name="three" unicode="3" horiz-adv-x="393" 
d="M154 677q176 0 176 -144v-69q0 -97 -73 -126q77 -26 77 -121v-77q0 -69 -44.5 -107t-128 -38t-135.5 18v70q59 -23 123.5 -23t89 21t24.5 62v67q0 94 -94 94h-69v65h69q50 0 70 24.5t20 71.5v64q0 40 -23 61.5t-87 21.5t-110 -17v68q45 14 115 14z" />
    <glyph glyph-name="four" unicode="4" horiz-adv-x="405" 
d="M400 189v-63h-68v-126h-69v126h-253v64l213 482h109v-483h68zM264 189v424l-187 -424h187z" />
    <glyph glyph-name="five" unicode="5" horiz-adv-x="419" 
d="M62 672h288v-66h-218v-212q38 5 83 5q151 0 151 -150v-110q0 -68 -45 -106t-136 -38q-64 0 -128 20v70q67 -25 127.5 -25t85.5 21.5t25 61.5v101q0 46 -19.5 67.5t-71.5 21.5q-24 0 -142 -11v350z" />
    <glyph glyph-name="six" unicode="6" horiz-adv-x="433" 
d="M316 273q0 83 -87 83q-57 0 -99 -24v-183q0 -96 93 -96t93 96v124zM59 519q0 71 43.5 114.5t126 43.5t134.5 -18v-68q-52 20 -124 20q-109 0 -109 -96v-117q44 22 111 22t106.5 -37t39.5 -107v-128q0 -72 -40.5 -115t-124 -43t-123.5 43t-40 115v371z" />
    <glyph glyph-name="seven" unicode="7" horiz-adv-x="329" 
d="M5 672h300v-57l-66 -209q-30 -97 -43 -162t-13 -146v-98h-72v101q0 82 13.5 148.5t43.5 161.5l62 196h-225v65z" />
    <glyph glyph-name="eight" unicode="8" horiz-adv-x="455" 
d="M394 527v-66q0 -94 -71 -126q74 -34 74 -127v-64q0 -70 -42.5 -112t-127 -42t-126.5 41.5t-42 112.5v64q0 93 73 127q-71 32 -71 126v66q0 71 41.5 113t125.5 42t125 -42t41 -113zM132 527v-67q0 -96 96 -96t96 96v67q0 92 -96 92t-96 -92zM326 145v64q0 96 -98.5 96
t-98.5 -96v-64q0 -92 98.5 -92t98.5 92z" />
    <glyph glyph-name="nine" unicode="9" horiz-adv-x="433" 
d="M303 523q0 95 -93 95t-93 -95v-127q0 -88 89 -88q63 0 97 23v192zM46 523q0 72 40.5 115.5t124 43.5t123.5 -43.5t40 -115.5v-375q0 -70 -44.5 -111.5t-135.5 -41.5q-67 0 -129 19v69q61 -23 128 -23q110 0 110 92v113q-39 -21 -108 -21t-109 39t-40 109v131z" />
    <glyph glyph-name="colon" unicode=":" horiz-adv-x="202" 
d="M32 39.5q0 45.5 43.5 45.5t43.5 -45.5t-43.5 -45.5t-43.5 45.5zM32 390q0 46 43.5 46t43.5 -46t-43.5 -46t-43.5 46z" />
    <glyph glyph-name="semicolon" unicode=";" horiz-adv-x="200" 
d="M32 390q0 46 43.5 46t43.5 -46t-43.5 -46t-43.5 46zM83 85q35 0 35 -33q0 -44 -70 -178h-42l42 211h35z" />
    <glyph glyph-name="less" unicode="&#x3c;" horiz-adv-x="460" 
d="M401 502v-64l-303 -114l303 -113v-64l-359 139v76z" />
    <glyph glyph-name="equal" unicode="=" horiz-adv-x="437" 
d="M39 264h358v-59h-358v59zM39 443h358v-59h-358v59z" />
    <glyph glyph-name="greater" unicode="&#x3e;" horiz-adv-x="459" 
d="M56 502l359 -140v-76l-359 -139v64l303 113l-303 114v64z" />
    <glyph glyph-name="question" unicode="?" horiz-adv-x="379" 
d="M99 39.5q0 45.5 43.5 45.5t43.5 -45.5t-43.5 -45.5t-43.5 45.5zM152 682q178 0 178 -141v-99q0 -150 -152 -154l-5 -116h-61l-4 176h55q97 0 97 95v94q0 40 -23 59t-86 19t-116 -17v69q56 15 117 15z" />
    <glyph glyph-name="at" unicode="@" horiz-adv-x="857" 
d="M518 -113h-86q-193 0 -276.5 98.5t-83.5 288t85 288.5t277.5 99t275.5 -95t83 -283q0 -135 -40.5 -195t-119 -60t-109.5 49q-39 -31 -106 -31q-132 0 -132 114v14q0 52 28.5 79.5t85.5 45.5l105 33v55q0 34 -15.5 52t-60 18t-119.5 -18v56q59 16 122 16q133 0 133 -122
v-227q0 -41 17 -59.5t58.5 -18.5t65.5 44.5t24 154.5q0 162 -66 241t-231 79t-231 -82.5t-66 -246t66.5 -246.5t230.5 -83h85v-58zM349 175v-16q0 -60 66 -60q26 0 48.5 7t41.5 21v148l-87 -27q-38 -11 -53.5 -25t-15.5 -48z" />
    <glyph glyph-name="A" unicode="A" horiz-adv-x="438" 
d="M350 0l-41 188h-180l-41 -188h-71l152 672h100l152 -672h-71zM142 250h153l-77 353z" />
    <glyph glyph-name="B" unicode="B" horiz-adv-x="468" 
d="M403 520v-57q0 -96 -74 -124q80 -27 80 -127v-60q0 -71 -40.5 -111.5t-120.5 -40.5h-179v672h173q80 0 120.5 -40.5t40.5 -111.5zM236 610h-96v-241h96q96 0 96 92v57q0 92 -96 92zM338 154v60q0 92 -96 92h-102v-244h102q96 0 96 92z" />
    <glyph glyph-name="C" unicode="C" horiz-adv-x="394" 
d="M59 535q0 142 180 142q58 0 116 -16v-66q-59 17 -118 17t-83 -20.5t-24 -60.5v-391q0 -39 24.5 -59.5t86 -20.5t116.5 16v-65q-50 -16 -118 -16q-180 0 -180 142v398z" />
    <glyph glyph-name="D" unicode="D" horiz-adv-x="465" 
d="M336 520q0 90 -95 90h-101v-547h101q95 0 95 92v365zM69 672h176q80 0 121 -41t41 -110v-368q0 -71 -40 -112t-120 -41h-178v672z" />
    <glyph glyph-name="E" unicode="E" horiz-adv-x="397" 
d="M69 672h291v-63h-220v-239h192v-63h-192v-244h220v-63h-291v672z" />
    <glyph glyph-name="F" unicode="F" horiz-adv-x="371" 
d="M69 672h283v-63h-212v-252h201v-64h-201v-293h-71v672z" />
    <glyph glyph-name="G" unicode="G" horiz-adv-x="448" 
d="M59 529q0 69 45.5 108.5t140.5 39.5q64 0 121 -17v-68q-59 19 -121 19t-88.5 -21.5t-26.5 -64.5v-385q0 -81 96 -81q63 0 90 21v250h71v-295q-71 -40 -155 -40q-173 0 -173 142v392z" />
    <glyph glyph-name="H" unicode="H" horiz-adv-x="495" 
d="M354 672h72v-672h-72v298h-214v-298h-71v672h71v-311h214v311z" />
    <glyph glyph-name="I" unicode="I" 
d="M69 672h71v-672h-71v672z" />
    <glyph glyph-name="J" unicode="J" horiz-adv-x="210" 
d="M70 672h71v-474q0 -128 -33 -242l-31 -105h-73l30 105q36 128 36 241v475z" />
    <glyph glyph-name="K" unicode="K" horiz-adv-x="433" 
d="M69 672h71v-672h-71v672zM331 672h77l-141 -335l149 -337h-79l-146 335z" />
    <glyph glyph-name="L" unicode="L" horiz-adv-x="349" 
d="M69 672h71v-610h204v-62h-275v672z" />
    <glyph glyph-name="M" unicode="M" horiz-adv-x="611" 
d="M542 672v-672h-68v354q0 103 6 199l-137 -374h-75l-139 374q7 -93 7 -198v-355h-67v672h84l152 -421l152 421h85z" />
    <glyph glyph-name="N" unicode="N" horiz-adv-x="500" 
d="M367 114l-7 221v337h71v-672h-82l-138 348q-8 21 -79 209l6 -220v-337h-69v672h82q159 -404 216 -558z" />
    <glyph glyph-name="O" unicode="O" horiz-adv-x="457" 
d="M327 522q0 95 -98.5 95t-98.5 -95v-372q0 -96 98.5 -96t98.5 96v372zM59 523q0 71 43 115t126.5 44t126.5 -44t43 -115v-375q0 -71 -43 -114.5t-127 -43.5t-126.5 43.5t-42.5 114.5v375z" />
    <glyph glyph-name="P" unicode="P" horiz-adv-x="439" 
d="M323 517q0 92 -95 92h-88v-315h88q95 0 95 91v132zM69 672h163q79 0 120.5 -41t41.5 -110v-139q0 -70 -41 -110.5t-121 -40.5h-92v-231h-71v672z" />
    <glyph glyph-name="Q" unicode="Q" horiz-adv-x="457" 
d="M228 -10q-84 0 -126.5 43.5t-42.5 114.5v375q0 71 43 115t126.5 44t126.5 -44t43 -115v-375q0 -89 -62 -130l108 -118h-89l-85 93q-20 -3 -42 -3zM130 522v-372q0 -96 98.5 -96t98.5 96v372q0 95 -98.5 95t-98.5 -95z" />
    <glyph glyph-name="R" unicode="R" horiz-adv-x="457" 
d="M239 270h-99v-270h-71v672h163q80 0 121 -40.5t41 -110.5v-99q0 -108 -86 -140l107 -282h-78zM140 332h89q94 0 94 91v95q0 91 -94 91h-89v-277z" />
    <glyph glyph-name="S" unicode="S" horiz-adv-x="388" 
d="M28 536q0 66 44 103.5t123.5 37.5t134.5 -17v-68q-52 19 -127 19q-103 0 -103 -78v-48q0 -35 13.5 -55t45.5 -38l116 -65q81 -44 81 -133v-54q0 -69 -47 -107t-135.5 -38t-140.5 20v68q59 -22 134 -22q118 0 118 83v42q0 33 -12 52t-43 36l-115 63q-87 47 -87 140v59z
" />
    <glyph glyph-name="T" unicode="T" horiz-adv-x="350" 
d="M341 672v-63h-130v-609h-72v609h-130v63h332z" />
    <glyph glyph-name="U" unicode="U" horiz-adv-x="466" 
d="M331 672h71v-524q0 -71 -42.5 -114.5t-126.5 -43.5t-126.5 43.5t-42.5 114.5v524h71v-522q0 -96 98 -96t98 96v522z" />
    <glyph glyph-name="V" unicode="V" horiz-adv-x="419" 
d="M333 672h74l-147 -672h-100l-147 672h73l71 -334q38 -201 53 -269q8 40 27 138q21 107 96 465z" />
    <glyph glyph-name="W" unicode="W" horiz-adv-x="609" 
d="M520 672h68l-111 -672h-85q-66 388 -73.5 444.5t-13.5 116.5q-10 -109 -30 -225l-57 -336h-87l-110 672h68l66 -401l24 -178q11 90 25 179l64 400h73l64 -401l25 -176q13 105 24 176z" />
    <glyph glyph-name="X" unicode="X" horiz-adv-x="392" 
d="M302 672h77l-146 -336l146 -336h-77l-105 255l-106 -255h-78l146 336l-146 336h77l107 -256z" />
    <glyph glyph-name="Y" unicode="Y" horiz-adv-x="409" 
d="M240 0h-71v227l-165 445h73l68 -183q4 -11 61 -179q37 115 127 362h72l-165 -445v-227z" />
    <glyph glyph-name="Z" unicode="Z" horiz-adv-x="382" 
d="M33 672h321v-61l-251 -549h247v-62h-322v62l250 547h-245v63z" />
    <glyph glyph-name="bracketleft" unicode="[" horiz-adv-x="296" 
d="M143 -77h123v-56h-184v919h184v-56h-123v-807z" />
    <glyph glyph-name="backslash" unicode="\" horiz-adv-x="392" 
d="M33 786h64l269 -919h-64z" />
    <glyph glyph-name="bracketright" unicode="]" horiz-adv-x="296" 
d="M30 786h184v-919h-184v56h123v807h-123v56z" />
    <glyph glyph-name="asciicircum" unicode="^" horiz-adv-x="318" 
d="M310 379h-68l-85 247l-85 -247h-69l108 285h93z" />
    <glyph glyph-name="underscore" unicode="_" horiz-adv-x="477" 
d="M2 -12h472v-57h-472v57z" />
    <glyph glyph-name="grave" unicode="`" horiz-adv-x="350" 
d="M122 720h67l39 -107h-46z" />
    <glyph glyph-name="a" unicode="a" horiz-adv-x="425" 
d="M101 162v-30q0 -40 19 -59t72 -19t100 39v187l-114 -32q-45 -13 -61 -32t-16 -54zM191 574q170 0 170 -145v-429h-68v41q-51 -45 -122 -45q-139 0 -139 137v32q0 104 121 138l140 39v87q-1 41 -23 60t-88.5 19t-122.5 -20v67q57 19 132 19z" />
    <glyph glyph-name="b" unicode="b" horiz-adv-x="447" 
d="M317 432q0 73 -73 73q-40 0 -104 -24v-416h83q94 0 94 88v279zM69 720h70v-173q60 25 119 25t95 -35t36 -98v-291q0 -71 -40.5 -109.5t-108.5 -38.5h-171v720z" />
    <glyph glyph-name="c" unicode="c" horiz-adv-x="370" 
d="M59 430q0 144 168 144q62 0 106 -14v-65q-48 13 -104 13t-77.5 -19.5t-21.5 -60.5v-288q0 -42 21.5 -61t79.5 -19t104 16v-67q-54 -14 -108 -14q-168 0 -168 142v293z" />
    <glyph glyph-name="d" unicode="d" horiz-adv-x="447" 
d="M307 504h-82q-95 0 -95 -86v-273q0 -84 81 -84q60 0 96 34v409zM307 720h71v-720h-69v33q-45 -36 -112 -36t-102.5 37t-35.5 106v279q0 71 42 110.5t112 39.5h94v151z" />
    <glyph glyph-name="e" unicode="e" horiz-adv-x="436" 
d="M59 145v278q0 71 40.5 113.5t122.5 42.5t121.5 -42.5t39.5 -113.5v-174h-254v-101q0 -45 28 -67t87 -22t122 18v-66q-50 -16 -119 -16q-188 0 -188 150zM129 308h186v115q0 94 -93 94t-93 -94v-115z" />
    <glyph glyph-name="f" unicode="f" horiz-adv-x="273" 
d="M90 603q0 65 35 100.5t103 35.5q24 0 45 -3v-61q-15 4 -40 4q-72 0 -72 -75v-35h106v-61h-106v-508h-71v508h-57v61h57v34z" />
    <glyph glyph-name="g" unicode="g" horiz-adv-x="447" 
d="M426 543h-34q-26 0 -45 -13q31 -37 31 -97v-80q0 -68 -41 -106.5t-124 -39.5q-57 0 -57 -53q0 -24 15 -35t50 -11h59q137 0 137 -116v-13q0 -128 -181 -128h-41q-101 0 -156 31v68q66 -37 156 -37h36q118 0 118 66v10q0 29 -14.5 43.5t-58.5 14.5h-60q-60 0 -92 22
t-32 64v16q0 26 14.5 43t36.5 23q-99 28 -99 138v80q0 68 41.5 107t118.5 39t116 -27q20 60 91 60h15v-69zM307 353v80q0 43 -22.5 64t-73.5 21t-73.5 -21t-22.5 -64v-80q0 -43 22.5 -64t73.5 -21t73.5 21t22.5 64z" />
    <glyph glyph-name="h" unicode="h" horiz-adv-x="451" 
d="M69 720h70v-174q58 25 116.5 25t95 -34t36.5 -98v-439h-71v432q0 73 -73 73q-51 0 -103 -25v-480h-71v720z" />
    <glyph glyph-name="i" unicode="i" 
d="M61 679q0 46 43.5 46t43.5 -46t-43.5 -46t-43.5 46zM69 565h71v-565h-71v565z" />
    <glyph glyph-name="j" unicode="j" 
d="M61 679q0 46 43.5 46t43.5 -46t-43.5 -46t-43.5 46zM69 565h71v-574q0 -67 -34.5 -104.5t-101.5 -37.5q-14 0 -29 3v64q16 -2 27 -2q35 0 51 18t16 59v574z" />
    <glyph glyph-name="k" unicode="k" horiz-adv-x="402" 
d="M69 720h70v-720h-70v720zM301 569h75l-125 -274l135 -295h-79l-132 295z" />
    <glyph glyph-name="l" unicode="l" 
d="M69 720h71v-720h-71v720z" />
    <glyph glyph-name="m" unicode="m" horiz-adv-x="699" 
d="M358 530q69 41 137 41t104 -34.5t36 -97.5v-439h-72v432q0 73 -73 73q-54 0 -108 -33q5 -15 5 -40v-432h-71v432q0 73 -74 73q-47 0 -102 -26v-479h-71v569h68v-26q67 28 117 28q68 0 104 -41z" />
    <glyph glyph-name="n" unicode="n" horiz-adv-x="451" 
d="M137 543q67 28 122.5 28t91.5 -34.5t36 -97.5v-439h-71v432q0 73 -74 73q-47 0 -102 -26v-479h-71v569h68v-26z" />
    <glyph glyph-name="o" unicode="o" horiz-adv-x="442" 
d="M313 423q0 93 -92 93t-92 -93v-277q0 -94 92 -94t92 94v277zM59 424q0 71 40 113t122 42t122 -42t40 -113v-279q0 -71 -40 -113t-122 -42t-122 42t-40 113v279z" />
    <glyph glyph-name="p" unicode="p" horiz-adv-x="447" 
d="M317 432q0 73 -74 73q-48 0 -103 -26v-414h84q93 0 93 89v278zM137 542q67 29 123 29t92.5 -34.5t36.5 -97.5v-290q0 -70 -40.5 -109.5t-107.5 -39.5h-101v-149h-71v718h68v-27z" />
    <glyph glyph-name="q" unicode="q" horiz-adv-x="447" 
d="M307 504h-80q-97 0 -97 -91v-267q0 -84 81 -84q59 0 96 33v409zM216 569h162v-718h-70v176q-41 -29 -107 -29q-142 0 -142 145v271q0 72 42 113.5t115 41.5z" />
    <glyph glyph-name="r" unicode="r" horiz-adv-x="283" 
d="M253 572h25v-68h-34q-36 0 -65 -19q-9 -6 -39 -27v-458h-71v569h68v-43q3 2 15.5 11t15 10.5t13 7.5t16 7.5t15.5 4.5q15 5 41 5z" />
    <glyph glyph-name="s" unicode="s" horiz-adv-x="361" 
d="M28 435q0 70 40 104.5t131 34.5q56 0 111 -17v-66q-50 18 -110 18t-81 -17.5t-21 -58.5v-26q0 -32 12.5 -49t46.5 -32l86 -42q90 -44 90 -122v-27q0 -140 -181 -140q-68 0 -120 16v66q52 -18 115.5 -18t89 19.5t25.5 57.5v20q0 28 -13 43.5t-51 33.5l-86 41
q-84 40 -84 127v34z" />
    <glyph glyph-name="t" unicode="t" horiz-adv-x="291" 
d="M139 672v-103h127v-63h-127v-380q0 -35 17 -50.5t52 -15.5t68 11v-65q-40 -10 -75 -10q-134 0 -134 127v383h-62v63h65l20 103h49z" />
    <glyph glyph-name="u" unicode="u" horiz-adv-x="452" 
d="M216 61q50 0 96 31v477h71v-569h-68v27q-58 -29 -118.5 -29t-96.5 36.5t-36 105.5v429h71v-423q0 -85 81 -85z" />
    <glyph glyph-name="v" unicode="v" horiz-adv-x="386" 
d="M297 569h72l-126 -569h-100l-126 569h73l55 -261l49 -258q30 166 103 519z" />
    <glyph glyph-name="w" unicode="w" horiz-adv-x="598" 
d="M509 569h72l-103 -569h-98q-81 451 -81 474q-5 -59 -29 -189l-52 -285h-97l-104 569h73l81 -496l89 496h79l89 -497z" />
    <glyph glyph-name="x" unicode="x" horiz-adv-x="362" 
d="M279 569h74l-136 -284l136 -285h-74l-98 215l-97 -215h-75l135 285l-135 284h75l97 -213z" />
    <glyph glyph-name="y" unicode="y" horiz-adv-x="388" 
d="M299 569h71l-156 -718h-68l31 149h-35l-124 569h72l60 -283l44 -236q20 118 44 236z" />
    <glyph glyph-name="z" unicode="z" horiz-adv-x="321" 
d="M25 569h275v-55l-208 -452h208v-62h-280v55l205 452h-200v62z" />
    <glyph glyph-name="braceleft" unicode="{" horiz-adv-x="351" 
d="M200 656v-206q0 -58 -18.5 -88.5t-67.5 -36.5q49 -6 67.5 -35.5t18.5 -86.5v-209q0 -66 82 -66h15v-61h-18q-68 0 -105 34.5t-37 94.5v228q0 33 -19.5 52t-56.5 19h-2v60h2q37 0 56.5 19t19.5 52v228q0 60 37 94t105 34h18v-60h-15q-82 0 -82 -66z" />
    <glyph glyph-name="bar" unicode="|" horiz-adv-x="207" 
d="M76 804h55v-955h-55v955z" />
    <glyph glyph-name="braceright" unicode="}" horiz-adv-x="351" 
d="M289 355h2v-60h-2q-37 0 -57 -19t-20 -52v-228q0 -61 -36.5 -95t-104.5 -34h-18v61h15q82 0 82 66v209q0 57 18.5 86.5t66.5 35.5q-48 6 -66.5 36.5t-18.5 88.5v206q0 66 -82 66h-15v60h18q68 0 104.5 -34t36.5 -94v-228q0 -33 20 -52t57 -19z" />
    <glyph glyph-name="asciitilde" unicode="~" horiz-adv-x="428" 
d="M403 365q0 -60 -47 -81.5t-101 4.5l-88 39q-38 19 -64 8t-19 -52h-58q-3 14 -3 29q0 41 23 65q42 44 126 12l88 -38q40 -20 65 -9t18 53h58q2 -14 2 -30z" />
    <glyph glyph-name="uni00A0" unicode="&#xa0;" horiz-adv-x="189" 
 />
    <glyph glyph-name="exclamdown" unicode="&#xa1;" horiz-adv-x="248" 
d="M162 -103h-77l9 500h59zM80 529.5q0 45.5 43.5 45.5t43.5 -45.5t-43.5 -45.5t-43.5 45.5z" />
    <glyph glyph-name="cent" unicode="&#xa2;" horiz-adv-x="400" 
d="M265 -77h-65v74q-133 13 -133 140v293q0 129 133 142v81h65v-80q43 -3 76 -13v-65q-48 13 -104 13t-77.5 -19.5t-21.5 -60.5v-288q0 -42 21.5 -61t79.5 -19t104 16v-67q-46 -11 -78 -13v-73z" />
    <glyph glyph-name="sterling" unicode="&#xa3;" horiz-adv-x="459" 
d="M421 65v-65h-375v65q33 5 43.5 15t16.5 20q14 19 14 60v156h-62v60h62v141q0 74 42 115.5t129 41.5q63 0 123 -20v-68q-65 21 -122.5 21t-79 -23.5t-21.5 -69.5v-138h171v-60h-171v-149q0 -76 -47 -102h277z" />
    <glyph glyph-name="currency" unicode="&#xa4;" horiz-adv-x="460" 
d="M388 376v-80q0 -45 -14 -76l45 -44l-46 -45l-40 40q-37 -25 -101.5 -25t-103.5 25l-40 -40l-46 45l45 44q-13 32 -13 76v80q0 45 13 75l-45 44l46 46l40 -40q39 25 103.5 25t101.5 -25l41 40l45 -46l-44 -43q13 -32 13 -76zM143 375v-78q0 -46 18.5 -67.5t69 -21.5
t69 21.5t18.5 67.5v78q0 46 -18.5 67.5t-69 21.5t-69 -21.5t-18.5 -67.5z" />
    <glyph glyph-name="yen" unicode="&#xa5;" horiz-adv-x="473" 
d="M445 413v-56h-112l-40 -99h152v-56h-167v-202h-67v202h-170v56h153l-39 99h-114v56h93l-94 241h70l135 -358l133 358h70l-94 -241h91z" />
    <glyph glyph-name="brokenbar" unicode="&#xa6;" horiz-adv-x="208" 
d="M76 228h55v-379h-55v379zM76 804h55v-378h-55v378z" />
    <glyph glyph-name="section" unicode="&#xa7;" horiz-adv-x="365" 
d="M108 263v-14q0 -32 12.5 -49t46.5 -32l86 -42q90 -44 90 -123v-12q0 -140 -182 -140q-68 0 -119 14v67q48 -17 114 -17t91 18.5t25 54.5t-12.5 52t-51.5 35l-86 41q-84 39 -84 127v20h70zM30 534q0 70 40 104.5t131 34.5q63 0 111 -15v-66q-48 17 -109 17t-81.5 -18.5
t-20.5 -59t11.5 -56t46.5 -31.5l86 -41q90 -44 90 -122v-20h-70v14q0 28 -13 43.5t-52 33.5l-86 42q-84 38 -84 126v14z" />
    <glyph glyph-name="dieresis" unicode="&#xa8;" horiz-adv-x="350" 
d="M242 628q-38 0 -38 37.5t38 37.5t38 -37.5t-38 -37.5zM69 665.5q0 37.5 38.5 37.5t38.5 -37.5t-38.5 -37.5t-38.5 37.5z" />
    <glyph glyph-name="copyright" unicode="&#xa9;" horiz-adv-x="687" 
d="M571 216q9 44 9 102.5t-4.5 95t-18.5 73t-39 57.5q-56 49 -173 49q-152 0 -199 -77q-23 -40 -31 -83t-8 -109t8.5 -109.5t32.5 -82.5q47 -76 197 -76q146 0 193 77q24 39 33 83zM226 379q0 61 30.5 93t100.5 32q40 0 74 -8v-56q-36 11 -78 11t-55 -18t-13 -55v-107
q0 -33 9 -48q14 -24 57 -24t81 10v-56q-45 -8 -75 -8q-70 0 -100.5 32t-30.5 93v109zM60.5 193.5q-13.5 55.5 -13.5 123t7.5 114t28 89t53.5 70.5t85.5 44t123.5 16t123.5 -16t85 -43.5t52.5 -70.5q34 -72 34 -196q0 -239 -152 -300q-59 -24 -144 -24t-145 23.5t-92.5 69
t-46 101z" />
    <glyph glyph-name="ordfeminine" unicode="&#xaa;" horiz-adv-x="338" 
d="M86 432v-33q0 -35 15.5 -51t66 -16t76.5 35v144l-88 -15q-70 -14 -70 -64zM169 745q126 0 126 -105v-352h-51v35q-29 -35 -96 -35q-114 0 -114 110v36q0 46 29 71t84 36l97 18v85q-2 27 -19 40t-67 13t-106 -20v50q54 18 117 18z" />
    <glyph glyph-name="guillemotleft" unicode="&#xab;" horiz-adv-x="465" 
d="M182 505h73l-122 -183l122 -183h-73l-121 183zM360 505h74l-122 -183l122 -183h-74l-121 183z" />
    <glyph glyph-name="logicalnot" unicode="&#xac;" horiz-adv-x="455" 
d="M68 361h319v-163h-73v100h-246v63z" />
    <glyph glyph-name="uni00AD" unicode="&#xad;" horiz-adv-x="228" 
d="M40 354h153v-59h-153v59z" />
    <glyph glyph-name="registered" unicode="&#xae;" horiz-adv-x="511" 
d="M114 680.5q43 51.5 155.5 51.5t156 -51.5t43.5 -161t-43 -161t-156 -51.5t-156 51t-43 161t43 161.5zM268 348q51 0 82 9t47.5 32t21.5 51.5t5 77.5q0 99 -29.5 136.5t-125.5 37.5t-124.5 -37.5t-28.5 -135.5t28.5 -134.5t123.5 -36.5zM195 650h72q89 0 89 -79
q0 -55 -35 -73l46 -107h-48l-38 97q-5 -1 -15 -1h-27v-96h-44v259zM239 524h23q29 0 41 9.5t12 36.5t-10.5 34.5t-35.5 7.5h-30v-88z" />
    <glyph glyph-name="macron" unicode="&#xaf;" horiz-adv-x="350" 
d="M64 690h222v-47h-222v47z" />
    <glyph glyph-name="degree" unicode="&#xb0;" horiz-adv-x="370" 
d="M266 650q0 43 -16.5 66t-62.5 23t-61.5 -23t-15.5 -66.5t15.5 -66t61.5 -22.5t62.5 23t16.5 66zM187 506q-135 0 -135 144.5t135 144.5q137 0 137 -145q0 -66 -32.5 -105t-104.5 -39z" />
    <glyph glyph-name="plusminus" unicode="&#xb1;" horiz-adv-x="437" 
d="M252 354h146v-59h-146v-138h-65v138h-146v59h146v138h65v-138zM41 42v59h357v-59h-357z" />
    <glyph glyph-name="twosuperior" unicode="&#xb2;" horiz-adv-x="292" 
d="M142 745q121 0 121 -104v-23q0 -40 -13 -65t-46 -48l-63 -44q-42 -28 -51.5 -42t-9.5 -47v-35h185v-48h-236v83q0 46 17 71t62 55l66 45q24 15 31 32t7 46v19q0 29 -15.5 43t-64.5 14t-90 -11v49q37 10 100 10z" />
    <glyph glyph-name="threesuperior" unicode="&#xb3;" horiz-adv-x="305" 
d="M134 745q121 0 124 -100v-42q0 -66 -44 -84q44 -18 44 -82v-49q0 -103 -124 -103q-63 0 -102 11v49q55 -12 98.5 -12t59.5 13.5t16 42.5v48q0 28 -12.5 42.5t-50.5 15.5h-45v48h45q38 0 50.5 15.5t12.5 44.5v37q0 29 -16 43t-57 14t-91 -9v49q43 8 92 8z" />
    <glyph glyph-name="acute" unicode="&#xb4;" horiz-adv-x="350" 
d="M161 720h67l-60 -107h-46z" />
    <glyph glyph-name="uni00B5" unicode="&#xb5;" horiz-adv-x="456" 
d="M219 63q49 0 97 32v474h71v-569h-69v27q-40 -27 -93.5 -27.5t-85.5 11.5v-161h-72v719h72v-488q7 -7 31.5 -12.5t48.5 -5.5z" />
    <glyph glyph-name="paragraph" unicode="&#xb6;" horiz-adv-x="404" 
d="M226 672h106v-671h-71v370h-35q-80 0 -121 40.5t-41 110t41.5 110t120.5 40.5z" />
    <glyph glyph-name="periodcentered" unicode="&#xb7;" horiz-adv-x="215" 
d="M109 303q-42 0 -42 41.5t42 41.5t42 -41.5t-42 -41.5z" />
    <glyph glyph-name="cedilla" unicode="&#xb8;" horiz-adv-x="350" 
d="M225 -59q19 -17 19 -50.5t-25 -53t-59.5 -19.5t-54.5 7v40q17 -7 43 -7q51 0 51 36.5t-53 36.5h-13l15 75h38l-10 -46q30 -2 49 -19z" />
    <glyph glyph-name="onesuperior" unicode="&#xb9;" horiz-adv-x="223" 
d="M170 740v-451h-51v399l-97 -75v61l88 66h60z" />
    <glyph glyph-name="ordmasculine" unicode="&#xba;" horiz-adv-x="336" 
d="M226 684q-16 13 -55.5 13t-56 -13t-16.5 -40v-254q0 -29 16.5 -43t56.5 -14t56 14t16 43v254q-1 27 -17 40zM47 640q0 105 124 105t124 -105v-250q0 -105 -124 -105t-124 105v250z" />
    <glyph glyph-name="guillemotright" unicode="&#xbb;" horiz-adv-x="464" 
d="M28 505h73l121 -183l-121 -183h-73l122 183zM206 505h74l121 -183l-121 -183h-74l122 183z" />
    <glyph glyph-name="onequarter" unicode="&#xbc;" horiz-adv-x="787" 
d="M489 672h53l-334 -672h-53zM630 145v266l-134 -266h134zM680 451v-306h49v-47h-49v-98h-50v98h-184v48l155 305h79zM188 672v-452h-51v400l-97 -76v61l88 67h60z" />
    <glyph glyph-name="onehalf" unicode="&#xbd;" horiz-adv-x="779" 
d="M489 672h53l-333 -672h-53zM188 672v-451h-51v399l-97 -75v61l88 66h60zM594 456q121 0 121 -104v-23q0 -40 -13 -65t-46 -48l-63 -44q-42 -28 -51.5 -42t-9.5 -47v-35h185v-48h-236v83q0 46 17 71t62 55l66 45q24 15 31 32t7 46v19q0 29 -15.5 43t-64.5 14t-90 -11v49
q37 10 100 10z" />
    <glyph glyph-name="threequarters" unicode="&#xbe;" horiz-adv-x="827" 
d="M142 677q121 0 124 -100v-42q0 -66 -44 -84q44 -18 44 -82v-48q0 -104 -124 -104q-56 0 -102 11v49q55 -12 98.5 -12t59.5 13.5t16 42.5v48q0 28 -12.5 42.5t-50.5 15.5h-45v48h45q38 0 50.5 15.5t12.5 44.5v38q0 29 -16 42.5t-58 13.5t-91 -9v49q45 8 93 8zM544 672h53
l-334 -672h-53zM670 145v266l-135 -266h135zM720 451v-306h49v-47h-49v-98h-50v98h-185v48l155 305h80z" />
    <glyph glyph-name="questiondown" unicode="&#xbf;" horiz-adv-x="379" 
d="M266 529.5q0 -45.5 -43.5 -45.5t-43.5 45.5t43.5 45.5t43.5 -45.5zM213 -113q-178 0 -178 141v99q0 150 152 154l5 116h61l4 -176h-55q-97 0 -97 -95v-94q0 -40 23 -59t86 -19t116 17v-69q-56 -15 -117 -15z" />
    <glyph glyph-name="Agrave" unicode="&#xc0;" horiz-adv-x="438" 
d="M350 0l-41 188h-180l-41 -188h-71l152 672h100l152 -672h-71zM142 250h153l-77 353zM237 713h-46l-60 107h67z" />
    <glyph glyph-name="Aacute" unicode="&#xc1;" horiz-adv-x="438" 
d="M350 0l-41 188h-180l-41 -188h-71l152 672h100l152 -672h-71zM142 250h153l-77 353zM301 820l-60 -107h-46l39 107h67z" />
    <glyph glyph-name="Acircumflex" unicode="&#xc2;" horiz-adv-x="438" 
d="M350 0l-41 188h-180l-41 -188h-71l152 672h100l152 -672h-71zM142 250h153l-77 353zM221 776l-36 -63h-44l50 107h59l51 -107h-44z" />
    <glyph glyph-name="Atilde" unicode="&#xc3;" horiz-adv-x="438" 
d="M350 0l-41 188h-180l-41 -188h-71l152 672h100l152 -672h-71zM142 250h153l-77 353zM149 733v-11h-50v13q0 34 17 54.5t47 20.5t65 -20.5t46 -20.5q22 0 22 32v11h50v-14q0 -35 -17 -54.5t-45.5 -19.5t-62.5 20t-49 20q-23 0 -23 -31z" />
    <glyph glyph-name="Adieresis" unicode="&#xc4;" horiz-adv-x="438" 
d="M350 0l-41 188h-180l-41 -188h-71l152 672h100l152 -672h-71zM142 250h153l-77 353zM150.5 728q-38.5 0 -38.5 37.5t38.5 37.5t38.5 -37.5t-38.5 -37.5zM285 728q-38 0 -38 37.5t38 37.5t38 -37.5t-38 -37.5z" />
    <glyph glyph-name="Aring" unicode="&#xc5;" horiz-adv-x="438" 
d="M350 0l-41 188h-180l-41 -188h-71l152 672h100l152 -672h-71zM142 250h153l-77 353zM272.5 715q-19.5 -21 -54 -21t-54.5 21t-20 52t20 51.5t54.5 20.5t54 -20.5t19.5 -51.5t-19.5 -52zM218 802q-16 0 -25.5 -9.5t-9.5 -25.5q0 -36 35 -36t35 36q0 16 -9.5 25.5
t-25.5 9.5z" />
    <glyph glyph-name="AE" unicode="&#xc6;" horiz-adv-x="659" 
d="M644 609h-221v-239h192v-63h-192v-244h221v-63h-290v188h-189l-83 -188h-74l303 672h333v-63zM354 250v370l-162 -370h162z" />
    <glyph glyph-name="Ccedilla" unicode="&#xc7;" horiz-adv-x="394" 
d="M281 -59q19 -17 19 -50.5t-25 -53t-59.5 -19.5t-54.5 7v40q17 -7 43 -7q51 0 51 36.5t-53 36.5h-13l13 66q-143 14 -143 140v398q0 142 180 142q58 0 116 -16v-66q-59 17 -118 17t-83 -20.5t-24 -60.5v-391q0 -39 24.5 -59.5t86 -20.5t116.5 16v-65q-50 -16 -117 -16
l-8 -35q30 -2 49 -19z" />
    <glyph glyph-name="Egrave" unicode="&#xc8;" horiz-adv-x="397" 
d="M133 820h67l39 -107h-46zM69 672h291v-63h-220v-239h192v-63h-192v-244h220v-63h-291v672z" />
    <glyph glyph-name="Eacute" unicode="&#xc9;" horiz-adv-x="397" 
d="M69 672h291v-63h-220v-239h192v-63h-192v-244h220v-63h-291v672zM231 820h67l-60 -107h-46z" />
    <glyph glyph-name="Ecircumflex" unicode="&#xca;" horiz-adv-x="397" 
d="M360 609h-220v-239h192v-63h-192v-244h220v-63h-291v672h291v-63zM209 776l-36 -63h-44l50 107h59l51 -107h-44z" />
    <glyph glyph-name="Edieresis" unicode="&#xcb;" horiz-adv-x="397" 
d="M69 672h291v-63h-220v-239h192v-63h-192v-244h220v-63h-291v672zM284 728q-38 0 -38 37.5t38 37.5t38 -37.5t-38 -37.5zM111 765.5q0 37.5 38.5 37.5t38.5 -37.5t-38.5 -37.5t-38.5 37.5z" />
    <glyph glyph-name="Igrave" unicode="&#xcc;" horiz-adv-x="397" 
d="M134 820h67l39 -107h-46zM69 672h291v-63h-220v-239h192v-63h-192v-244h220v-63h-291v672z" />
    <glyph glyph-name="Iacute" unicode="&#xcd;" horiz-adv-x="397" 
d="M69 672h291v-63h-220v-239h192v-63h-192v-244h220v-63h-291v672zM232 820h67l-60 -107h-46z" />
    <glyph glyph-name="Icircumflex" unicode="&#xce;" 
d="M138 820l51 -107h-44l-36 63l-36 -63h-44l50 107h59zM69 0v672h71v-672h-71z" />
    <glyph glyph-name="Idieresis" unicode="&#xcf;" 
d="M170 728q-38 0 -38 37.5t38 37.5t38 -37.5t-38 -37.5zM-3 765.5q0 37.5 38.5 37.5t38.5 -37.5t-38.5 -37.5t-38.5 37.5zM69 672h71v-672h-71v672z" />
    <glyph glyph-name="Eth" unicode="&#xd0;" horiz-adv-x="467" 
d="M71 672h176q80 0 121 -41t41 -110v-368q0 -71 -40 -112t-120 -41h-178v299h-74v61h74v312zM338 155v365q0 90 -95 90h-101v-250h108v-61h-108v-236h101q95 0 95 92z" />
    <glyph glyph-name="Ntilde" unicode="&#xd1;" horiz-adv-x="500" 
d="M332 812h50v-14q0 -35 -17 -54.5t-45.5 -19.5t-62.5 20t-49 20q-23 0 -23 -31v-11h-50v13q0 34 17 54.5t47 20.5t65 -20.5t46 -20.5q22 0 22 32v11zM367 114l-7 221v337h71v-672h-82l-138 348q-8 21 -79 209l6 -220v-337h-69v672h82q159 -404 216 -558z" />
    <glyph glyph-name="Ograve" unicode="&#xd2;" horiz-adv-x="457" 
d="M139 820h67l39 -107h-46zM327 522q0 95 -98.5 95t-98.5 -95v-372q0 -96 98.5 -96t98.5 96v372zM59 523q0 71 43 115t126.5 44t126.5 -44t43 -115v-375q0 -71 -43 -114.5t-127 -43.5t-126.5 43.5t-42.5 114.5v375z" />
    <glyph glyph-name="Oacute" unicode="&#xd3;" horiz-adv-x="457" 
d="M327 522q0 95 -98.5 95t-98.5 -95v-372q0 -96 98.5 -96t98.5 96v372zM59 523q0 71 43 115t126.5 44t126.5 -44t43 -115v-375q0 -71 -43 -114.5t-127 -43.5t-126.5 43.5t-42.5 114.5v375zM244 820h67l-60 -107h-46z" />
    <glyph glyph-name="Ocircumflex" unicode="&#xd4;" horiz-adv-x="457" 
d="M59 148v375q0 71 43 115t126.5 44t126.5 -44t43 -115v-375q0 -71 -43 -114.5t-127 -43.5t-126.5 43.5t-42.5 114.5zM327 150v372q0 95 -98.5 95t-98.5 -95v-372q0 -96 98.5 -96t98.5 96zM228 776l-36 -63h-44l50 107h59l51 -107h-44z" />
    <glyph glyph-name="Otilde" unicode="&#xd5;" horiz-adv-x="457" 
d="M302 812h50v-14q0 -35 -17 -54.5t-45.5 -19.5t-62.5 20t-49 20q-23 0 -23 -31v-11h-50v13q0 34 17 54.5t47 20.5t65 -20.5t46 -20.5q22 0 22 32v11zM327 522q0 95 -98.5 95t-98.5 -95v-372q0 -96 98.5 -96t98.5 96v372zM59 523q0 71 43 115t126.5 44t126.5 -44t43 -115
v-375q0 -71 -43 -114.5t-127 -43.5t-126.5 43.5t-42.5 114.5v375z" />
    <glyph glyph-name="Odieresis" unicode="&#xd6;" horiz-adv-x="457" 
d="M327 522q0 95 -98.5 95t-98.5 -95v-372q0 -96 98.5 -96t98.5 96v372zM59 523q0 71 43 115t126.5 44t126.5 -44t43 -115v-375q0 -71 -43 -114.5t-127 -43.5t-126.5 43.5t-42.5 114.5v375zM295 728q-38 0 -38 37.5t38 37.5t38 -37.5t-38 -37.5zM122 765.5q0 37.5 38.5 37.5
t38.5 -37.5t-38.5 -37.5t-38.5 37.5z" />
    <glyph glyph-name="multiply" unicode="&#xd7;" horiz-adv-x="375" 
d="M344 440l-115 -115l115 -115l-42 -42l-115 115l-115 -115l-42 42l116 115l-115 115l41 41l115 -115l115 115z" />
    <glyph glyph-name="Oslash" unicode="&#xd8;" horiz-adv-x="457" 
d="M398 523v-375q0 -71 -43 -114.5t-118 -43.5t-118 29l-8 -19h-53l25 57q-24 39 -24 91v375q0 71 43 115t117.5 44t117.5 -29l8 19h54l-25 -58q24 -38 24 -91zM130 522v-353l178 417q-24 31 -80 31q-98 0 -98 -95zM327 150v354l-179 -418q24 -32 80 -32q99 0 99 96z" />
    <glyph glyph-name="Ugrave" unicode="&#xd9;" horiz-adv-x="466" 
d="M150 820h67l39 -107h-46zM331 672h71v-524q0 -71 -42.5 -114.5t-126.5 -43.5t-126.5 43.5t-42.5 114.5v524h71v-522q0 -96 98 -96t98 96v522z" />
    <glyph glyph-name="Uacute" unicode="&#xda;" horiz-adv-x="466" 
d="M331 672h71v-524q0 -71 -42.5 -114.5t-126.5 -43.5t-126.5 43.5t-42.5 114.5v524h71v-522q0 -96 98 -96t98 96v522zM249 820h67l-60 -107h-46z" />
    <glyph glyph-name="Ucircumflex" unicode="&#xdb;" horiz-adv-x="466" 
d="M331 672h71v-524q0 -71 -42.5 -114.5t-126.5 -43.5t-126.5 43.5t-42.5 114.5v524h71v-522q0 -96 98 -96t98 96v522zM232 776l-36 -63h-44l50 107h59l51 -107h-44z" />
    <glyph glyph-name="Udieresis" unicode="&#xdc;" horiz-adv-x="466" 
d="M331 672h71v-524q0 -71 -42.5 -114.5t-126.5 -43.5t-126.5 43.5t-42.5 114.5v524h71v-522q0 -96 98 -96t98 96v522zM300 728q-38 0 -38 37.5t38 37.5t38 -37.5t-38 -37.5zM127 765.5q0 37.5 38.5 37.5t38.5 -37.5t-38.5 -37.5t-38.5 37.5z" />
    <glyph glyph-name="Yacute" unicode="&#xdd;" horiz-adv-x="409" 
d="M218 820h67l-60 -107h-46zM240 0h-71v227l-165 445h73l68 -183q4 -11 61 -179q37 115 127 362h72l-165 -445v-227z" />
    <glyph glyph-name="Thorn" unicode="&#xde;" horiz-adv-x="429" 
d="M148 551h92q79 0 120.5 -41t41.5 -110v-128q0 -69 -41.5 -110t-120.5 -41h-92v-121h-69v672h69v-121zM332 276v120q0 92 -95 92h-89v-303h89q95 0 95 91z" />
    <glyph glyph-name="germandbls" unicode="&#xdf;" horiz-adv-x="537" 
d="M69 550q0 82 47 124t132 42t132 -40t47 -111q0 -34 -13.5 -63t-29.5 -46q-44 -45 -44 -74v-11q0 -22 16.5 -40.5t65.5 -45.5t71.5 -54t22.5 -68v-27q0 -66 -44.5 -103.5t-133.5 -37.5q-60 0 -116 16v68q50 -18 112 -18t87 20.5t25 57.5v18q0 28 -14.5 45.5t-65 44.5
t-74 53t-23.5 66v13q0 27 13.5 51.5t30 40t30 40t13.5 52.5q0 89 -102 89q-60 0 -88 -25.5t-28 -79.5v-547h-69v550z" />
    <glyph glyph-name="agrave" unicode="&#xe0;" horiz-adv-x="425" 
d="M124 720h67l39 -107h-46zM101 162v-30q0 -40 19 -59t72 -19t100 39v187l-114 -32q-45 -13 -61 -32t-16 -54zM191 574q170 0 170 -145v-429h-68v41q-51 -45 -122 -45q-139 0 -139 137v32q0 104 121 138l140 39v87q-1 41 -23 60t-88.5 19t-122.5 -20v67q57 19 132 19z" />
    <glyph glyph-name="aacute" unicode="&#xe1;" horiz-adv-x="425" 
d="M221 720h67l-60 -107h-46zM101 162v-30q0 -40 19 -59t72 -19t100 39v187l-114 -32q-45 -13 -61 -32t-16 -54zM191 574q170 0 170 -145v-429h-68v41q-51 -45 -122 -45q-139 0 -139 137v32q0 104 121 138l140 39v87q-1 41 -23 60t-88.5 19t-122.5 -20v67q57 19 132 19z" />
    <glyph glyph-name="acircumflex" unicode="&#xe2;" horiz-adv-x="425" 
d="M191 574q170 0 170 -145v-429h-68v41q-51 -45 -122 -45q-139 0 -139 137v32q0 104 121 138l140 39v87q-1 41 -23 60t-88.5 19t-122.5 -20v67q57 19 132 19zM101 162v-30q0 -40 19 -59t72 -19t100 39v187l-114 -32q-45 -13 -61 -32t-16 -54zM215 676l-36 -63h-44l50 107
h59l51 -107h-44z" />
    <glyph glyph-name="atilde" unicode="&#xe3;" horiz-adv-x="425" 
d="M285 712h50v-14q0 -35 -17 -54.5t-45.5 -19.5t-62.5 20t-49 20q-23 0 -23 -31v-11h-50v13q0 34 17 54.5t47 20.5t65 -20.5t46 -20.5q22 0 22 32v11zM101 162v-30q0 -40 19 -59t72 -19t100 39v187l-114 -32q-45 -13 -61 -32t-16 -54zM191 574q170 0 170 -145v-429h-68v41
q-51 -45 -122 -45q-139 0 -139 137v32q0 104 121 138l140 39v87q-1 41 -23 60t-88.5 19t-122.5 -20v67q57 19 132 19z" />
    <glyph glyph-name="adieresis" unicode="&#xe4;" horiz-adv-x="425" 
d="M277 628q-38 0 -38 37.5t38 37.5t38 -37.5t-38 -37.5zM104 665.5q0 37.5 38.5 37.5t38.5 -37.5t-38.5 -37.5t-38.5 37.5zM101 162v-30q0 -40 19 -59t72 -19t100 39v187l-114 -32q-45 -13 -61 -32t-16 -54zM191 574q170 0 170 -145v-429h-68v41q-51 -45 -122 -45
q-139 0 -139 137v32q0 104 121 138l140 39v87q-1 41 -23 60t-88.5 19t-122.5 -20v67q57 19 132 19z" />
    <glyph glyph-name="aring" unicode="&#xe5;" horiz-adv-x="425" 
d="M244 667q0 16 -9.5 25.5t-25.5 9.5t-25.5 -9.5t-9.5 -25.5q0 -36 35 -36t35 36zM135 667q0 31 20 51.5t54.5 20.5t54 -20.5t19.5 -51.5t-19.5 -52t-54 -21t-54.5 21t-20 52zM101 162v-30q0 -40 19 -59t72 -19t100 39v187l-114 -32q-45 -13 -61 -32t-16 -54zM191 574
q170 0 170 -145v-429h-68v41q-51 -45 -122 -45q-139 0 -139 137v32q0 104 121 138l140 39v87q-1 41 -23 60t-88.5 19t-122.5 -20v67q57 19 132 19z" />
    <glyph glyph-name="ae" unicode="&#xe6;" horiz-adv-x="649" 
d="M550 423q0 94 -93 94q-95 0 -95 -94v-115h188v115zM101 162v-30q0 -40 19.5 -59t62.5 -19q66 0 110 35v191l-115 -32q-45 -13 -61 -32t-16 -54zM328 525q46 54 128.5 54t122.5 -42.5t40 -113.5v-174h-257v-101q0 -89 124 -89q53 0 116 18v-66q-50 -16 -119 -16
q-108 0 -153 48q-55 -47 -155 -47q-142 0 -142 137v32q0 53 28.5 86.5t91.5 51.5l139 41v87q0 39 -22 58t-88.5 19t-122.5 -20v67q55 19 141.5 19t127.5 -49z" />
    <glyph glyph-name="ccedilla" unicode="&#xe7;" horiz-adv-x="370" 
d="M227 -5h-1l-8 -35q30 -2 49 -19t19 -50.5t-25 -53t-59.5 -19.5t-54.5 7v40q18 -7 43 -7q51 0 51 36.5t-53 36.5h-13l13 66q-129 16 -129 140v293q0 144 168 144q62 0 106 -14v-65q-48 13 -104 13t-77.5 -19.5t-21.5 -60.5v-288q0 -42 21.5 -61t79.5 -19t104 16v-67
q-54 -14 -108 -14z" />
    <glyph glyph-name="egrave" unicode="&#xe8;" horiz-adv-x="436" 
d="M59 145v278q0 71 40.5 113.5t122.5 42.5t121.5 -42.5t39.5 -113.5v-174h-254v-101q0 -45 28 -67t87 -22t122 18v-66q-50 -16 -119 -16q-188 0 -188 150zM129 308h186v115q0 94 -93 94t-93 -94v-115zM251 613h-46l-60 107h67z" />
    <glyph glyph-name="eacute" unicode="&#xe9;" horiz-adv-x="436" 
d="M59 145v278q0 71 40.5 113.5t122.5 42.5t121.5 -42.5t39.5 -113.5v-174h-254v-101q0 -45 28 -67t87 -22t122 18v-66q-50 -16 -119 -16q-188 0 -188 150zM129 308h186v115q0 94 -93 94t-93 -94v-115zM309 720l-60 -107h-46l39 107h67z" />
    <glyph glyph-name="ecircumflex" unicode="&#xea;" horiz-adv-x="436" 
d="M59 145v278q0 71 40.5 113.5t122.5 42.5t121.5 -42.5t39.5 -113.5v-174h-254v-101q0 -45 28 -67t87 -22t122 18v-66q-50 -16 -119 -16q-188 0 -188 150zM129 308h186v115q0 94 -93 94t-93 -94v-115zM229 676l-36 -63h-44l50 107h59l51 -107h-44z" />
    <glyph glyph-name="edieresis" unicode="&#xeb;" horiz-adv-x="436" 
d="M59 145v278q0 71 40.5 113.5t122.5 42.5t121.5 -42.5t39.5 -113.5v-174h-254v-101q0 -45 28 -67t87 -22t122 18v-66q-50 -16 -119 -16q-188 0 -188 150zM129 308h186v115q0 94 -93 94t-93 -94v-115zM157.5 628q-38.5 0 -38.5 37.5t38.5 37.5t38.5 -37.5t-38.5 -37.5z
M292 628q-38 0 -38 37.5t38 37.5t38 -37.5t-38 -37.5z" />
    <glyph glyph-name="igrave" unicode="&#xec;" 
d="M20 720h67l39 -107h-46zM69 565h71v-565h-71v565z" />
    <glyph glyph-name="iacute" unicode="&#xed;" 
d="M120 720h67l-60 -107h-46zM69 565h71v-565h-71v565z" />
    <glyph glyph-name="icircumflex" unicode="&#xee;" 
d="M134 720l51 -107h-44l-36 63l-36 -63h-44l50 107h59zM69 0v565h71v-565h-71z" />
    <glyph glyph-name="idieresis" unicode="&#xef;" 
d="M172 628q-38 0 -38 37.5t38 37.5t38 -37.5t-38 -37.5zM-1 665.5q0 37.5 38.5 37.5t38.5 -37.5t-38.5 -37.5t-38.5 37.5zM69 565h71v-565h-71v565z" />
    <glyph glyph-name="eth" unicode="&#xf0;" horiz-adv-x="453" 
d="M388 307v-160q0 -71 -40.5 -113.5t-122 -42.5t-121.5 42t-40 113v146q0 70 37.5 111t114.5 41q54 0 88 -30q-19 71 -59 141l-108 -55v51l84 42q-30 43 -66 79h90q20 -22 37 -48l101 51v-50l-76 -39q81 -138 81 -279zM318 147v205q-31 33 -92 33q-93 0 -93 -94v-143
q0 -94 92.5 -94t92.5 93z" />
    <glyph glyph-name="ntilde" unicode="&#xf1;" horiz-adv-x="451" 
d="M303 712h50v-14q0 -35 -17 -54.5t-45.5 -19.5t-62.5 20t-49 20q-23 0 -23 -31v-11h-50v13q0 34 17 54.5t47 20.5t65 -20.5t46 -20.5q22 0 22 32v11zM137 543q67 28 122.5 28t91.5 -34.5t36 -97.5v-439h-71v432q0 73 -74 73q-47 0 -102 -26v-479h-71v569h68v-26z" />
    <glyph glyph-name="ograve" unicode="&#xf2;" horiz-adv-x="442" 
d="M142 720h67l39 -107h-46zM313 423q0 93 -92 93t-92 -93v-277q0 -94 92 -94t92 94v277zM59 424q0 71 40 113t122 42t122 -42t40 -113v-279q0 -71 -40 -113t-122 -42t-122 42t-40 113v279z" />
    <glyph glyph-name="oacute" unicode="&#xf3;" horiz-adv-x="442" 
d="M313 423q0 93 -92 93t-92 -93v-277q0 -94 92 -94t92 94v277zM59 424q0 71 40 113t122 42t122 -42t40 -113v-279q0 -71 -40 -113t-122 -42t-122 42t-40 113v279zM241 720h67l-60 -107h-46z" />
    <glyph glyph-name="ocircumflex" unicode="&#xf4;" horiz-adv-x="442" 
d="M59 145v279q0 71 40 113t122 42t122 -42t40 -113v-279q0 -71 -40 -113t-122 -42t-122 42t-40 113zM313 146v277q0 93 -92 93t-92 -93v-277q0 -94 92 -94t92 94zM225 676l-36 -63h-44l50 107h59l51 -107h-44z" />
    <glyph glyph-name="otilde" unicode="&#xf5;" horiz-adv-x="442" 
d="M299 712h50v-14q0 -35 -17 -54.5t-45.5 -19.5t-62.5 20t-49 20q-23 0 -23 -31v-11h-50v13q0 34 17 54.5t47 20.5t65 -20.5t46 -20.5q22 0 22 32v11zM313 423q0 93 -92 93t-92 -93v-277q0 -94 92 -94t92 94v277zM59 424q0 71 40 113t122 42t122 -42t40 -113v-279
q0 -71 -40 -113t-122 -42t-122 42t-40 113v279z" />
    <glyph glyph-name="odieresis" unicode="&#xf6;" horiz-adv-x="442" 
d="M313 423q0 93 -92 93t-92 -93v-277q0 -94 92 -94t92 94v277zM59 424q0 71 40 113t122 42t122 -42t40 -113v-279q0 -71 -40 -113t-122 -42t-122 42t-40 113v279zM295 628q-38 0 -38 37.5t38 37.5t38 -37.5t-38 -37.5zM122 665.5q0 37.5 38.5 37.5t38.5 -37.5t-38.5 -37.5
t-38.5 37.5z" />
    <glyph glyph-name="divide" unicode="&#xf7;" horiz-adv-x="437" 
d="M221 452q-42 0 -42 41.5t42 41.5t42 -41.5t-42 -41.5zM221 109q-42 0 -42 41.5t42 41.5t42 -41.5t-42 -41.5zM40 353h357v-59h-357v59z" />
    <glyph glyph-name="oslash" unicode="&#xf8;" horiz-adv-x="442" 
d="M383 424v-279q0 -71 -40 -113t-113 -42t-111 26l-8 -16h-49l24 48q-27 37 -27 97v279q0 71 40 113t114.5 42t115.5 -30l10 20h49l-27 -55q22 -37 22 -90zM129 423v-285l168 346q-21 32 -76 32q-92 0 -92 -93zM313 146v269l-164 -337q24 -26 72 -26q92 0 92 94z" />
    <glyph glyph-name="ugrave" unicode="&#xf9;" horiz-adv-x="452" 
d="M138 720h67l39 -107h-46zM216 61q50 0 96 31v477h71v-569h-68v27q-58 -29 -118.5 -29t-96.5 36.5t-36 105.5v429h71v-423q0 -85 81 -85z" />
    <glyph glyph-name="uacute" unicode="&#xfa;" horiz-adv-x="452" 
d="M216 61q50 0 96 31v477h71v-569h-68v27q-58 -29 -118.5 -29t-96.5 36.5t-36 105.5v429h71v-423q0 -85 81 -85zM239 720h67l-60 -107h-46z" />
    <glyph glyph-name="ucircumflex" unicode="&#xfb;" horiz-adv-x="452" 
d="M216 61q50 0 96 31v477h71v-569h-68v27q-58 -29 -118.5 -29t-96.5 36.5t-36 105.5v429h71v-423q0 -85 81 -85zM226 676l-36 -63h-44l50 107h59l51 -107h-44z" />
    <glyph glyph-name="udieresis" unicode="&#xfc;" horiz-adv-x="452" 
d="M216 61q50 0 96 31v477h71v-569h-68v27q-58 -29 -118.5 -29t-96.5 36.5t-36 105.5v429h71v-423q0 -85 81 -85zM293 628q-38 0 -38 37.5t38 37.5t38 -37.5t-38 -37.5zM120 665.5q0 37.5 38.5 37.5t38.5 -37.5t-38.5 -37.5t-38.5 37.5z" />
    <glyph glyph-name="yacute" unicode="&#xfd;" horiz-adv-x="388" 
d="M208 720h67l-60 -107h-46zM299 569h71l-156 -718h-68l31 149h-35l-124 569h72l60 -283l44 -236q20 118 44 236z" />
    <glyph glyph-name="thorn" unicode="&#xfe;" horiz-adv-x="455" 
d="M317 432q0 74 -74 74q-49 0 -103 -27v-415h84q93 0 93 90v278zM69 720h70v-176q65 27 121 27t92.5 -34.5t36.5 -97.5v-290q0 -70 -40.5 -109.5t-107.5 -39.5h-101v-174h-71v894z" />
    <glyph glyph-name="ydieresis" unicode="&#xff;" horiz-adv-x="388" 
d="M299 569h71l-156 -718h-68l31 149h-35l-124 569h72l60 -283l44 -236q20 118 44 236zM259 628q-38 0 -38 37.5t38 37.5t38 -37.5t-38 -37.5zM86 665.5q0 37.5 38.5 37.5t38.5 -37.5t-38.5 -37.5t-38.5 37.5z" />
    <glyph glyph-name="Amacron" unicode="&#x100;" horiz-adv-x="438" 
d="M350 0l-41 188h-180l-41 -188h-71l152 672h100l152 -672h-71zM142 250h153l-77 353zM328 790v-47h-222v47h222z" />
    <glyph glyph-name="amacron" unicode="&#x101;" horiz-adv-x="425" 
d="M96 690h222v-47h-222v47zM101 162v-30q0 -40 19 -59t72 -19t100 39v187l-114 -32q-45 -13 -61 -32t-16 -54zM191 574q170 0 170 -145v-429h-68v41q-51 -45 -122 -45q-139 0 -139 137v32q0 104 121 138l140 39v87q-1 41 -23 60t-88.5 19t-122.5 -20v67q57 19 132 19z" />
    <glyph glyph-name="Abreve" unicode="&#x102;" horiz-adv-x="438" 
d="M350 0l-41 188h-180l-41 -188h-71l152 672h100l152 -672h-71zM142 250h153l-77 353zM218 713q-50 0 -79 30t-31 77h50q1 -28 17 -44.5t43 -16.5t43 16.5t17 44.5h50q-2 -47 -31 -77t-79 -30z" />
    <glyph glyph-name="abreve" unicode="&#x103;" horiz-adv-x="425" 
d="M212 613q-50 0 -79 30t-31 77h50q1 -28 17 -44.5t43 -16.5t43 16.5t17 44.5h50q-2 -47 -31 -77t-79 -30zM101 162v-30q0 -40 19 -59t72 -19t100 39v187l-114 -32q-45 -13 -61 -32t-16 -54zM191 574q170 0 170 -145v-429h-68v41q-51 -45 -122 -45q-139 0 -139 137v32
q0 104 121 138l140 39v87q-1 41 -23 60t-88.5 19t-122.5 -20v67q57 19 132 19z" />
    <glyph glyph-name="Aogonek" unicode="&#x104;" horiz-adv-x="438" 
d="M371 -93q0 -36 37 -36h11v-47h-14q-82 0 -82 68q0 62 60 108h-33l-41 188h-180l-41 -188h-71l152 672h100l152 -672h-2q-48 -38 -48 -93zM142 250h153l-77 353z" />
    <glyph glyph-name="aogonek" unicode="&#x105;" horiz-adv-x="425" 
d="M191 574q170 0 170 -145v-429h-1q-48 -38 -48 -93q0 -36 37 -36h11v-47h-14q-82 0 -82 68q0 62 60 108h-31v41q-51 -45 -122 -45q-139 0 -139 137v32q0 104 121 138l140 39v87q-1 41 -23 60t-88.5 19t-122.5 -20v67q57 19 132 19zM101 162v-30q0 -40 19 -59t72 -19
t100 39v187l-114 -32q-45 -13 -61 -32t-16 -54z" />
    <glyph glyph-name="Cacute" unicode="&#x106;" horiz-adv-x="394" 
d="M59 535q0 142 180 142q58 0 116 -16v-66q-59 17 -118 17t-83 -20.5t-24 -60.5v-391q0 -39 24.5 -59.5t86 -20.5t116.5 16v-65q-50 -16 -118 -16q-180 0 -180 142v398zM241 820h67l-60 -107h-46z" />
    <glyph glyph-name="cacute" unicode="&#x107;" horiz-adv-x="370" 
d="M59 430q0 144 168 144q62 0 106 -14v-65q-48 13 -104 13t-77.5 -19.5t-21.5 -60.5v-288q0 -42 21.5 -61t79.5 -19t104 16v-67q-54 -14 -108 -14q-168 0 -168 142v293zM241 720h67l-60 -107h-46z" />
    <glyph glyph-name="Ccaron" unicode="&#x10c;" horiz-adv-x="394" 
d="M130 531v-391q0 -39 24.5 -59.5t86 -20.5t116.5 16v-65q-50 -16 -118 -16q-180 0 -180 142v398q0 142 180 142q58 0 116 -16v-66q-59 17 -118 17t-83 -20.5t-24 -60.5zM197 713l-50 107h44l36 -63l36 63h44l-51 -107h-59z" />
    <glyph glyph-name="ccaron" unicode="&#x10d;" horiz-adv-x="370" 
d="M130 428v-288q0 -42 21.5 -61t79.5 -19t104 16v-67q-54 -14 -108 -14q-168 0 -168 142v293q0 144 168 144q62 0 106 -14v-65q-48 13 -104 13t-77.5 -19.5t-21.5 -60.5zM191 613l-50 107h44l36 -63l36 63h44l-51 -107h-59z" />
    <glyph glyph-name="Dcaron" unicode="&#x10e;" horiz-adv-x="465" 
d="M69 672h176q80 0 121 -41t41 -110v-368q0 -71 -40 -112t-120 -41h-178v672zM336 155v365q0 90 -95 90h-101v-547h101q95 0 95 92zM196 713l-50 107h44l36 -63l36 63h44l-51 -107h-59z" />
    <glyph glyph-name="dcaron" unicode="&#x10f;" horiz-adv-x="453" 
d="M473 719q27 0 27 -27.5t-47 -94.5h-34l26 122h28zM307 504h-82q-95 0 -95 -86v-273q0 -84 81 -84q60 0 96 34v409zM307 720h71v-720h-69v33q-45 -36 -112 -36t-102.5 37t-35.5 106v279q0 71 42 110.5t112 39.5h94v151z" />
    <glyph glyph-name="Dcroat" unicode="&#x110;" horiz-adv-x="467" 
d="M71 672h176q80 0 121 -41t41 -110v-368q0 -71 -40 -112t-120 -41h-178v304h-61v62h61v306zM338 155v365q0 90 -95 90h-101v-244h101v-62h-101v-241h101q95 0 95 92z" />
    <glyph glyph-name="dcroat" unicode="&#x111;" horiz-adv-x="448" 
d="M419 673v-46h-40v-627h-69v33q-45 -36 -112 -36t-102.5 37t-35.5 106v279q0 71 42 110.5t112 39.5h94v58h-125v46h125v47h71v-47h40zM308 504h-82q-95 0 -95 -86v-273q0 -84 81 -84q60 0 96 34v409z" />
    <glyph glyph-name="Emacron" unicode="&#x112;" horiz-adv-x="397" 
d="M104 790h222v-47h-222v47zM69 672h291v-63h-220v-239h192v-63h-192v-244h220v-63h-291v672z" />
    <glyph glyph-name="emacron" unicode="&#x113;" horiz-adv-x="436" 
d="M59 145v278q0 71 40.5 113.5t122.5 42.5t121.5 -42.5t39.5 -113.5v-174h-254v-101q0 -45 28 -67t87 -22t122 18v-66q-50 -16 -119 -16q-188 0 -188 150zM129 308h186v115q0 94 -93 94t-93 -94v-115zM333 690v-47h-222v47h222z" />
    <glyph glyph-name="Edotaccent" unicode="&#x116;" horiz-adv-x="397" 
d="M181 788.5q0 37.5 38.5 37.5t38.5 -37.5t-38.5 -37.5t-38.5 37.5zM69 672h291v-63h-220v-239h192v-63h-192v-244h220v-63h-291v672z" />
    <glyph glyph-name="edotaccent" unicode="&#x117;" horiz-adv-x="436" 
d="M59 145v278q0 71 40.5 113.5t122.5 42.5t121.5 -42.5t39.5 -113.5v-174h-254v-101q0 -45 28 -67t87 -22t122 18v-66q-50 -16 -119 -16q-188 0 -188 150zM129 308h186v115q0 94 -93 94t-93 -94v-115zM224.5 651q-38.5 0 -38.5 37.5t38.5 37.5t38.5 -37.5t-38.5 -37.5z" />
    <glyph glyph-name="Eogonek" unicode="&#x118;" horiz-adv-x="397" 
d="M360 609h-220v-239h192v-63h-192v-244h220v-63h-1q-48 -38 -48 -93q0 -36 37 -36h11v-47h-14q-82 0 -82 68q0 62 60 108h-254v672h291v-63z" />
    <glyph glyph-name="eogonek" unicode="&#x119;" horiz-adv-x="436" 
d="M59 145v278q0 71 40.5 113.5t122.5 42.5t121.5 -42.5t39.5 -113.5v-174h-254v-101q0 -45 28 -67t87 -22t122 18v-66q-48 -38 -48 -93q0 -36 37 -36h11v-47h-14q-82 0 -82 68q0 52 47 97q-33 -5 -70 -5q-188 0 -188 150zM129 308h186v115q0 94 -93 94t-93 -94v-115z" />
    <glyph glyph-name="Ecaron" unicode="&#x11a;" horiz-adv-x="397" 
d="M360 609h-220v-239h192v-63h-192v-244h220v-63h-291v672h291v-63zM186 713l-50 107h44l36 -63l36 63h44l-51 -107h-59z" />
    <glyph glyph-name="ecaron" unicode="&#x11b;" horiz-adv-x="436" 
d="M59 145v278q0 71 40.5 113.5t122.5 42.5t121.5 -42.5t39.5 -113.5v-174h-254v-101q0 -45 28 -67t87 -22t122 18v-66q-50 -16 -119 -16q-188 0 -188 150zM129 308h186v115q0 94 -93 94t-93 -94v-115zM195 613l-50 107h44l36 -63l36 63h44l-51 -107h-59z" />
    <glyph glyph-name="Gbreve" unicode="&#x11e;" horiz-adv-x="448" 
d="M229 713q-50 0 -79 30t-31 77h50q1 -28 17 -44.5t43 -16.5t43 16.5t17 44.5h50q-2 -47 -31 -77t-79 -30zM59 529q0 69 45.5 108.5t140.5 39.5q64 0 121 -17v-68q-59 19 -121 19t-88.5 -21.5t-26.5 -64.5v-385q0 -81 96 -81q63 0 90 21v250h71v-295q-71 -40 -155 -40
q-173 0 -173 142v392z" />
    <glyph glyph-name="gbreve" unicode="&#x11f;" horiz-adv-x="447" 
d="M426 543h-34q-26 0 -45 -13q31 -37 31 -97v-80q0 -68 -41 -106.5t-124 -39.5q-57 0 -57 -53q0 -24 15 -35t50 -11h59q137 0 137 -116v-13q0 -128 -181 -128h-41q-101 0 -156 31v68q66 -37 156 -37h36q118 0 118 66v10q0 29 -14.5 43.5t-58.5 14.5h-60q-60 0 -92 22
t-32 64v16q0 26 14.5 43t36.5 23q-99 28 -99 138v80q0 68 41.5 107t118.5 39t116 -27q20 60 91 60h15v-69zM307 353v80q0 43 -22.5 64t-73.5 21t-73.5 -21t-22.5 -64v-80q0 -43 22.5 -64t73.5 -21t73.5 21t22.5 64zM213 613q-50 0 -79 30t-31 77h50q1 -28 17 -44.5t43 -16.5
t43 16.5t17 44.5h50q-2 -47 -31 -77t-79 -30z" />
    <glyph glyph-name="uni0122" unicode="&#x122;" horiz-adv-x="448" 
d="M243 -61q27 0 27 -25.5t-47 -96.5h-35l27 122h28zM59 529q0 69 45.5 108.5t140.5 39.5q64 0 121 -17v-68q-59 19 -121 19t-88.5 -21.5t-26.5 -64.5v-385q0 -81 96 -81q63 0 90 21v250h71v-295q-71 -40 -155 -40q-173 0 -173 142v392z" />
    <glyph glyph-name="uni0123" unicode="&#x123;" horiz-adv-x="447" 
d="M426 543h-34q-26 0 -45 -13q31 -37 31 -97v-80q0 -68 -41 -106.5t-124 -39.5q-57 0 -57 -53q0 -24 15 -35t50 -11h59q137 0 137 -116v-13q0 -128 -181 -128h-41q-101 0 -156 31v68q66 -37 156 -37h36q118 0 118 66v10q0 29 -14.5 43.5t-58.5 14.5h-60q-60 0 -92 22
t-32 64v16q0 26 14.5 43t36.5 23q-99 28 -99 138v80q0 68 41.5 107t118.5 39t116 -27q20 60 91 60h15v-69zM307 353v80q0 43 -22.5 64t-73.5 21t-73.5 -21t-22.5 -64v-80q0 -43 22.5 -64t73.5 -21t73.5 21t22.5 64zM209 613q-27 0 -27 25.5t47 96.5h35l-27 -122h-28z" />
    <glyph glyph-name="Imacron" unicode="&#x12a;" 
d="M-5 790h222v-47h-222v47zM69 672h71v-672h-71v672z" />
    <glyph glyph-name="imacron" unicode="&#x12b;" 
d="M-7 690h222v-47h-222v47zM69 565h71v-565h-71v565z" />
    <glyph glyph-name="Iogonek" unicode="&#x12e;" 
d="M140 672v-672q-48 -38 -48 -93q0 -36 37 -36h11v-47h-14q-82 0 -82 68q0 62 60 108h-35v672h71z" />
    <glyph glyph-name="iogonek" unicode="&#x12f;" 
d="M69 0v565h71v-565q-48 -38 -48 -93q0 -36 37 -36h11v-47h-14q-82 0 -82 68q0 62 60 108h-35zM148 679q0 -46 -43.5 -46t-43.5 46t43.5 46t43.5 -46z" />
    <glyph glyph-name="Idotaccent" unicode="&#x130;" 
d="M64 788.5q0 37.5 38.5 37.5t38.5 -37.5t-38.5 -37.5t-38.5 37.5zM69 672h71v-672h-71v672z" />
    <glyph glyph-name="dotlessi" unicode="&#x131;" 
d="M69 565h71v-565h-71v565z" />
    <glyph glyph-name="uni0136" unicode="&#x136;" horiz-adv-x="433" 
d="M235 -61q27 0 27 -25.5t-47 -96.5h-35l27 122h28zM69 672h71v-672h-71v672zM331 672h77l-141 -335l149 -337h-79l-146 335z" />
    <glyph glyph-name="uni0137" unicode="&#x137;" horiz-adv-x="402" 
d="M215 -61q27 0 27 -25.5t-47 -96.5h-34l26 122h28zM69 720h70v-720h-70v720zM301 569h75l-125 -274l135 -295h-79l-132 295z" />
    <glyph glyph-name="Lacute" unicode="&#x139;" horiz-adv-x="349" 
d="M69 672h71v-610h204v-62h-275v672zM117 820h67l-60 -107h-46z" />
    <glyph glyph-name="lacute" unicode="&#x13a;" 
d="M69 720h71v-720h-71v720zM118 870h67l-60 -107h-46z" />
    <glyph glyph-name="uni013B" unicode="&#x13b;" horiz-adv-x="349" 
d="M207 -61q28 0 28 -25.5t-47 -96.5h-35l27 122h27zM69 672h71v-610h204v-62h-275v672z" />
    <glyph glyph-name="uni013C" unicode="&#x13c;" 
d="M107 -61q28 0 28 -25.5t-47 -96.5h-35l27 122h27zM69 720h71v-720h-71v720z" />
    <glyph glyph-name="Lcaron" unicode="&#x13d;" horiz-adv-x="349" 
d="M140 62h204v-62h-275v672h71v-610zM74 713l-50 107h44l36 -63l36 63h44l-51 -107h-59z" />
    <glyph glyph-name="lcaron" unicode="&#x13e;" 
d="M235 719q27 0 27 -27.5t-47 -94.5h-34l26 122h28zM69 720h71v-720h-71v720z" />
    <glyph glyph-name="Lslash" unicode="&#x141;" horiz-adv-x="350" 
d="M142 62h204v-62h-275v279l-55 -29v57l55 28v337h71v-300l97 50v-56l-97 -50v-254z" />
    <glyph glyph-name="lslash" unicode="&#x142;" 
d="M140 0h-71v438l-55 -31v56l55 31v226h71v-186l56 32v-57l-56 -31v-478z" />
    <glyph glyph-name="Nacute" unicode="&#x143;" horiz-adv-x="500" 
d="M367 114l-7 221v337h71v-672h-82l-138 348q-8 21 -79 209l6 -220v-337h-69v672h82q159 -404 216 -558zM266 820h67l-60 -107h-46z" />
    <glyph glyph-name="nacute" unicode="&#x144;" horiz-adv-x="451" 
d="M137 543q67 28 122.5 28t91.5 -34.5t36 -97.5v-439h-71v432q0 73 -74 73q-47 0 -102 -26v-479h-71v569h68v-26zM242 720h67l-60 -107h-46z" />
    <glyph glyph-name="uni0145" unicode="&#x145;" horiz-adv-x="500" 
d="M242 -61q27 0 27 -25.5t-47 -96.5h-35l27 122h28zM367 114l-7 221v337h71v-672h-82l-138 348q-8 21 -79 209l6 -220v-337h-69v672h82q159 -404 216 -558z" />
    <glyph glyph-name="uni0146" unicode="&#x146;" horiz-adv-x="451" 
d="M223 -61q27 0 27 -25.5t-47 -96.5h-34l26 122h28zM137 543q67 28 122.5 28t91.5 -34.5t36 -97.5v-439h-71v432q0 73 -74 73q-47 0 -102 -26v-479h-71v569h68v-26z" />
    <glyph glyph-name="Ncaron" unicode="&#x147;" horiz-adv-x="500" 
d="M367 114l-7 221v337h71v-672h-82l-138 348q-8 21 -79 209l6 -220v-337h-69v672h82q159 -404 216 -558zM221 713l-50 107h44l36 -63l36 63h44l-51 -107h-59z" />
    <glyph glyph-name="ncaron" unicode="&#x148;" horiz-adv-x="451" 
d="M137 569v-26q67 28 122.5 28t91.5 -34.5t36 -97.5v-439h-71v432q0 73 -74 73q-47 0 -102 -26v-479h-71v569h68zM193 613l-50 107h44l36 -63l36 63h44l-51 -107h-59z" />
    <glyph glyph-name="Omacron" unicode="&#x14c;" horiz-adv-x="457" 
d="M327 522q0 95 -98.5 95t-98.5 -95v-372q0 -96 98.5 -96t98.5 96v372zM59 523q0 71 43 115t126.5 44t126.5 -44t43 -115v-375q0 -71 -43 -114.5t-127 -43.5t-126.5 43.5t-42.5 114.5v375zM118 790h222v-47h-222v47z" />
    <glyph glyph-name="omacron" unicode="&#x14d;" horiz-adv-x="442" 
d="M313 423q0 93 -92 93t-92 -93v-277q0 -94 92 -94t92 94v277zM59 424q0 71 40 113t122 42t122 -42t40 -113v-279q0 -71 -40 -113t-122 -42t-122 42t-40 113v279zM109 690h222v-47h-222v47z" />
    <glyph glyph-name="Ohungarumlaut" unicode="&#x150;" horiz-adv-x="457" 
d="M327 522q0 95 -98.5 95t-98.5 -95v-372q0 -96 98.5 -96t98.5 96v372zM59 523q0 71 43 115t126.5 44t126.5 -44t43 -115v-375q0 -71 -43 -114.5t-127 -43.5t-126.5 43.5t-42.5 114.5v375zM202 820h63l-61 -107h-42zM288 820h63l-61 -107h-42z" />
    <glyph glyph-name="ohungarumlaut" unicode="&#x151;" horiz-adv-x="442" 
d="M313 423q0 93 -92 93t-92 -93v-277q0 -94 92 -94t92 94v277zM59 424q0 71 40 113t122 42t122 -42t40 -113v-279q0 -71 -40 -113t-122 -42t-122 42t-40 113v279zM201 720h63l-61 -107h-42zM287 720h63l-61 -107h-42z" />
    <glyph glyph-name="OE" unicode="&#x152;" horiz-adv-x="670" 
d="M640 609h-220v-239h192v-63h-192v-244h220v-63h-402q-80 0 -119.5 41t-39.5 112v368q0 69 41 110t120 41h400v-63zM244 63h105v547h-105q-94 0 -94 -90v-365q0 -92 94 -92z" />
    <glyph glyph-name="oe" unicode="&#x153;" horiz-adv-x="704" 
d="M67 145v279q0 71 40 113t124.5 42t125.5 -49q41 49 125.5 49t124 -42.5t39.5 -113.5v-174h-254v-101q0 -45 28 -67t87 -22t122 18v-66q-50 -16 -119 -16q-105 0 -151 46q-41 -51 -126.5 -51t-125.5 42t-40 113zM321 146v277q0 93 -92 93t-92 -93v-277q0 -94 92 -94t92 94
zM392 308h186v115q0 94 -93 94t-93 -94v-115z" />
    <glyph glyph-name="Racute" unicode="&#x154;" horiz-adv-x="457" 
d="M239 270h-99v-270h-71v672h163q80 0 121 -40.5t41 -110.5v-99q0 -108 -86 -140l107 -282h-78zM140 332h89q94 0 94 91v95q0 91 -94 91h-89v-277zM309 820l-60 -107h-46l39 107h67z" />
    <glyph glyph-name="racute" unicode="&#x155;" horiz-adv-x="283" 
d="M253 572h25v-68h-34q-36 0 -65 -19q-9 -6 -39 -27v-458h-71v569h68v-43q3 2 15.5 11t15 10.5t13 7.5t16 7.5t15.5 4.5q15 5 41 5zM191 720h67l-60 -107h-46z" />
    <glyph glyph-name="uni0156" unicode="&#x156;" horiz-adv-x="457" 
d="M239 270h-99v-270h-71v672h163q80 0 121 -40.5t41 -110.5v-99q0 -108 -86 -140l107 -282h-78zM140 332h89q94 0 94 91v95q0 91 -94 91h-89v-277zM231 -61q27 0 27 -25.5t-47 -96.5h-35l27 122h28z" />
    <glyph glyph-name="uni0157" unicode="&#x157;" horiz-adv-x="283" 
d="M107 -61q28 0 28 -25.5t-47 -96.5h-35l27 122h27zM253 572h25v-68h-34q-36 0 -65 -19q-9 -6 -39 -27v-458h-71v569h68v-43q3 2 15.5 11t15 10.5t13 7.5t16 7.5t15.5 4.5q15 5 41 5z" />
    <glyph glyph-name="Rcaron" unicode="&#x158;" horiz-adv-x="457" 
d="M239 270h-99v-270h-71v672h163q80 0 121 -40.5t41 -110.5v-99q0 -108 -86 -140l107 -282h-78zM140 332h89q94 0 94 91v95q0 91 -94 91h-89v-277zM194 713l-50 107h44l36 -63l36 63h44l-51 -107h-59z" />
    <glyph glyph-name="rcaron" unicode="&#x159;" horiz-adv-x="283" 
d="M253 572h25v-68h-34q-36 0 -65 -19q-9 -6 -39 -27v-458h-71v569h68v-43q3 2 15.5 11t15 10.5t13 7.5t16 7.5t15.5 4.5q15 5 41 5zM145 613l-50 107h44l36 -63l36 63h44l-51 -107h-59z" />
    <glyph glyph-name="Sacute" unicode="&#x15a;" horiz-adv-x="388" 
d="M28 536q0 66 44 103.5t123.5 37.5t134.5 -17v-68q-52 19 -127 19q-103 0 -103 -78v-48q0 -35 13.5 -55t45.5 -38l116 -65q81 -44 81 -133v-54q0 -69 -47 -107t-135.5 -38t-140.5 20v68q59 -22 134 -22q118 0 118 83v42q0 33 -12 52t-43 36l-115 63q-87 47 -87 140v59z
M209 820h67l-60 -107h-46z" />
    <glyph glyph-name="sacute" unicode="&#x15b;" horiz-adv-x="361" 
d="M28 435q0 70 40 104.5t131 34.5q56 0 111 -17v-66q-50 18 -110 18t-81 -17.5t-21 -58.5v-26q0 -32 12.5 -49t46.5 -32l86 -42q90 -44 90 -122v-27q0 -140 -181 -140q-68 0 -120 16v66q52 -18 115.5 -18t89 19.5t25.5 57.5v20q0 28 -13 43.5t-51 33.5l-86 41
q-84 40 -84 127v34zM203 720h67l-60 -107h-46z" />
    <glyph glyph-name="uni015E" unicode="&#x15e;" horiz-adv-x="388" 
d="M185 -61q27 0 27 -25.5t-47 -96.5h-34l26 122h28zM28 536q0 66 44 103.5t123.5 37.5t134.5 -17v-68q-52 19 -127 19q-103 0 -103 -78v-48q0 -35 13.5 -55t45.5 -38l116 -65q81 -44 81 -133v-54q0 -69 -47 -107t-135.5 -38t-140.5 20v68q59 -22 134 -22q118 0 118 83v42
q0 33 -12 52t-43 36l-115 63q-87 47 -87 140v59z" />
    <glyph glyph-name="uni015F" unicode="&#x15f;" horiz-adv-x="361" 
d="M177 -61q28 0 28 -25.5t-47 -96.5h-35l27 122h27zM28 435q0 70 40 104.5t131 34.5q56 0 111 -17v-66q-50 18 -110 18t-81 -17.5t-21 -58.5v-26q0 -32 12.5 -49t46.5 -32l86 -42q90 -44 90 -122v-27q0 -140 -181 -140q-68 0 -120 16v66q52 -18 115.5 -18t89 19.5
t25.5 57.5v20q0 28 -13 43.5t-51 33.5l-86 41q-84 40 -84 127v34z" />
    <glyph glyph-name="Scaron" unicode="&#x160;" horiz-adv-x="388" 
d="M356 194v-54q0 -69 -47 -107t-135.5 -38t-140.5 20v68q59 -22 134 -22q118 0 118 83v42q0 33 -12 52t-43 36l-115 63q-87 47 -87 140v59q0 66 44 103.5t123.5 37.5t134.5 -17v-68q-52 19 -127 19q-103 0 -103 -78v-48q0 -35 13.5 -55t45.5 -38l116 -65q81 -44 81 -133z
M169 713l-50 107h44l36 -63l36 63h44l-51 -107h-59z" />
    <glyph glyph-name="scaron" unicode="&#x161;" horiz-adv-x="361" 
d="M333 162v-27q0 -140 -181 -140q-68 0 -120 16v66q52 -18 115.5 -18t89 19.5t25.5 57.5v20q0 28 -13 43.5t-51 33.5l-86 41q-84 40 -84 127v34q0 70 40 104.5t131 34.5q56 0 111 -17v-66q-50 18 -110 18t-81 -17.5t-21 -58.5v-26q0 -32 12.5 -49t46.5 -32l86 -42
q90 -44 90 -122zM153 613l-50 107h44l36 -63l36 63h44l-51 -107h-59z" />
    <glyph glyph-name="uni0162" unicode="&#x162;" horiz-adv-x="350" 
d="M341 672v-63h-130v-609h-72v609h-130v63h332zM179 -61q28 0 28 -25.5t-47 -96.5h-35l27 122h27z" />
    <glyph glyph-name="uni0163" unicode="&#x163;" horiz-adv-x="291" 
d="M177 -61q28 0 28 -25.5t-47 -96.5h-35l27 122h27zM139 672v-103h127v-63h-127v-380q0 -35 17 -50.5t52 -15.5t68 11v-65q-40 -10 -75 -10q-134 0 -134 127v383h-62v63h65l20 103h49z" />
    <glyph glyph-name="Tcaron" unicode="&#x164;" horiz-adv-x="350" 
d="M341 672v-63h-130v-609h-72v609h-130v63h332zM144 713l-50 107h44l36 -63l36 63h44l-51 -107h-59z" />
    <glyph glyph-name="tcaron" unicode="&#x165;" horiz-adv-x="291" 
d="M139 672v-103h127v-63h-127v-380q0 -35 17 -50.5t52 -15.5t68 11v-65q-40 -10 -75 -10q-134 0 -134 127v383h-62v63h65l20 103h49zM283 777q27 0 27 -25q0 -36 -53 -133h-31l31 158h26z" />
    <glyph glyph-name="Umacron" unicode="&#x16a;" horiz-adv-x="466" 
d="M122 790h222v-47h-222v47zM331 672h71v-524q0 -71 -42.5 -114.5t-126.5 -43.5t-126.5 43.5t-42.5 114.5v524h71v-522q0 -96 98 -96t98 96v522z" />
    <glyph glyph-name="umacron" unicode="&#x16b;" horiz-adv-x="452" 
d="M111 690h222v-47h-222v47zM216 61q50 0 96 31v477h71v-569h-68v27q-58 -29 -118.5 -29t-96.5 36.5t-36 105.5v429h71v-423q0 -85 81 -85z" />
    <glyph glyph-name="Uring" unicode="&#x16e;" horiz-adv-x="466" 
d="M331 672h71v-524q0 -71 -42.5 -114.5t-126.5 -43.5t-126.5 43.5t-42.5 114.5v524h71v-522q0 -96 98 -96t98 96v522zM270 767q0 16 -9.5 25.5t-25.5 9.5t-25.5 -9.5t-9.5 -25.5q0 -36 35 -36t35 36zM161 767q0 31 20 51.5t54.5 20.5t54 -20.5t19.5 -51.5t-19.5 -52
t-54 -21t-54.5 21t-20 52z" />
    <glyph glyph-name="uring" unicode="&#x16f;" horiz-adv-x="452" 
d="M216 61q50 0 96 31v477h71v-569h-68v27q-58 -29 -118.5 -29t-96.5 36.5t-36 105.5v429h71v-423q0 -85 81 -85zM260 667q0 16 -9.5 25.5t-25.5 9.5t-25.5 -9.5t-9.5 -25.5q0 -36 35 -36t35 36zM151 667q0 31 20 51.5t54.5 20.5t54 -20.5t19.5 -51.5t-19.5 -52t-54 -21
t-54.5 21t-20 52z" />
    <glyph glyph-name="Uhungarumlaut" unicode="&#x170;" horiz-adv-x="466" 
d="M199 820h63l-61 -107h-42zM285 820h63l-61 -107h-42zM331 672h71v-524q0 -71 -42.5 -114.5t-126.5 -43.5t-126.5 43.5t-42.5 114.5v524h71v-522q0 -96 98 -96t98 96v522z" />
    <glyph glyph-name="uhungarumlaut" unicode="&#x171;" horiz-adv-x="452" 
d="M195 720h63l-61 -107h-42zM281 720h63l-61 -107h-42zM216 61q50 0 96 31v477h71v-569h-68v27q-58 -29 -118.5 -29t-96.5 36.5t-36 105.5v429h71v-423q0 -85 81 -85z" />
    <glyph glyph-name="Uogonek" unicode="&#x172;" horiz-adv-x="466" 
d="M331 672h71v-524q0 -103 -82 -141q-44 -39 -44 -90q0 -36 37 -36h11v-47h-14q-82 0 -82 68q0 48 40 90q-22 -2 -35 -2q-84 0 -126.5 43.5t-42.5 114.5v524h71v-522q0 -96 98 -96t98 96v522z" />
    <glyph glyph-name="uogonek" unicode="&#x173;" horiz-adv-x="452" 
d="M216 61q50 0 96 31v477h71v-569h-1q-48 -38 -48 -93q0 -36 37 -36h11v-47h-14q-82 0 -82 68q0 62 60 108h-31v27q-58 -29 -118.5 -29t-96.5 36.5t-36 105.5v429h71v-423q0 -85 81 -85z" />
    <glyph glyph-name="Ydieresis" unicode="&#x178;" horiz-adv-x="409" 
d="M240 0h-71v227l-165 445h73l68 -183q4 -11 61 -179q37 115 127 362h72l-165 -445v-227zM267 728q-38 0 -38 37.5t38 37.5t38 -37.5t-38 -37.5zM94 765.5q0 37.5 38.5 37.5t38.5 -37.5t-38.5 -37.5t-38.5 37.5z" />
    <glyph glyph-name="Zacute" unicode="&#x179;" horiz-adv-x="382" 
d="M33 672h321v-61l-251 -549h247v-62h-322v62l250 547h-245v63zM205 820h67l-60 -107h-46z" />
    <glyph glyph-name="zacute" unicode="&#x17a;" horiz-adv-x="321" 
d="M25 569h275v-55l-208 -452h208v-62h-280v55l205 452h-200v62zM176 720h67l-60 -107h-46z" />
    <glyph glyph-name="Zdotaccent" unicode="&#x17b;" horiz-adv-x="382" 
d="M151 788.5q0 37.5 38.5 37.5t38.5 -37.5t-38.5 -37.5t-38.5 37.5zM33 672h321v-61l-251 -549h247v-62h-322v62l250 547h-245v63z" />
    <glyph glyph-name="zdotaccent" unicode="&#x17c;" horiz-adv-x="321" 
d="M131 688.5q0 37.5 38.5 37.5t38.5 -37.5t-38.5 -37.5t-38.5 37.5zM25 569h275v-55l-208 -452h208v-62h-280v55l205 452h-200v62z" />
    <glyph glyph-name="Zcaron" unicode="&#x17d;" horiz-adv-x="382" 
d="M354 672v-61l-251 -549h247v-62h-322v62l250 547h-245v63h321zM165 713l-50 107h44l36 -63l36 63h44l-51 -107h-59z" />
    <glyph glyph-name="zcaron" unicode="&#x17e;" horiz-adv-x="321" 
d="M300 569v-55l-208 -452h208v-62h-280v55l205 452h-200v62h275zM138 613l-50 107h44l36 -63l36 63h44l-51 -107h-59z" />
    <glyph glyph-name="florin" unicode="&#x192;" horiz-adv-x="306" 
d="M-22 58l22 -1q33 0 49 17t23 57l48 294h-79v60h89l17 101q11 69 42 102.5t96 33.5q9 0 31 -2v-60q-8 1 -33.5 1t-41.5 -17t-23 -58l-17 -101h73v-60h-83l-48 -293q-10 -68 -41 -102t-97 -34q-9 0 -27 2v60z" />
    <glyph glyph-name="uni0218" unicode="&#x218;" horiz-adv-x="388" 
d="M188 -61q27 0 27 -25.5t-47 -96.5h-35l27 122h28zM28 536q0 66 44 103.5t123.5 37.5t134.5 -17v-68q-52 19 -127 19q-103 0 -103 -78v-48q0 -35 13.5 -55t45.5 -38l116 -65q81 -44 81 -133v-54q0 -69 -47 -107t-135.5 -38t-140.5 20v68q59 -22 134 -22q118 0 118 83v42
q0 33 -12 52t-43 36l-115 63q-87 47 -87 140v59z" />
    <glyph glyph-name="uni0219" unicode="&#x219;" horiz-adv-x="361" 
d="M187 -61q27 0 27 -25.5t-47 -96.5h-35l27 122h28zM28 435q0 70 40 104.5t131 34.5q56 0 111 -17v-66q-50 18 -110 18t-81 -17.5t-21 -58.5v-26q0 -32 12.5 -49t46.5 -32l86 -42q90 -44 90 -122v-27q0 -140 -181 -140q-68 0 -120 16v66q52 -18 115.5 -18t89 19.5
t25.5 57.5v20q0 28 -13 43.5t-51 33.5l-86 41q-84 40 -84 127v34z" />
    <glyph glyph-name="uni021A" unicode="&#x21a;" horiz-adv-x="350" 
d="M341 672v-63h-130v-609h-72v609h-130v63h332zM176 -61q27 0 27 -25.5t-47 -96.5h-35l27 122h28z" />
    <glyph glyph-name="uni021B" unicode="&#x21b;" horiz-adv-x="291" 
d="M180 -61q27 0 27 -25.5t-47 -96.5h-35l27 122h28zM139 672v-103h127v-63h-127v-380q0 -35 17 -50.5t52 -15.5t68 11v-65q-40 -10 -75 -10q-134 0 -134 127v383h-62v63h65l20 103h49z" />
    <glyph glyph-name="circumflex" unicode="&#x2c6;" horiz-adv-x="350" 
d="M255 613h-44l-36 63l-36 -63h-44l50 107h59z" />
    <glyph glyph-name="caron" unicode="&#x2c7;" horiz-adv-x="350" 
d="M211 720h44l-51 -107h-59l-50 107h44l36 -63z" />
    <glyph glyph-name="uni02C9" unicode="&#x2c9;" horiz-adv-x="350" 
d="M64 690h222v-47h-222v47z" />
    <glyph glyph-name="breve" unicode="&#x2d8;" horiz-adv-x="350" 
d="M175 613q-50 0 -79 30t-31 77h50q1 -28 17 -44.5t43 -16.5t43 16.5t17 44.5h50q-2 -47 -31 -77t-79 -30z" />
    <glyph glyph-name="dotaccent" unicode="&#x2d9;" horiz-adv-x="350" 
d="M135 688.5q0 37.5 38.5 37.5t38.5 -37.5t-38.5 -37.5t-38.5 37.5z" />
    <glyph glyph-name="ring" unicode="&#x2da;" horiz-adv-x="350" 
d="M210 667q0 16 -9.5 25.5t-25.5 9.5t-25.5 -9.5t-9.5 -25.5q0 -36 35 -36t35 36zM101 667q0 31 20 51.5t54.5 20.5t54 -20.5t19.5 -51.5t-19.5 -52t-54 -21t-54.5 21t-20 52z" />
    <glyph glyph-name="ogonek" unicode="&#x2db;" horiz-adv-x="350" 
d="M175 -93q0 -36 37 -36h11v-47h-14q-82 0 -82 68q0 62 60 108h36q-48 -38 -48 -93z" />
    <glyph glyph-name="tilde" unicode="&#x2dc;" horiz-adv-x="350" 
d="M248 712h50v-14q0 -35 -17 -54.5t-45.5 -19.5t-62.5 20t-49 20q-23 0 -23 -31v-11h-50v13q0 34 17 54.5t47 20.5t65 -20.5t46 -20.5q22 0 22 32v11z" />
    <glyph glyph-name="hungarumlaut" unicode="&#x2dd;" horiz-adv-x="350" 
d="M120 720h63l-61 -107h-42zM206 720h63l-61 -107h-42z" />
    <glyph glyph-name="pi" unicode="&#x3c0;" horiz-adv-x="451" 
d="M455 569v-63h-68v-506h-71v506h-176v-506h-71l-1 569h387z" />
    <glyph glyph-name="uni0901" unicode="&#x901;" horiz-adv-x="0" 
d="M-7 837h62v-2q0 -65 -39.5 -93t-120.5 -28t-120.5 28t-39.5 93v2h62q0 -37 22 -51.5t76 -14.5t76 14.5t22 51.5zM-145 874q0 41 40.5 41t40.5 -41t-40.5 -41t-40.5 41z" />
    <glyph glyph-name="uni0902" unicode="&#x902;" horiz-adv-x="0" 
d="M-147 769q0 42 42 42t42 -42t-42 -42t-42 42z" />
    <glyph glyph-name="uni0903" unicode="&#x903;" horiz-adv-x="201" 
d="M43 42q0 42 42 42t42 -42t-41 -42q-43 0 -43 42zM43 385q0 42 42 42t42 -42t-42 -42t-42 42z" />
    <glyph glyph-name="uni0905" unicode="&#x905;" horiz-adv-x="562" 
d="M425 650h161v-56h-96v-594h-65v213h-117v-43q0 -64 -40.5 -100t-108.5 -36t-123 15v61q59 -16 112 -16q95 0 95 77v72q0 37 -17 57t-66 20h-60v61h60q49 0 66 19.5t17 56.5v61q0 77 -95 77q-49 0 -101 -18v63q47 15 102 15q79 0 119 -36t40 -100v-62q0 -86 -52 -106
q44 -19 51 -81h118v380z" />
    <glyph glyph-name="uni0906" unicode="&#x906;" horiz-adv-x="794" 
d="M819 650v-56h-96v-594h-65v594h-144v-594h-65v213h-117v-43q0 -64 -40.5 -100t-108.5 -36t-123 15v61q59 -16 112 -16q95 0 95 77v72q0 37 -17 57t-66 20h-60v61h60q49 0 66 19.5t17 56.5v61q0 77 -95 77q-49 0 -101 -18v63q47 15 102 15q79 0 119 -36t40 -100v-62
q0 -86 -52 -106q44 -19 51 -81h118v380h370z" />
    <glyph glyph-name="uni0907" unicode="&#x907;" horiz-adv-x="398" 
d="M113 171v-78q40 -7 86 -7q94 0 94 66v37q0 33 -18 49.5t-65 16.5h-23q-146 0 -146 121v7q0 121 146 121h78v90h-289v56h446v-56h-92v-148h-143q-46 0 -63.5 -16t-17.5 -48v-5q0 -32 18 -48t63 -16h23q148 0 148 -123v-39q0 -63 -37 -94t-117 -31q-51 0 -91 9v-100h-62
v236h62z" />
    <glyph glyph-name="uni0908" unicode="&#x908;" horiz-adv-x="398" 
d="M330 446h-143q-46 0 -63.5 -16t-17.5 -48v-5q0 -32 18 -48t63 -16h23q148 0 148 -123v-39q0 -63 -37 -94t-117 -31q-51 0 -91 9v-100h-62v236h62v-78q40 -7 86 -7q94 0 94 66v37q0 33 -18 49.5t-65 16.5h-23q-146 0 -146 121v7q0 121 146 121h78v90h-289v56h284
q-34 64 -34 120t36.5 84.5t92.5 28.5q6 0 50 -4v-58q-17 3 -37 3q-77 0 -77 -67q0 -41 34 -107h97v-56h-92v-148z" />
    <glyph glyph-name="uni0909" unicode="&#x909;" horiz-adv-x="400" 
d="M267 525q0 39 -13 69h-278v56h448v-56h-103q11 -20 11 -68v-85q0 -88 -51 -105q51 -19 51 -105v-99q0 -135 -177 -135q-54 0 -107 15v63q59 -19 107 -19q112 0 112 77v96q0 36 -16.5 56.5t-65.5 21.5h-61v60h63q49 1 64.5 20t15.5 55v83z" />
    <glyph glyph-name="uni090A" unicode="&#x90a;" horiz-adv-x="566" 
d="M267 525q0 39 -13 69h-278v56h614v-56h-269q11 -20 11 -68v-85q0 -70 -34 -96q54 9 89 9q71 0 107.5 -34.5t36.5 -96.5v-98q0 -60 -32.5 -93t-95.5 -33h-20v60h7q43 1 59.5 17.5t16.5 49.5v92q0 76 -84 76h-61q11 -25 11 -63v-99q0 -135 -177 -135q-54 0 -107 15v63
q59 -19 107 -19q112 0 112 77v96q0 36 -16.5 56.5t-65.5 21.5h-61v60h63q49 1 64.5 20t15.5 55v83z" />
    <glyph glyph-name="uni090B" unicode="&#x90b;" horiz-adv-x="678" 
d="M702 594h-325v-165q50 -9 94 -9q94 0 94 75v9h63v-277h-42q-39 0 -57 -21t-18 -69q0 -84 90 -84q30 0 56 6v-57q-24 -5 -60 -5q-66 0 -108 34.5t-42 104.5q0 136 120 141v113q-29 -31 -86 -31t-104 9v-368h-63v94q0 126 5 166h-3q-12 -24 -68 -81l-126 -132h-83v4
l273 282v90q-44 14 -96 14q-109 0 -109 -84v-59h-64v61q0 69 42 106t126 37q51 0 101 -14v110h-336v56h726v-56z" />
    <glyph glyph-name="uni090C" unicode="&#x90c;" horiz-adv-x="618" 
d="M546 594v-534q-8 2 -53 2t-61.5 -17t-16.5 -58.5t19.5 -56t45 -14.5t38 1.5t21 4t10.5 2.5v-61q-45 -9 -60 -9q-66 0 -102.5 33t-36.5 100q0 132 131 134v285q-33 14 -71 14q-80 0 -80 -70v-141h-65v141q0 70 -75 70q-43 0 -59 -18.5t-16 -53.5v-193q0 -46 21.5 -71
t78.5 -25q27 0 53 4v-58q-25 -5 -54 -5q-164 0 -164 154v195q0 62 34.5 96.5t108 34.5t104.5 -46q35 46 111 46q36 0 73 -14v128h-505v56h666v-56h-96z" />
    <glyph glyph-name="uni090D" unicode="&#x90d;" horiz-adv-x="427" 
d="M227 -5q-159 0 -159 132v467h-92v56h475v-56h-85v-197q0 -58 -30 -92t-95 -34q-15 0 -23 1v61q5 -1 17 -1q38 0 52 17t14 50v195h-168v-466q0 -73 95 -73q63 0 121 20v-60q-46 -20 -122 -20zM318 846h62v-1q0 -65 -40 -93.5t-120.5 -28.5t-120 28t-39.5 94v1h62
q0 -38 22 -52t75.5 -14t76 14.5t22.5 51.5z" />
    <glyph glyph-name="uni090E" unicode="&#x90e;" horiz-adv-x="427" 
d="M365 650h86v-56h-85v-197q0 -58 -30 -92t-95 -34q-15 0 -23 1v61q5 -1 17 -1q38 0 52 17t14 50v195h-168v-466q0 -73 95 -73q63 0 121 20v-60q-46 -20 -122 -20q-159 0 -159 132v467h-92v56h327q0 42 -21.5 64.5t-76.5 22.5q-83 0 -120.5 35t-37.5 107h63q0 -43 20.5 -65
t76.5 -22q82 0 120 -35.5t38 -106.5z" />
    <glyph glyph-name="uni090F" unicode="&#x90f;" horiz-adv-x="427" 
d="M231 -5q-163 0 -163 138v461h-92v56h475v-56h-85v-197q0 -58 -30 -92t-95 -34q-15 0 -23 1v61q5 -1 17 -1q38 0 52 17t14 50v195h-168v-461q0 -39 22.5 -58.5t81 -19.5t116.5 20v-60q-48 -20 -122 -20z" />
    <glyph glyph-name="uni0910" unicode="&#x910;" horiz-adv-x="427" 
d="M451 650v-56h-85v-197q0 -58 -30 -92t-95 -34q-15 0 -23 1v61q5 -1 17 -1q38 0 52 17t14 50v195h-168v-466q0 -73 95 -73q63 0 121 20v-60q-46 -20 -122 -20q-159 0 -159 132v467h-92v56h321l-165 229h74l158 -229h87z" />
    <glyph glyph-name="uni0911" unicode="&#x911;" horiz-adv-x="795" 
d="M819 650v-56h-96v-594h-65v594h-144v-594h-65v213h-117v-43q0 -64 -40.5 -100t-108.5 -36t-123 15v61q59 -16 112 -16q95 0 95 77v72q0 37 -17 57t-66 20h-60v61h60q49 0 66 19.5t17 56.5v61q0 77 -95 77q-49 0 -101 -18v63q47 15 102 15q79 0 119 -36t40 -100v-62
q0 -86 -52 -106q44 -19 51 -81h118v380h370zM749 841v-2q0 -67 -39 -94t-120.5 -27t-121 27.5t-39.5 93.5v2h62q0 -37 22 -51.5t75.5 -14.5t76 14.5t22.5 51.5h62z" />
    <glyph glyph-name="uni0912" unicode="&#x912;" horiz-adv-x="795" 
d="M721 650h98v-56h-96v-594h-65v594h-144v-594h-65v213h-117v-43q0 -64 -40.5 -100t-108.5 -36t-123 15v61q59 -16 112 -16q95 0 95 77v72q0 37 -17 57t-66 20h-60v61h60q49 0 66 19.5t17 56.5v61q0 77 -95 77q-49 0 -101 -18v63q47 15 102 15q79 0 119 -36t40 -100v-62
q0 -86 -52 -106q44 -19 51 -81h118v380h210q0 42 -21 64.5t-76 22.5q-83 0 -120.5 35t-37.5 107h62q0 -43 20.5 -65t76.5 -22q82 0 120 -35.5t38 -106.5z" />
    <glyph glyph-name="uni0913" unicode="&#x913;" horiz-adv-x="795" 
d="M819 650v-56h-96v-594h-65v594h-144v-594h-65v213h-117v-43q0 -64 -40.5 -100t-108.5 -36t-123 15v61q59 -16 112 -16q95 0 95 77v72q0 37 -17 57t-66 20h-60v61h60q49 0 66 19.5t17 56.5v61q0 77 -95 77q-49 0 -101 -18v63q47 15 102 15q79 0 119 -36t40 -100v-62
q0 -86 -52 -106q44 -19 51 -81h118v380h205l-86 133q-26 39 -67 39q-10 0 -26 -2v57q18 2 43 2q56 0 98 -65l106 -164h97z" />
    <glyph glyph-name="uni0914" unicode="&#x914;" horiz-adv-x="795" 
d="M819 650v-56h-96v-594h-65v594h-144v-594h-65v213h-117v-43q0 -64 -40.5 -100t-108.5 -36t-123 15v61q59 -16 112 -16q95 0 95 77v72q0 37 -17 57t-66 20h-60v61h60q49 0 66 19.5t17 56.5v61q0 77 -95 77q-49 0 -101 -18v63q47 15 102 15q79 0 119 -36t40 -100v-62
q0 -86 -52 -106q44 -19 51 -81h118v380h112l-88 133q-26 39 -67 39q-12 0 -26 -2v57q16 2 42 2q52 0 98 -68l107 -161h34l-38 125q-8 25 -17.5 36t-24 11t-28.5 -2v57q16 2 29 2q69 0 92 -75l46 -154h99z" />
    <glyph glyph-name="uni0915" unicode="&#x915;" horiz-adv-x="582" 
d="M412 73l-23 1v61q6 -1 18 -1q38 0 52 17.5t14 49.5v178q0 68 -82 68q-35 0 -66 -9v-438h-64v78q-40 -10 -74 -10q-141 0 -141 125v186q0 125 141 125q18 0 30 -3v-57q-16 2 -26 2q-82 0 -82 -68v-184q0 -68 82 -68q34 0 70 9v459h-285v56h630v-56h-281v-99q28 10 70 10
q141 0 141 -125v-182q0 -57 -30 -91t-94 -34z" />
    <glyph glyph-name="uni0916" unicode="&#x916;" horiz-adv-x="731" 
d="M260 524q0 42 -13 70h-271v56h779v-56h-97v-594h-64v136q-30 -9 -78 -9q-71 0 -103.5 31.5t-32.5 93.5v124q0 63 32 94.5t103 31.5q39 0 79 -9v101h-283q11 -24 11 -70v-121q0 -145 -145 -145q-34 0 -67 7v-88q0 -121 163 -121q76 0 138 18v-62q-62 -16 -153 -16
t-151.5 43.5t-60.5 136.5v266h64v-119q36 -6 65 -6q85 0 85 86v121zM594 435q-36 9 -78 9t-58 -17t-16 -51v-124q0 -34 16 -51t61.5 -17t74.5 9v242z" />
    <glyph glyph-name="uni0917" unicode="&#x917;" horiz-adv-x="480" 
d="M29 255l28 -2q70 0 70 69v272h-151v56h528v-56h-96v-594h-65v594h-151v-275q0 -58 -32 -92.5t-95 -34.5q-27 0 -36 3v60z" />
    <glyph glyph-name="uni0918" unicode="&#x918;" horiz-adv-x="492" 
d="M355 594h-213q-8 -25 -8 -70v-69q0 -33 17 -50t63 -17h35v-61h-37q-47 0 -65.5 -17t-18.5 -50v-46q0 -50 30.5 -71t91.5 -21t105 14v458zM69 524q0 44 7 70h-100v56h540v-56h-96v-594h-65v77q-56 -14 -111 -14q-84 0 -132.5 36.5t-48.5 110.5v51q0 79 59 96
q-53 21 -53 97v70z" />
    <glyph glyph-name="uni0919" unicode="&#x919;" horiz-adv-x="448" 
d="M367 354.5q0 41.5 41.5 41.5t41.5 -41.5t-41.5 -41.5t-41.5 41.5zM364 168v-44q0 -130 -171 -130q-71 0 -138 15v60q62 -15 138 -15q106 0 106 70v43q0 33 -18 49.5t-65 16.5h-19q-146 0 -146 121v30q0 121 146 121h73v89h-294v56h496v-56h-137v-148h-138
q-46 0 -63.5 -16t-17.5 -48v-26q0 -32 18 -48.5t63 -16.5h19q148 0 148 -123z" />
    <glyph glyph-name="uni091A" unicode="&#x91a;" horiz-adv-x="462" 
d="M89 338q0 44 9 85h-86v59h259v-57h-107q-10 -29 -10 -87v-143q0 -38 20.5 -56t67.5 -18t83 13v460h-349v56h510v-56h-96v-594h-65v75q-39 -13 -89 -13q-147 0 -147 132v144z" />
    <glyph glyph-name="uni091B" unicode="&#x91b;" horiz-adv-x="507" 
d="M371 419.5q-16 17.5 -51.5 17.5t-63.5 -8v57q27 9 62 9v99h-178q-11 -25 -11 -70v-132q0 -33 17 -49.5t64 -17.5h53v-59h-52q-48 0 -67.5 -17t-19.5 -51v-31q0 -51 26.5 -69t105 -18t105 19t26.5 71v195q0 37 -16 54.5zM64 524q0 37 11 70h-99v56h555v-56h-153v-108
q73 -19 73 -116v-201q0 -81 -44 -114.5t-150.5 -33.5t-152 33t-45.5 112v34q0 76 60 95q-55 20 -55 96v133z" />
    <glyph glyph-name="uni091C" unicode="&#x91c;" horiz-adv-x="551" 
d="M216 354q0 42 -9 69h-110v59h317v112h-438v56h599v-56h-96v-594h-65v425h-141q8 -24 8 -69v-177q0 -66 -40 -101.5t-115 -35.5q-48 0 -93 12v60q48 -12 92 -12q91 0 91 78v174z" />
    <glyph glyph-name="uni091D" unicode="&#x91d;" horiz-adv-x="601" 
d="M464 313v281h-126v-148h-142q-46 0 -64 -15.5t-18 -47.5v-6q0 -31 17.5 -47t61.5 -17h271zM200 255h-5q-146 0 -146 121v8q0 121 147 121h77v89h-297v56h649v-56h-96v-594h-65v258h-146q28 -21 28 -70v-45q0 -63 -35.5 -93.5t-111.5 -30.5q-49 0 -85 9v-88h-63v217h63
v-70q36 -10 79 -10q89 0 89 69v42q0 33 -18.5 50t-63.5 17z" />
    <glyph glyph-name="uni091E" unicode="&#x91e;" horiz-adv-x="574" 
d="M242 187v185q0 38 -19.5 58t-67 20t-91.5 -16v60q39 16 91 16q152 0 152 -135v-68h130v287h-461v56h622v-56h-96v-594h-65v250h-130v-65q0 -136 -153 -136q-49 0 -97 16v60q56 -16 96 -16q89 0 89 78z" />
    <glyph glyph-name="uni091F" unicode="&#x91f;" horiz-adv-x="392" 
d="M120 370v-230q0 -84 107 -84q57 0 116 16v-60q-52 -16 -125 -16t-118 37.5t-45 105.5v233q0 129 149 129h57v93h-285v56h440v-56h-90v-153h-118q-48 0 -68 -18t-20 -53z" />
    <glyph glyph-name="uni0920" unicode="&#x920;" horiz-adv-x="406" 
d="M287 125v253q0 34 -18.5 53t-65.5 19t-65.5 -19t-18.5 -53v-253q0 -72 84 -72t84 72zM351 379v-253q0 -62 -37 -96.5t-111 -34.5t-111 34.5t-37 96.5v253q0 114 115 127v88h-194v56h454v-56h-195v-88q116 -13 116 -127z" />
    <glyph glyph-name="uni0921" unicode="&#x921;" horiz-adv-x="412" 
d="M364 160v-36q0 -130 -171 -130q-74 0 -136 14v63q60 -17 136 -17q106 0 106 71v34q0 33 -18 49.5t-65 16.5h-19q-146 0 -146 121v38q0 121 146 121h73v89h-294v56h460v-56h-101v-148h-138q-46 0 -63.5 -16t-17.5 -48v-34q0 -32 18 -48.5t63 -16.5h19q148 0 148 -123z" />
    <glyph glyph-name="uni0922" unicode="&#x922;" horiz-adv-x="407" 
d="M236 242q-15 0 -41 -7v59q18 7 46 7q55 0 88 -31.5t33 -92.5v-47q0 -135 -153.5 -135t-153.5 136v246q0 126 147 126h63v91h-289v56h455v-56h-102v-151h-127q-47 0 -65 -17t-18 -50v-243q0 -37 20 -57.5t70 -20.5t69.5 20t19.5 57v44q0 66 -62 66z" />
    <glyph glyph-name="uni0923" unicode="&#x923;" horiz-adv-x="611" 
d="M275 594h-158v-344q0 -35 16.5 -53.5t62.5 -18.5t62.5 18.5t16.5 53.5v344zM340 249q0 -130 -144 -130t-144 130v345h-76v56h659v-56h-96v-594h-64v594h-135v-345z" />
    <glyph glyph-name="uni0924" unicode="&#x924;" horiz-adv-x="435" 
d="M52 370q0 62 39 97.5t113 35.5q46 0 94 -13v104h-322v56h483v-56h-96v-594h-65v431q-60 12 -90 12q-91 0 -91 -74v-243q0 -34 19 -50.5t67 -15.5v-61h-21q-130 0 -130 124v247z" />
    <glyph glyph-name="uni0925" unicode="&#x925;" horiz-adv-x="548" 
d="M412 650h160v-56h-96v-594h-64v102q-60 -16 -145 -16q-112 0 -166 46t-54 143v102h89q64 0 91.5 19t27.5 74v52q0 40 -11 56.5t-50.5 16.5t-52 -17.5t-12.5 -55.5l4 -48h-63q-5 27 -5 48q0 66 30 99.5t97.5 33.5t95 -33t27.5 -100v-56q0 -79 -42.5 -113.5t-132.5 -34.5
h-28v-42q0 -71 35 -100.5t116.5 -29.5t148.5 16v488z" />
    <glyph glyph-name="uni0926" unicode="&#x926;" horiz-adv-x="404" 
d="M43 206v170q0 126 149 126h74v92h-290v56h452v-56h-97v-152h-139q-47 0 -65.5 -17t-18.5 -50v-168q0 -74 94 -74q40 0 82 9v97h62v-247h-62v91q-39 -9 -87 -9q-73 0 -113.5 34.5t-40.5 97.5z" />
    <glyph glyph-name="uni0927" unicode="&#x927;" horiz-adv-x="492" 
d="M69 524q0 36 9 70h-102v56h266v-56h-98q-10 -25 -10 -70v-65q0 -33 17 -50t63 -17h35v-61h-37q-47 0 -65.5 -17t-18.5 -50v-52q0 -49 30 -69.5t90 -20.5t107 14v514h162v-56h-97v-594h-65v76q-45 -13 -120 -13t-123.5 36t-48.5 109v57q0 79 59 96q-53 21 -53 97v66z" />
    <glyph glyph-name="uni0928" unicode="&#x928;" horiz-adv-x="572" 
d="M178 420q-38 0 -53.5 -15.5t-15.5 -47.5v-173q0 -32 15.5 -48t54 -16t54 16t15.5 48v164q0 48 -12 72h-58zM435 420h-136q4 -4 8 -27.5t4 -43.5v-166q0 -122 -132.5 -122t-132.5 122v175q0 121 132 121h257v115h-459v56h621v-56h-97v-594h-65v420z" />
    <glyph glyph-name="uni0928093C" unicode="&#x929;" horiz-adv-x="580" 
d="M-14 -13q0 42 42 42t42 -42t-42 -42t-42 42zM186 420q-39 0 -54 -15.5t-15 -47.5v-173q0 -32 15 -48t54 -16t54 15.5t15 48.5v164q0 46 -13 72h-56zM443 420h-137q2 -7 4 -13t4 -14q4 -16 4 -44v-166q0 -122 -132.5 -122t-132.5 122v175q0 121 133 121h257v115h-467v56
h628v-56h-96v-594h-65v420z" />
    <glyph glyph-name="uni092A" unicode="&#x92a;" horiz-adv-x="425" 
d="M288 594h-170v-337q0 -70 89 -70q46 0 81 13v394zM288 0v141q-36 -14 -86 -14q-74 0 -111.5 33.5t-37.5 95.5v338h-77v56h473v-56h-96v-594h-65z" />
    <glyph glyph-name="uni092B" unicode="&#x92b;" horiz-adv-x="601" 
d="M277 594h-159v-346q0 -71 89 -71q28 0 70 9v408zM491 373q0 67 -73 67q-38 0 -78 -11v-429h-63v128q-47 -10 -75 -10q-74 0 -111.5 33.5t-37.5 95.5v347h-77v56h650v-56h-286v-105q35 11 76 11q69 0 104.5 -33.5t35.5 -92.5v-184q0 -59 -32.5 -92t-97.5 -33l-15 1h-3v60
q47 -1 65 15.5t18 50.5v181z" />
    <glyph glyph-name="uni092C" unicode="&#x92c;" horiz-adv-x="420" 
d="M-24 650h468v-56h-96v-594h-61v82q-33 -12 -85 -12q-156 0 -156 130v175q0 130 154 130q51 0 87 -13v102h-311v56zM204 448q-83 0 -93 -57l176 -140v184q-36 13 -83 13zM109 202q0 -75 95 -75q50 0 83 12v55l-178 142v-134z" />
    <glyph glyph-name="uni092D" unicode="&#x92d;" horiz-adv-x="587" 
d="M257 396v131q0 34 -14.5 50.5t-55.5 16.5t-55.5 -16.5t-14.5 -50.5l4 -51h-65q-4 29 -4 52q0 127 135 127t135 -127v-132h128v254h161v-56h-96v-594h-65v340h-130v-158q0 -61 -32.5 -91t-103.5 -30t-104 30t-33 91v95q0 60 32.5 89.5t104.5 29.5h73zM257 183v157h-73
q-44 0 -58.5 -15t-14.5 -49v-93q0 -33 14.5 -48.5t58.5 -15.5t58.5 15t14.5 49z" />
    <glyph glyph-name="uni092E" unicode="&#x92e;" horiz-adv-x="570" 
d="M434 0v374h-128v-192q0 -121 -136 -121q-71 0 -104 30t-33 91v129q0 60 32.5 89.5t104.5 29.5h73v164h-267v56h618v-56h-96v-594h-64zM306 430h128v164h-128v-164zM243 183v191h-73q-44 0 -58.5 -15t-14.5 -49v-127q0 -33 14.5 -48.5t58.5 -15.5t58.5 15.5t14.5 48.5z
" />
    <glyph glyph-name="uni092F" unicode="&#x92f;" horiz-adv-x="499" 
d="M183 524q0 44 -7 70h-200v56h547v-56h-96v-594h-65v97q-48 -12 -111 -12q-197 0 -197 172v127h21q63 0 85.5 14.5t22.5 58.5v67zM247 524v-73q0 -117 -129 -119v-71q0 -59 32.5 -87t93.5 -28t118 11v437h-122q7 -24 7 -70z" />
    <glyph glyph-name="uni0930" unicode="&#x930;" horiz-adv-x="416" 
d="M291 524q0 40 -8 70h-307v56h464v-56h-91q7 -24 7 -70v-137q0 -130 -144 -130q-45 0 -87 14v-128q0 -88 111 -88q61 0 125 18v-61q-61 -17 -135.5 -17t-120 37.5t-45.5 109.5v308h65v-120q46 -14 83 -14q83 0 83 71v137z" />
    <glyph glyph-name="uni0930093C" unicode="&#x931;" horiz-adv-x="418" 
d="M293 524q0 40 -8 70h-309v56h466v-56h-92q8 -24 8 -70v-137q0 -130 -144 -130q-45 0 -87 14v-128q0 -88 111 -88q61 0 125 18v-61q-61 -17 -135.5 -17t-120 37.5t-45.5 109.5v308h65v-120q46 -14 83 -14q83 0 83 71v137zM18 -102q-42 0 -42 41.5t42 41.5t42 -41.5
t-42 -41.5z" />
    <glyph glyph-name="uni0932" unicode="&#x932;" horiz-adv-x="619" 
d="M51 154v195q0 62 34.5 96.5t108 34.5t104.5 -46q34 46 111 46q40 0 73 -14v128h-506v56h667v-56h-96v-594h-65v406q-30 14 -70 14q-81 0 -81 -70v-143h-65v143q0 70 -75 70q-43 0 -59 -18.5t-16 -53.5v-193q0 -46 21.5 -71t80.5 -25q29 0 57 4v-58q-27 -5 -59 -5
q-165 0 -165 154z" />
    <glyph glyph-name="uni0933" unicode="&#x933;" horiz-adv-x="593" 
d="M328 357v-232q0 -73 79 -73q44 0 59 19t15 54v232q0 35 -15.5 54.5t-59.5 19.5q-78 0 -78 -74zM113 357v-232q0 -35 15.5 -54t58.5 -19q79 0 79 73v232q0 35 -17 54.5t-60.5 19.5t-59.5 -19.5t-16 -54.5zM542 357v-232q0 -130 -134 -130q-82 0 -111 52q-28 -52 -111 -52
q-135 0 -135 130v233q0 129 136 129q82 0 110 -53q21 40 76 49v111h-397v56h641v-56h-179v-110q104 -14 104 -127z" />
    <glyph glyph-name="uni0933093C" unicode="&#x934;" horiz-adv-x="593" 
d="M255 -107q0 42 42 42t42 -42t-42 -42t-42 42zM328 357v-232q0 -73 79 -73q44 0 59 19t15 54v232q0 35 -15.5 54.5t-59.5 19.5q-78 0 -78 -74zM113 357v-232q0 -35 15.5 -54t58.5 -19q79 0 79 73v232q0 35 -17 54.5t-60.5 19.5t-59.5 -19.5t-16 -54.5zM542 357v-232
q0 -130 -134 -130q-82 0 -111 52q-28 -52 -111 -52q-135 0 -135 130v233q0 129 136 129q82 0 110 -53q21 40 76 49v111h-397v56h641v-56h-179v-110q104 -14 104 -127z" />
    <glyph glyph-name="uni0935" unicode="&#x935;" horiz-adv-x="426" 
d="M202 447q-91 0 -91 -74v-171q0 -75 91 -75q59 0 88 13v295q-30 12 -88 12zM289 594h-313v56h474v-56h-96v-594h-65v82q-36 -13 -92 -13q-150 0 -150 133v172q0 61 38.5 96t111.5 35q48 0 92 -12v101z" />
    <glyph glyph-name="uni0936" unicode="&#x936;" horiz-adv-x="598" 
d="M360 524v-141q0 -129 -145 -129q-47 0 -86 14v-122q0 -44 29.5 -67t82.5 -23t116 18v-60q-58 -18 -128.5 -18t-117.5 40t-47 109v259h65v-77q42 -14 83 -14q83 0 83 71v139q0 71 -83 71t-83 -72q0 -28 3 -37h-65q-3 9 -3 39q0 62 37 96.5t111 34.5t111 -34.5t37 -96.5z
M461 650h162v-56h-97v-594h-65v650z" />
    <glyph glyph-name="uni0937" unicode="&#x937;" horiz-adv-x="437" 
d="M-25 650h486v-56h-96v-594h-64v130q-47 -15 -96 -15q-74 0 -113.5 34t-39.5 95v350h-77v56zM301 594h-184v-86l184 -171v257zM117 245q0 -71 93 -71q45 0 91 16v84l-184 172v-201z" />
    <glyph glyph-name="uni0938" unicode="&#x938;" horiz-adv-x="601" 
d="M273 524q0 36 -9 70h-288v56h649v-56h-96v-594h-65v289h-160q-36 -36 -110 -36q-38 0 -70 9v-119q0 -88 112 -88q58 0 122 18v-61q-61 -17 -134.5 -17t-119 37.5t-45.5 109.5v308h65v-129q34 -9 65 -9q84 0 84 71v141zM464 346v248h-135q8 -24 8 -70v-141q0 -22 -4 -37
h131z" />
    <glyph glyph-name="uni0939" unicode="&#x939;" horiz-adv-x="420" 
d="M48 132v55q0 69 54 94q-51 23 -52 91v14q0 119 144 119h87v89h-305v56h468v-56h-98v-148h-152q-45 0 -62 -15.5t-17 -46.5v-12q0 -31 18 -46.5t64 -15.5h47q66 0 96.5 -29.5t30.5 -89.5v-30h-62v28q0 34 -13 49t-56 15h-40q-87 0 -87 -65v-54q0 -81 119 -81q69 0 124 16
v-58q-43 -16 -128.5 -16t-132.5 36t-47 101z" />
    <glyph glyph-name="uni093C" unicode="&#x93c;" horiz-adv-x="0" 
d="M-246 -91q0 42 42 42t42 -42t-42 -42t-42 42z" />
    <glyph glyph-name="uni093D" unicode="&#x93d;" horiz-adv-x="420" 
d="M383 200v-64q0 -141 -161 -141h-5q-162 0 -162 141v66h65v-67q0 -38 20.5 -59t77.5 -21h3q57 0 77 21t20 59v66q0 31 -10 51.5t-40 36.5l-134 76q-44 24 -62.5 56.5t-18.5 79.5v27q0 61 33 91.5t111 30.5h163v-61h-160q-51 0 -66.5 -15.5t-15.5 -47.5v-24
q0 -30 10.5 -50.5t39.5 -36.5l134 -75q46 -26 63.5 -58.5t17.5 -81.5z" />
    <glyph glyph-name="uni093E" unicode="&#x93e;" 
d="M72 594h-96v56h257v-56h-96v-594h-65v594z" />
    <glyph glyph-name="uni093F" unicode="&#x93f;" 
d="M73 650v39q0 102 59 146t167 44q66 0 130.5 -14.5t96.5 -28.5l31 -14v-59q-47 22 -121.5 39t-147.5 17q-150 0 -150 -130v-39h95v-56h-96v-594h-65v594h-96v56h97z" />
    <glyph glyph-name="uni0940" unicode="&#x940;" 
d="M72 650v107q0 32 -15 47.5t-53.5 15.5t-53.5 -15.5t-15 -47.5v-42h-64v42q0 123 133 123t133 -123v-107h96v-56h-96v-594h-65v594h-96v56h96z" />
    <glyph glyph-name="uni0941" unicode="&#x941;" horiz-adv-x="0" 
d="M-162 -164h71q40 0 52 13t12 43.5t-13.5 44.5t-44.5 14q-56 0 -104 -14v56q42 14 103 14t90.5 -27t29.5 -86.5t-27.5 -86.5t-91.5 -27h-81q-72 0 -122 55l-100 104h83l62 -64q39 -39 81 -39z" />
    <glyph glyph-name="uni0942" unicode="&#x942;" horiz-adv-x="0" 
d="M-35 -153v-56q-45 -13 -98 -13q-111 0 -111 113q0 60 27.5 86.5t92.5 26.5h34q51 0 81.5 -15t58.5 -50l126 -155h-78l-89 109q-27 33 -46 44.5t-56 11.5h-25q-40 0 -52 -13t-12 -43.5t12.5 -44.5t49.5 -14q45 0 80 12q4 1 5 1z" />
    <glyph glyph-name="uni0943" unicode="&#x943;" horiz-adv-x="0" 
d="M-74 -36q-37 9 -76.5 9t-57.5 -13t-18 -58.5t18.5 -60.5t46.5 -15q51 0 91 9v-58q-37 -9 -83 -9q-136 0 -136 134q0 70 34.5 100t101.5 30q41 0 79 -9v-59z" />
    <glyph glyph-name="uni0944" unicode="&#x944;" horiz-adv-x="0" 
d="M-223 -273v-4q0 -35 15.5 -46.5t65.5 -11.5t79 6v-58q-38 -7 -96 -7q-129 0 -129 120q0 63 35 93q-36 27 -36 90q0 123 131 123q20 0 83 -9v-56q-2 0 -16 3q-31 5 -65.5 5t-51 -15t-16.5 -50v-4q1 -34 16.5 -45.5t48.5 -11.5h66v-58h-60q-38 0 -54 -15t-16 -49z" />
    <glyph glyph-name="uni0945" unicode="&#x945;" horiz-adv-x="0" 
d="M-7 837h62v-2q0 -65 -39.5 -93t-120.5 -28t-120.5 28t-39.5 93v2h62q0 -37 22 -51.5t76 -14.5t76 14.5t22 51.5z" />
    <glyph glyph-name="uni0946" unicode="&#x946;" horiz-adv-x="0" 
d="M-134 650q0 42 -21.5 64.5t-76.5 22.5q-83 0 -120.5 35t-37.5 107h63q0 -43 20.5 -65t76.5 -22q82 0 120 -35.5t38 -106.5h-62z" />
    <glyph glyph-name="uni0947" unicode="&#x947;" horiz-adv-x="0" 
d="M-319 877q18 2 43 2q56 0 98 -65l106 -164h-68l-86 133q-26 39 -67 39q-10 0 -26 -2v57z" />
    <glyph glyph-name="uni0948" unicode="&#x948;" horiz-adv-x="0" 
d="M-211 879q69 0 92 -75l47 -154h-59l-39 125q-8 25 -17 36t-23.5 11t-28.5 -2v57q16 2 28 2zM-412 877q16 2 41 2q55 0 99 -68l107 -161h-67l-87 133q-26 39 -67 39q-12 0 -26 -2v57z" />
    <glyph glyph-name="uni0949" unicode="&#x949;" 
d="M204 841h62v-2q0 -67 -39 -94t-120.5 -27t-121 27.5t-39.5 93.5v2h62q0 -37 22 -51.5t75.5 -14.5t76 14.5t22.5 51.5zM72 594h-96v56h257v-56h-96v-594h-65v594z" />
    <glyph glyph-name="uni094A" unicode="&#x94a;" 
d="M72 594h-96v56h97q0 42 -21 64.5t-76 22.5q-83 0 -120.5 35t-37.5 107h62q0 -43 20.5 -65t76.5 -22q82 0 120 -35.5t38 -106.5h98v-56h-96v-594h-65v594z" />
    <glyph glyph-name="uni094B" unicode="&#x94b;" 
d="M233 650v-56h-96v-594h-65v594h-96v56h92l-86 133q-26 39 -67 39q-10 0 -26 -2v57q18 2 43 2q56 0 98 -65l106 -164h97z" />
    <glyph glyph-name="uni094C" unicode="&#x94c;" 
d="M233 650v-56h-96v-594h-65v594h-140v56h43l-88 133q-26 39 -67 39q-12 0 -26 -2v57q16 2 42 2q52 0 98 -68l107 -161h34l-38 125q-8 25 -17.5 36t-24 11t-28.5 -2v57q16 2 29 2q69 0 92 -75l46 -154h99z" />
    <glyph glyph-name="uni094D" unicode="&#x94d;" horiz-adv-x="0" 
d="M33 -208h-71l-95 150h60z" />
    <glyph glyph-name="uni0950" unicode="&#x950;" horiz-adv-x="772" 
d="M436 249v275q0 131 145.5 131t145.5 -131v-374q0 -76 -43 -115.5t-140 -39.5q-40 0 -84 8v60q42 -7 83 -7q70 0 95 24t25 73v370q0 34 -17.5 52.5t-64 18.5t-64 -18.5t-17.5 -52.5v-304q0 -15 -6.5 -21t-22.5 -6h-152v-62q0 -64 -40.5 -99.5t-109 -35.5t-121.5 15v61
q57 -16 111 -16q94 0 96 77v90q0 37 -16.5 57t-66.5 21h-61v60h61q49 1 66 20.5t17 56.5v81q0 77 -96 77q-49 0 -101 -18v63q47 15 102 15q79 0 119 -36t40 -100v-82q0 -85 -52 -107q44 -19 51 -81h118zM541 812v-2q0 -65 -40 -93t-121 -28t-120.5 28t-39.5 93v2h63
q0 -37 22 -51.5t75.5 -14.5t75.5 14t22 52h63zM421 849q0 -41 -40.5 -41t-40.5 41t40.5 41t40.5 -41z" />
    <glyph glyph-name="uni0951" unicode="&#x951;" horiz-adv-x="0" 
d="M-137 933h65v-236h-65v236z" />
    <glyph glyph-name="uni0952" unicode="&#x952;" horiz-adv-x="0" 
d="M-18 -136h-390v57h390v-57z" />
    <glyph glyph-name="uni0953" unicode="&#x953;" horiz-adv-x="337" 
d="M65 933h69l106 -236h-69z" />
    <glyph glyph-name="uni0954" unicode="&#x954;" horiz-adv-x="329" 
d="M171 933h69l-106 -236h-69z" />
    <glyph glyph-name="uni0915093C" unicode="&#x958;" horiz-adv-x="586" 
d="M73 -14q0 42 41.5 42t41.5 -42t-41.5 -42t-41.5 42zM416 73l-23 1v61q6 -1 18 -1q38 0 52 17.5t14 49.5v178q0 68 -82 68q-35 0 -66 -9v-438h-64v78q-40 -10 -74 -10q-141 0 -141 125v186q0 125 141 125q18 0 30 -3v-57q-16 2 -26 2q-82 0 -82 -68v-184q0 -68 82 -68
q34 0 70 9v459h-285v56h630v-56h-281v-99q28 10 70 10q141 0 141 -125v-182q0 -57 -30 -91t-94 -34z" />
    <glyph glyph-name="uni0916093C" unicode="&#x959;" horiz-adv-x="731" 
d="M261 524q0 38 -13 70h-272v56h779v-56h-96v-594h-64v136q-30 -9 -78 -9q-71 0 -103.5 31.5t-32.5 93.5v124q0 63 32 94.5t103 31.5q39 0 79 -9v101h-283q11 -24 11 -70v-121q0 -145 -145 -145q-34 0 -67 7v-88q0 -121 163 -121q76 0 138 18v-62q-62 -16 -153 -16
t-151.5 43.5t-60.5 136.5v266h64v-119q36 -6 65 -6q85 0 85 86v121zM595 435q-36 9 -77.5 9t-58 -17t-16.5 -51v-124q0 -34 16.5 -51t61.5 -17t74 9v242zM36 -23q42 0 42 -42t-42 -42t-42 42t42 42z" />
    <glyph glyph-name="uni0917093C" unicode="&#x95a;" horiz-adv-x="481" 
d="M31 255l28 -2q70 0 70 69v272h-151v56h528v-56h-96v-594h-65v594h-151v-275q0 -58 -32 -92.5t-95 -34.5q-27 0 -36 3v60zM105 104q42 0 42 -42t-42 -42t-42 42t42 42z" />
    <glyph glyph-name="uni091C093C" unicode="&#x95b;" horiz-adv-x="551" 
d="M216 354q0 42 -9 69h-110v59h317v112h-438v56h599v-56h-96v-594h-65v425h-141q8 -24 8 -69v-177q0 -66 -40 -101.5t-115 -35.5q-48 0 -93 12v60q48 -12 92 -12q91 0 91 78v174zM39 -89q-42 0 -42 41.5t42 41.5t42 -41.5t-42 -41.5z" />
    <glyph glyph-name="uni0921093C" unicode="&#x95c;" horiz-adv-x="412" 
d="M364 160v-36q0 -130 -171 -130q-74 0 -136 14v63q60 -17 136 -17q106 0 106 71v34q0 33 -18 49.5t-65 16.5h-19q-146 0 -146 121v38q0 121 146 121h73v89h-294v56h460v-56h-101v-148h-138q-46 0 -63.5 -16t-17.5 -48v-34q0 -32 18 -48.5t63 -16.5h19q148 0 148 -123z
M166 -130.5q0 41.5 41.5 41.5t41.5 -41.5t-41.5 -41.5t-41.5 41.5z" />
    <glyph glyph-name="uni0922093C" unicode="&#x95d;" horiz-adv-x="407" 
d="M166 -131q0 42 42 42t42 -42t-42 -42t-42 42zM237 242q-24 0 -42 -8v59q20 8 49 8q54 0 86 -31t32 -93v-47q0 -135 -153.5 -135t-153.5 136v246q0 126 147 126h63v91h-289v56h455v-56h-102v-151h-127q-47 0 -65 -17t-18 -50v-243q0 -37 20 -57.5t70 -20.5t69.5 20
t19.5 57v44q0 66 -61 66z" />
    <glyph glyph-name="uni092B093C" unicode="&#x95e;" horiz-adv-x="603" 
d="M278 594h-158v-346q0 -71 89 -71q30 0 69 9v408zM492 373q0 67 -73 67q-37 0 -77 -11v-429h-64v128q-47 -10 -74 -10q-74 0 -111.5 33.5t-37.5 95.5v347h-80v56h652v-56h-285v-105q35 11 75 11q69 0 104.5 -33.5t35.5 -92.5v-184q0 -59 -32.5 -92t-96.5 -33l-15 1h-3v60
q46 -1 64 15.5t18 50.5v181zM38 9q0 42 41.5 42t41.5 -42t-41.5 -42t-41.5 42z" />
    <glyph glyph-name="uni092F093C" unicode="&#x95f;" horiz-adv-x="500" 
d="M185 524q0 40 -8 70h-201v56h548v-56h-96v-594h-65v97q-46 -12 -110 -12q-198 0 -198 172v127h21q63 0 86 15t23 58v67zM249 524v-73q0 -117 -129 -119v-71q0 -59 32 -87t94 -28t117 11v437h-121q7 -24 7 -70zM48 -3q0 42 41.5 42t41.5 -42t-41.5 -42t-41.5 42z" />
    <glyph glyph-name="uni0960" unicode="&#x960;" horiz-adv-x="683" 
d="M493 359l-72 1h-44v-360h-63v118q0 122 2 136v1q-3 -5 -32 -37q-21 -24 -162 -171h-86l276 286v26q0 78 -102 78q-57 0 -80 -21t-23 -63v-59h-64v61q0 143 162 143q79 0 107 -33v129h-336v56h731v-56h-330v-173l94 -1h23q49 0 69.5 18.5t20.5 56.5v9h63v-253h-46
q-39 0 -55.5 -15.5t-16.5 -56.5q0 -66 83 -66h20v-57h-34q-36 0 -52.5 -11.5t-16.5 -52t17 -52t71 -11.5t60 1v-56q-7 -2 -76 -2t-102.5 27.5t-33.5 92.5t40 94q-40 30 -40 94t29 91t91 29v90q-29 -31 -92 -31z" />
    <glyph glyph-name="uni0961" unicode="&#x961;" horiz-adv-x="619" 
d="M547 194h-59q-39 0 -55 -15t-16 -51t15.5 -48t48.5 -12h47v-59h-40q-39 0 -55 -15t-16 -51t16 -48t66.5 -12t58.5 1v-58q-12 -2 -76 -2q-130 0 -130 119q0 64 37 94q-37 29 -37 92q0 122 130 122v104q0 65 -75.5 65t-75.5 -70v-85h-65v85q0 70 -75 70q-43 0 -59 -18.5
t-16 -53.5v-193q0 -46 21.5 -71t80.5 -25h33v-59h-35q-165 0 -165 154v195q0 62 34.5 96.5t108 34.5t104.5 -46q34 46 107 46q56 0 77 -24v138h-506v56h667v-56h-96v-400z" />
    <glyph glyph-name="uni0964" unicode="&#x964;" horiz-adv-x="285" 
d="M148 0v650h65v-650h-65z" />
    <glyph glyph-name="uni0965" unicode="&#x965;" horiz-adv-x="446" 
d="M309 0v650h65v-650h-65zM112 0v650h64v-650h-64z" />
    <glyph glyph-name="uni0966" unicode="&#x966;" horiz-adv-x="446" 
d="M316 522q0 96 -93 96t-93 -96v-372q0 -96 93 -96t93 96v372zM59 523q0 72 40 115.5t123.5 43.5t124 -43.5t40.5 -115.5v-375q0 -72 -40.5 -115t-124 -43t-123.5 43t-40 115v375z" />
    <glyph glyph-name="uni0967" unicode="&#x967;" horiz-adv-x="278" 
d="M209 672v-672h-72v599l-126 -92v80l117 85h81z" />
    <glyph glyph-name="uni0968" unicode="&#x968;" horiz-adv-x="401" 
d="M177 677q177 0 177 -142v-58q-1 -56 -18 -90t-60 -63l-77 -55q-50 -34 -67 -58t-17 -69v-76h241v-66h-313v145q0 63 26 99.5t81 73.5l80 57q31 20 42 44t11 64v48q0 40 -22 60t-87.5 20t-119.5 -21v69q52 18 123 18z" />
    <glyph glyph-name="uni0969" unicode="&#x969;" horiz-adv-x="393" 
d="M154 677q176 0 176 -144v-69q0 -97 -73 -126q77 -26 77 -121v-77q0 -69 -44.5 -107t-128 -38t-135.5 18v70q59 -23 123.5 -23t89 21t24.5 62v67q0 94 -94 94h-69v65h69q50 0 70 24.5t20 71.5v64q0 40 -23 61.5t-87 21.5t-110 -17v68q45 14 115 14z" />
    <glyph glyph-name="uni096A" unicode="&#x96a;" horiz-adv-x="405" 
d="M400 189v-63h-68v-126h-69v126h-253v64l213 482h109v-483h68zM264 189v424l-187 -424h187z" />
    <glyph glyph-name="uni096B" unicode="&#x96b;" horiz-adv-x="419" 
d="M62 672h288v-66h-218v-212q38 5 83 5q151 0 151 -150v-110q0 -68 -45 -106t-136 -38q-64 0 -128 20v70q67 -25 127.5 -25t85.5 21.5t25 61.5v101q0 46 -19.5 67.5t-71.5 21.5q-24 0 -142 -11v350z" />
    <glyph glyph-name="uni096C" unicode="&#x96c;" horiz-adv-x="433" 
d="M316 273q0 83 -87 83q-57 0 -99 -24v-183q0 -96 93 -96t93 96v124zM59 519q0 71 43.5 114.5t126 43.5t134.5 -18v-68q-52 20 -124 20q-109 0 -109 -96v-117q44 22 111 22t106.5 -37t39.5 -107v-128q0 -72 -40.5 -115t-124 -43t-123.5 43t-40 115v371z" />
    <glyph glyph-name="uni096D" unicode="&#x96d;" horiz-adv-x="329" 
d="M5 672h300v-57l-66 -209q-30 -97 -43 -162t-13 -146v-98h-72v101q0 82 13.5 148.5t43.5 161.5l62 196h-225v65z" />
    <glyph glyph-name="uni096E" unicode="&#x96e;" horiz-adv-x="455" 
d="M394 527v-66q0 -94 -71 -126q74 -34 74 -127v-64q0 -70 -42.5 -112t-127 -42t-126.5 41.5t-42 112.5v64q0 93 73 127q-71 32 -71 126v66q0 71 41.5 113t125.5 42t125 -42t41 -113zM132 527v-67q0 -96 96 -96t96 96v67q0 92 -96 92t-96 -92zM326 145v64q0 96 -98.5 96
t-98.5 -96v-64q0 -92 98.5 -92t98.5 92z" />
    <glyph glyph-name="uni096F" unicode="&#x96f;" horiz-adv-x="433" 
d="M303 523q0 95 -93 95t-93 -95v-127q0 -88 89 -88q63 0 97 23v192zM46 523q0 72 40.5 115.5t124 43.5t123.5 -43.5t40 -115.5v-375q0 -70 -44.5 -111.5t-135.5 -41.5q-67 0 -129 19v69q61 -23 128 -23q110 0 110 92v113q-39 -21 -108 -21t-109 39t-40 109v131z" />
    <glyph glyph-name="uni0970" unicode="&#x970;" horiz-adv-x="370" 
d="M125.5 398q-15.5 -23 -15.5 -66.5t15.5 -65.5t61.5 -22t62.5 22.5t16.5 65.5t-16.5 66t-62.5 23t-61.5 -23zM187 190q-135 0 -135 143.5t135 143.5q72 0 104.5 -39t32.5 -105q0 -143 -137 -143z" />
    <glyph glyph-name="uni0972" unicode="&#x972;" horiz-adv-x="562" 
d="M556 837h62v-2q0 -65 -39.5 -93t-120.5 -28t-120.5 28t-39.5 93v2h62q0 -37 22 -51.5t76 -14.5t76 14.5t22 51.5zM425 270v380h161v-56h-96v-594h-65v213h-117v-43q0 -64 -40.5 -100t-108.5 -36t-123 15v61q59 -16 112 -16q95 0 95 77v72q0 37 -17 57t-66 20h-60v61h60
q49 0 66 19.5t17 56.5v61q0 77 -95 77q-49 0 -101 -18v63q47 15 102 15q79 0 119 -36t40 -100v-62q0 -86 -52 -106q44 -19 51 -81h118z" />
    <glyph glyph-name="uni097D" unicode="&#x97d;" horiz-adv-x="434" 
d="M65 426v93q0 66 38 106t121 40t120.5 -40t37.5 -106v-178q0 -142 -143 -146v-195h-63v254h48q56 0 74.5 24.5t18.5 64.5v175q0 39 -19 63t-74 24t-74.5 -24.5t-19.5 -62.5v-92h-65z" />
    <glyph glyph-name="uni200B" unicode="&#x200b;" horiz-adv-x="0" 
 />
    <glyph glyph-name="uni200C" unicode="&#x200c;" horiz-adv-x="0" 
d="M24 -230h-47v1041h47v-1041z" />
    <glyph glyph-name="uni200D" unicode="&#x200d;" horiz-adv-x="0" 
d="M24 -230h-47v865l-69 -73l-33 33l93 93l-95 95l33 33l95 -95l96 95l32 -32l-96 -96l96 -95l-33 -33l-72 75v-865z" />
    <glyph glyph-name="endash" unicode="&#x2013;" horiz-adv-x="404" 
d="M40 354h317v-59h-317v59z" />
    <glyph glyph-name="emdash" unicode="&#x2014;" horiz-adv-x="635" 
d="M40 354h543v-59h-543v59z" />
    <glyph glyph-name="quoteleft" unicode="&#x2018;" horiz-adv-x="159" 
d="M63 513q-34 0 -34 33q0 25 22 79t41 88h38l-40 -200h-27z" />
    <glyph glyph-name="quoteright" unicode="&#x2019;" horiz-adv-x="159" 
d="M96 713q34 0 34 -33q0 -25 -21.5 -77.5t-40.5 -89.5h-39l40 200h27z" />
    <glyph glyph-name="quotesinglbase" unicode="&#x201a;" horiz-adv-x="159" 
d="M96 85q34 0 34 -33q0 -47 -62 -168h-39l40 201h27z" />
    <glyph glyph-name="quotedblleft" unicode="&#x201c;" horiz-adv-x="271" 
d="M63 513q-34 0 -34 33q0 25 22 79t41 88h35l-40 -200h-24zM178 513q-34 0 -34 33q0 25 21.5 77.5t40.5 89.5h36l-40 -200h-24z" />
    <glyph glyph-name="quotedblright" unicode="&#x201d;" horiz-adv-x="271" 
d="M93 713q34 0 34 -33q0 -25 -21.5 -77.5t-40.5 -89.5h-36l40 200h24zM208 713q34 0 34 -33q0 -25 -21.5 -77.5t-40.5 -89.5h-36l40 200h24z" />
    <glyph glyph-name="quotedblbase" unicode="&#x201e;" horiz-adv-x="271" 
d="M93 85q34 0 34 -33q0 -47 -62 -168h-36l40 201h24zM208 85q34 0 34 -33q0 -47 -62 -168h-36l40 201h24z" />
    <glyph glyph-name="dagger" unicode="&#x2020;" horiz-adv-x="353" 
d="M145 778h64l-6 -134q48 6 102 6v-56l-102 5q6 -70 6 -140v-488h-64v488l5 140q-42 -5 -102 -5v56q54 0 102 -6q-5 72 -5 134z" />
    <glyph glyph-name="daggerdbl" unicode="&#x2021;" horiz-adv-x="353" 
d="M145 778h63l-5 -134q43 6 102 6v-56l-102 5q3 -223 0 -448q43 5 102 5v-56l-102 5q5 -52 5 -134h-63l5 134q-43 -5 -102 -5v56l102 -5q-3 225 0 448q-43 -5 -102 -5v56q52 0 102 -6q-5 72 -5 134z" />
    <glyph glyph-name="bullet" unicode="&#x2022;" horiz-adv-x="269" 
d="M62 325.5q0 72.5 72.5 72.5t72.5 -72.5t-72.5 -72.5t-72.5 72.5z" />
    <glyph glyph-name="ellipsis" unicode="&#x2026;" horiz-adv-x="564" 
d="M237 41q0 42 42 42t42 -42t-42 -42t-42 42zM59 41q0 42 42 42t42 -42t-42 -42t-42 42zM415 41q0 42 42 42t42 -42t-42 -42t-42 42z" />
    <glyph glyph-name="perthousand" unicode="&#x2030;" horiz-adv-x="827" 
d="M574 134q0 68 28 105t83 37t83 -37t28 -105t-28 -105.5t-83 -37.5t-83 37.5t-28 105.5zM685 44q54 0 54 89.5t-54 89.5t-54 -89.5t54 -89.5zM310 134q0 68 28 105t83 37t83 -37t28 -105t-28 -105.5t-83 -37.5t-83 37.5t-28 105.5zM421 44q54 0 54 89.5t-54 89.5
t-54 -89.5t54 -89.5zM35 538q0 68 28 105.5t83 37.5t83 -37.5t28 -105.5t-28 -105.5t-83 -37.5t-83 37.5t-28 105.5zM199 538q0 90 -53.5 90t-53.5 -90t53.5 -90t53.5 90zM391 672h55l-270 -672h-54z" />
    <glyph glyph-name="guilsinglleft" unicode="&#x2039;" horiz-adv-x="358" 
d="M193 505h74l-122 -183l122 -183h-74l-121 183z" />
    <glyph glyph-name="guilsinglright" unicode="&#x203a;" horiz-adv-x="342" 
d="M72 505h74l121 -183l-121 -183h-74l122 183z" />
    <glyph glyph-name="fraction" unicode="&#x2044;" horiz-adv-x="243" 
d="M262 672h53l-333 -672h-53z" />
    <glyph glyph-name="foursuperior" unicode="&#x2074;" horiz-adv-x="305" 
d="M198 434v265l-134 -265h134zM248 740v-306h49v-47h-49v-98h-50v98h-184v48l155 305h79z" />
    <glyph glyph-name="Euro" unicode="&#x20ac;" horiz-adv-x="406" 
d="M138 248v-108q0 -39 24.5 -59.5t86 -20.5t116.5 16v-65q-50 -16 -118 -16q-180 0 -180 142v111h-53v53h53v81h-53v52h53v101q0 142 180 142q58 0 116 -16v-66q-59 17 -118 17t-83 -20.5t-24 -60.5v-97h154v-52h-154v-81h154v-53h-154z" />
    <glyph glyph-name="uni20B9" unicode="&#x20b9;" horiz-adv-x="456" 
d="M414 650v-56h-124q36 -24 36 -73v-26h88v-53h-88v-18q0 -79 -38 -113t-128 -34h-36l209 -277h-77l-207 277v58h110q62 0 83.5 20t21.5 70v17h-214v53h214v27q0 32 -22 52t-69 20h-123v56h364z" />
    <glyph glyph-name="uni2113" unicode="&#x2113;" horiz-adv-x="376" 
d="M152 125q0 -35 16.5 -50t51 -15t67.5 11v-65q-40 -10 -74 -10q-131 0 -131 127v27q-18 -14 -67 -51v84q45 36 67 54v342q0 71 34 108.5t97.5 37.5t97.5 -41.5t34 -118.5q0 -183 -193 -356v-84zM152 579v-276q123 131 123 262q0 93 -61.5 93t-61.5 -79z" />
    <glyph glyph-name="trademark" unicode="&#x2122;" horiz-adv-x="554" 
d="M482 700v-234h-41v118l10 99l-60 -217h-33l-59 216l10 -98v-118h-41v234h60l38 -136l9 -46l9 46l37 136h61zM75 664v36h171v-36h-64v-198h-42v198h-65z" />
    <glyph glyph-name="uni2126" unicode="&#x2126;" horiz-adv-x="480" 
d="M70 523q0 71 43 115t127 44t127 -44t43 -115v-368q0 -68 -39 -92h72v-63h-166v63q62 8 62 87v372q0 95 -99 95t-99 -95v-372q0 -79 62 -87v-63h-166v63h73q-40 24 -40 92v368z" />
    <glyph glyph-name="estimated" unicode="&#x212e;" horiz-adv-x="667" 
d="M480 472q-55 39 -139.5 39t-140.5 -45v-166h280v172zM613 281l-1 -24h-412v-179q62 -44 141 -44t134 28.5t83 80.5l38 -22q-74 -131 -248 -131q-131 0 -210.5 78.5t-79.5 203t79 204t206.5 79.5t198.5 -75t71 -199z" />
    <glyph glyph-name="partialdiff" unicode="&#x2202;" horiz-adv-x="453" 
d="M226 385q-93 0 -93 -94v-143q0 -94 92.5 -94t92.5 93v205q-31 33 -92 33zM388 307v-160q0 -71 -40.5 -113.5t-122 -42.5t-121.5 42t-40 113v146q0 70 37.5 111t114.5 41q56 0 88 -30q-37 146 -149 258h90q51 -56 97 -154.5t46 -210.5z" />
    <glyph glyph-name="uni2206" unicode="&#x2206;" horiz-adv-x="469" 
d="M277 672l134 -672h-347l134 672h79zM237 578l-99 -515h198z" />
    <glyph glyph-name="product" unicode="&#x220f;" horiz-adv-x="475" 
d="M69 672h337v-672h-72v608h-194v-608h-71v672z" />
    <glyph glyph-name="summation" unicode="&#x2211;" horiz-adv-x="382" 
d="M29 672h320v-63h-244l124 -273l-124 -274h244v-62h-320v61l125 275l-125 275v61z" />
    <glyph glyph-name="minus" unicode="&#x2212;" horiz-adv-x="437" 
d="M40 354h357v-59h-357v59z" />
    <glyph glyph-name="uni2215" unicode="&#x2215;" horiz-adv-x="243" 
d="M229 672h54l-269 -672h-54z" />
    <glyph glyph-name="uni2219" unicode="&#x2219;" horiz-adv-x="151" 
d="M32 335.5q0 45.5 43.5 45.5t43.5 -45.5t-43.5 -45.5t-43.5 45.5z" />
    <glyph glyph-name="radical" unicode="&#x221a;" horiz-adv-x="419" 
d="M34 260v63h107l68 -252l119 601h71l-140 -672h-100l-70 260h-55z" />
    <glyph glyph-name="infinity" unicode="&#x221e;" horiz-adv-x="626" 
d="M451 483q72 0 100.5 -39t28.5 -108.5t-28.5 -108.5t-100.5 -39q-44 0 -76.5 25.5t-62.5 70.5q-32 -45 -63.5 -70t-74.5 -25q-72 0 -100 38.5t-28 108t28 108.5t100 39q43 0 75.5 -26t62.5 -71q31 46 63.5 71.5t75.5 25.5zM130.5 262q15.5 -12 45 -12t53 21.5t50.5 63.5
q-27 42 -50 63.5t-49.5 21.5t-41 -6t-20.5 -19q-9 -19 -9 -54t3 -51t18.5 -28zM396.5 271.5q23.5 -21.5 50 -21.5t40.5 6t21 19q9 19 9 61t-12.5 63t-48.5 21t-59.5 -21.5t-50.5 -63.5q27 -42 50.5 -63.5z" />
    <glyph glyph-name="integral" unicode="&#x222b;" horiz-adv-x="273" 
d="M90 671q0 67 37 102.5t107 33.5v-63q-73 0 -73 -72v-671q0 -67 -37 -102.5t-107 -33.5v62q73 0 73 73v671z" />
    <glyph glyph-name="approxequal" unicode="&#x2248;" horiz-adv-x="464" 
d="M422 437q0 -41 -22 -65q-42 -44 -126 -12l-89 38q-37 19 -63 8t-19 -52h-58q-3 14 -3 30q0 40 23 64q42 44 126 12l88 -38q40 -20 65 -9t18 53h58q2 -13 2 -29zM422 286q0 -41 -22 -65q-42 -44 -126 -12l-89 38q-37 19 -63 8t-19 -52h-58q-3 14 -3 30q0 40 23 64
q42 44 126 12l88 -38q40 -20 65 -9t18 53h58q2 -13 2 -29z" />
    <glyph glyph-name="notequal" unicode="&#x2260;" horiz-adv-x="450" 
d="M403 384h-122l-51 -120h173v-59h-198l-41 -97h-57l41 97h-102v59h127l51 120h-178v59h203l42 100h57l-42 -100h97v-59z" />
    <glyph glyph-name="lessequal" unicode="&#x2264;" horiz-adv-x="455" 
d="M402 521v-64l-301 -114l301 -113v-64l-357 139v76zM45 84v59h357v-59h-357z" />
    <glyph glyph-name="greaterequal" unicode="&#x2265;" horiz-adv-x="455" 
d="M53 521l357 -140v-76l-357 -139v64l301 113l-301 114v64zM53 84v59h357v-59h-357z" />
    <glyph glyph-name="lozenge" unicode="&#x25ca;" horiz-adv-x="420" 
d="M314 284l-103 242l-104 -242l104 -242zM162 569h98l126 -285l-126 -284h-98l-127 284z" />
    <glyph glyph-name="uni25CC" unicode="&#x25cc;" horiz-adv-x="660" 
d="M257 560q0 20 12.5 32t31.5 12t31.5 -12t12.5 -32t-12.5 -32t-31.5 -12t-31.5 12t-12.5 32zM396 514q-13 13 -13 31.5t12.5 31.5t32 13t31.5 -12.5t12 -31.5t-12.5 -32t-31 -13t-31.5 13zM478 477q0 19 12.5 32t31.5 13t31.5 -12.5t12.5 -32t-12.5 -32t-31.5 -12.5
t-31.5 12.5t-12.5 31.5zM528 359q0 19 12 31.5t31.5 12.5t32 -12.5t12.5 -31.5t-12.5 -31.5t-32 -12.5t-31.5 12.5t-12 31.5zM518 225q0 19 13 32t31.5 13t31 -13t12.5 -32t-12.5 -31.5t-31 -12.5t-31.5 12.5t-13 31.5zM445 127q0 19 12.5 31.5t31.5 12.5t32 -12.5t13 -31.5
t-13 -31.5t-32 -12.5t-31.5 12.5t-12.5 31.5zM324 74q0 20 12 32t32 12t32.5 -12.5t12.5 -31.5t-12.5 -31.5t-32.5 -12.5t-32 12t-12 32zM210 57q-13 13 -13 32t13 32t32 13t31.5 -13t12.5 -32t-12.5 -32t-31.5 -13t-32 13zM96 165q0 19 12.5 31.5t31.5 12.5t31.5 -12.5
t12.5 -31.5t-12.5 -31.5t-32 -12.5t-31.5 12.5t-12 31.5zM44 281q0 19 12.5 32t31.5 13t31.5 -12.5t12.5 -32t-12.5 -31.5t-31.5 -12t-31.5 12t-12.5 31zM57 407q0 19 13 31.5t32 12.5t32 -12.5t13 -31.5t-13 -31.5t-32 -12.5t-32 12.5t-13 31.5zM151.5 484.5
q-12.5 12.5 -12.5 32t12.5 32t31.5 12.5t31.5 -12.5t12.5 -32t-12.5 -32t-31.5 -12.5t-31.5 12.5z" />
    <glyph glyph-name="commaaccent" unicode="&#xf6c3;" horiz-adv-x="350" 
d="M188 -61q27 0 27 -25.5t-47 -96.5h-34l26 122h28z" />
    <glyph glyph-name="itfLogo" horiz-adv-x="1734" 
d="M1396 237v196h207v-196h-207zM1396 475v196h207v-196h-207zM1146 0v671h208v-671h-208zM896 475v196h208v-196h-208zM647 0v671h207v-671h-207zM397 475v196h207v-196h-207zM147 0v671h207v-671h-207z" />
    <glyph glyph-name="uni0915094D" horiz-adv-x="401" 
d="M473 356v21q0 35 -15.5 52t-59 17t-73.5 -9v-437h-64v78q-40 -10 -74 -10q-141 0 -141 125v186q0 125 141 125q18 0 30 -3v-57q-16 2 -26 2q-82 0 -82 -68v-184q0 -68 82 -68q34 0 70 9v459h-285v56h583v-56h-234v-100q29 10 75 10q74 0 104 -32.5t30 -93.5v-22h-61z" />
    <glyph glyph-name="uni0916094D" horiz-adv-x="525" 
d="M380 252v124q0 62 33 93.5t105 31.5t105 -31.5t33 -93.5v-124q0 -67 -32 -96t-106 -29t-106 29t-32 96zM594 252v124q0 34 -16 51t-60 17t-60 -17t-16 -51v-124q0 -34 16 -51t60 -17t60 17t16 51zM260 524q0 42 -13 70h-271v56h678v-56h-343q11 -24 11 -70v-121
q0 -145 -145 -145q-34 0 -67 7v-88q0 -121 163 -121q76 0 138 18v-62q-62 -16 -153 -16t-151.5 43.5t-60.5 136.5v266h64v-119q36 -6 65 -6q85 0 85 86v121z" />
    <glyph glyph-name="uni0917094D" horiz-adv-x="253" 
d="M29 255l28 -2q70 0 70 69v272h-151v56h302v-56h-86v-275q0 -58 -32 -92.5t-95 -34.5q-27 0 -36 3v60z" />
    <glyph glyph-name="uni0918094D" horiz-adv-x="284" 
d="M69 524q0 44 7 70h-100v56h380v-56h-214q-8 -25 -8 -70v-69q0 -33 17 -50t63 -17h35v-61h-37q-47 0 -65.5 -17t-18.5 -50v-46q0 -50 30.5 -71t95.5 -21t119 17v-59q-71 -17 -129 -17q-84 0 -132.5 36.5t-48.5 110.5v51q0 79 59 96q-53 21 -53 97v70z" />
    <glyph glyph-name="uni0919094D" horiz-adv-x="446" 
d="M365 354.5q0 41.5 41.5 41.5t41.5 -41.5t-41.5 -41.5t-41.5 41.5zM362 168v-44q0 -130 -171 -130q-71 0 -138 15v60q62 -15 138 -15q106 0 106 70v43q0 33 -18 49.5t-65 16.5h-19q-146 0 -146 121v30q0 121 146 121h73v89h-294v56h496v-56h-137v-148h-138
q-46 0 -63.5 -16t-17.5 -48v-26q0 -32 18 -48.5t63 -16.5h19q148 0 148 -123zM343 -208h-71l-95 150h60z" />
    <glyph glyph-name="uni091A094D" horiz-adv-x="246" 
d="M81 338q0 44 9 85h-86v59h259v-57h-107q-10 -29 -10 -87v-143q0 -38 20.5 -56t71 -18t98.5 15v-58q-43 -16 -107 -16q-148 0 -148 132v144zM325 650v-56h-357v56h357z" />
    <glyph glyph-name="uni091B094D" horiz-adv-x="506" 
d="M372 419.5q-16 17.5 -51.5 17.5t-63.5 -10v58q30 10 65 10q68 0 99 -34t31 -91v-201q0 -81 -44 -114.5t-150.5 -33.5t-152 33t-45.5 112v34q0 76 60 95q-31 11 -42.5 34.5t-11.5 61.5v131q0 53 28 72h-118v56h554v-56h-328q-37 0 -54.5 -17t-17.5 -55v-130
q0 -33 17 -49.5t64 -17.5h53v-59h-52q-48 0 -67.5 -17t-19.5 -51v-31q0 -51 26.5 -69t105 -18t105 19t26.5 71v195q0 37 -16 54.5z" />
    <glyph glyph-name="uni091C094D" horiz-adv-x="341" 
d="M216 354q0 42 -9 69h-110v59h325v-57h-149q8 -24 8 -69v-177q0 -66 -40 -101.5t-115 -35.5q-48 0 -93 12v60q48 -12 92 -12q91 0 91 78v174zM421 650v-56h-445v56h445z" />
    <glyph glyph-name="uni091D094D" horiz-adv-x="399" 
d="M203 19q-47 0 -85 9v-88h-62v217h62v-70q37 -10 82 -10t63.5 17t18.5 50v45q0 32 -18 49t-62 17h-5q-148 0 -148 121v8q0 121 149 121h82v89h-304v56h511v-56h-142v-148h-147q-47 0 -65 -15.5t-19 -46.5v-6q0 -33 17.5 -49t63.5 -16h292v-55h-168q28 -21 28 -70v-46
q0 -64 -33.5 -93.5t-110.5 -29.5z" />
    <glyph glyph-name="uni091E094D" horiz-adv-x="363" 
d="M443 650v-56h-467v56h467zM443 307v-57h-136v-65q0 -136 -153 -136q-49 0 -97 16v60q56 -16 96 -16q89 0 89 78v185q0 38 -19.5 58t-67 20t-91.5 -16v60q39 16 91 16q152 0 152 -135v-68h136z" />
    <glyph glyph-name="uni091F094D" horiz-adv-x="392" 
d="M120 370v-230q0 -84 107 -84q57 0 116 16v-60q-52 -16 -125 -16t-118 37.5t-45 105.5v233q0 129 149 129h57v93h-285v56h440v-56h-90v-153h-118q-48 0 -68 -18t-20 -53zM341 -208h-71l-95 150h60z" />
    <glyph glyph-name="uni0920094D" horiz-adv-x="406" 
d="M287 125v253q0 34 -18.5 53t-65.5 19t-65.5 -19t-18.5 -53v-253q0 -72 84 -72t84 72zM351 379v-253q0 -62 -37 -96.5t-111 -34.5t-111 34.5t-37 96.5v253q0 114 115 127v88h-194v56h454v-56h-195v-88q116 -13 116 -127zM344 -208h-71l-95 150h60z" />
    <glyph glyph-name="uni0921094D" horiz-adv-x="412" 
d="M364 160v-36q0 -130 -171 -130q-74 0 -136 14v63q60 -17 136 -17q106 0 106 71v34q0 33 -18 49.5t-65 16.5h-19q-146 0 -146 121v38q0 121 146 121h73v89h-294v56h460v-56h-101v-148h-138q-46 0 -63.5 -16t-17.5 -48v-34q0 -32 18 -48.5t63 -16.5h19q148 0 148 -123z
M342 -208h-71l-95 150h60z" />
    <glyph glyph-name="uni0922094D" horiz-adv-x="407" 
d="M236 242q-15 0 -41 -7v59q18 7 46 7q55 0 88 -31.5t33 -92.5v-47q0 -135 -153.5 -135t-153.5 136v246q0 126 147 126h63v91h-289v56h455v-56h-102v-151h-127q-47 0 -65 -17t-18 -50v-243q0 -37 20 -57.5t70 -20.5t69.5 20t19.5 57v44q0 66 -62 66zM347 -208h-71l-95 150
h60z" />
    <glyph glyph-name="uni0923094D" horiz-adv-x="391" 
d="M196 178q46 0 62.5 18.5t16.5 53.5v344h-158v-344q0 -35 16.5 -53.5t62.5 -18.5zM415 650v-56h-75v-345q0 -130 -144 -130t-144 130v345h-76v56h439z" />
    <glyph glyph-name="uni0924094D" horiz-adv-x="231" 
d="M213 435q-96 0 -96 -74v-235q0 -34 19 -50.5t67 -15.5v-60q-16 -1 -21 -1q-66 -2 -98 31t-32 93v240q0 61 40 96.5t116 35.5q51 0 127 -12v-59q-62 11 -122 11zM335 650v-56h-359v56h359z" />
    <glyph glyph-name="uni0925094D" horiz-adv-x="343" 
d="M147 175.5q35 -29.5 120 -29.5t158 18v-59q-61 -19 -165.5 -19t-158.5 46t-54 143v102h88q65 0 92.5 19t27.5 74v52q0 40 -11 56.5t-50.5 16.5t-52.5 -17t-13 -55l4 -49h-63q-4 30 -4 47q0 67 29.5 100.5t97.5 33.5t95.5 -33t27.5 -100v-56q0 -79 -42.5 -113.5
t-132.5 -34.5h-28v-42q0 -71 35 -100.5z" />
    <glyph glyph-name="uni0926094D" horiz-adv-x="404" 
d="M43 206v170q0 126 149 126h74v92h-290v56h452v-56h-97v-152h-139q-47 0 -65.5 -17t-18.5 -50v-168q0 -74 94 -74q40 0 82 9v97h62v-247h-62v91q-39 -9 -87 -9q-73 0 -113.5 34.5t-40.5 97.5zM455 -208h-71l-95 150h60z" />
    <glyph glyph-name="uni0927094D" horiz-adv-x="295" 
d="M69 524q0 40 8 70h-101v56h237v-56h-70q-9 -25 -9 -70v-65q0 -33 17 -50t63 -17h35v-61h-37q-47 0 -65.5 -17t-18.5 -50v-52q0 -49 30.5 -69.5t90 -20.5t126.5 19v-60q-72 -18 -143.5 -18t-120 36.5t-48.5 108.5v57q0 79 59 96q-53 21 -53 97v66z" />
    <glyph glyph-name="uni0928094D" horiz-adv-x="369" 
d="M178 420q-38 0 -53.5 -15.5t-15.5 -47.5v-173q0 -32 15.5 -48t54 -16t54 16t15.5 48v164q0 48 -12 72h-58zM464 650v-56h-488v56h488zM465 479v-59h-166q4 -4 8 -27.5t4 -43.5v-166q0 -122 -132.5 -122t-132.5 122v175q0 121 132 121h287z" />
    <glyph glyph-name="uni092A094D" horiz-adv-x="221" 
d="M302 143q-44 -16 -108.5 -16t-102.5 33.5t-38 95.5v338h-77v56h325v-56h-183v-337q0 -70 90 -70q55 0 94 15v-59z" />
    <glyph glyph-name="uni092B094D" horiz-adv-x="431" 
d="M277 594h-159v-346q0 -71 89 -71q28 0 70 9v408zM340 594v-105q30 10 96 10q127 0 127 -126v-7h-62v6q0 35 -16 52t-65.5 17t-79.5 -9v-432h-63v128q-47 -10 -75 -10q-74 0 -111.5 33.5t-37.5 95.5v347h-77v56h597v-56h-233z" />
    <glyph glyph-name="uni092C094D" horiz-adv-x="222" 
d="M129 145.5q20 -18.5 68.5 -18.5t69 17t22.5 52l-180 140v-135q0 -37 20 -55.5zM199 448q-81 0 -89 -57l179 -139v122q0 38 -20.5 56t-69.5 18zM46 375q0 130 152.5 130t152.5 -130v-176q0 -129 -152.5 -129t-152.5 129v176zM355 650v-56h-379v56h379z" />
    <glyph glyph-name="uni092D094D" horiz-adv-x="405" 
d="M489 396v-56h-169v-158q0 -121 -136 -121q-71 0 -104 30t-33 91v95q0 60 32.5 89.5t104.5 29.5h72v131q0 34 -14 50.5t-55.5 16.5t-55.5 -16.5t-14 -50.5l4 -51h-65q-4 29 -4 52q0 127 134.5 127t134.5 -127v-132h168zM256 183v157h-72q-44 0 -58.5 -15t-14.5 -49v-93
q0 -33 14.5 -48.5t58.5 -15.5t58 15t14 49z" />
    <glyph glyph-name="uni092E094D" horiz-adv-x="374" 
d="M464 430v-56h-158v-192q0 -121 -136 -121q-71 0 -104 30t-33 91v129q0 60 32.5 89.5t104.5 29.5h73v164h-267v56h488v-56h-158v-164h158zM243 183v191h-73q-44 0 -58.5 -15t-14.5 -49v-127q0 -33 14.5 -48.5t58.5 -15.5t58.5 15.5t14.5 48.5z" />
    <glyph glyph-name="uni092F094D" horiz-adv-x="292" 
d="M183 524q0 44 -7 70h-200v56h402v-56h-138q7 -24 7 -70v-73q0 -117 -129 -119v-71q0 -59 32.5 -87t97 -28t134.5 14v-60q-69 -15 -131 -15q-197 0 -197 172v127h21q63 0 85.5 14.5t22.5 58.5v67z" />
    <glyph glyph-name="uni0930094D" horiz-adv-x="414" 
d="M291 524q0 40 -8 70h-307v56h464v-56h-91q7 -24 7 -70v-137q0 -130 -144 -130q-45 0 -87 14v-128q0 -88 111 -88q61 0 125 18v-61q-61 -17 -135.5 -17t-120 37.5t-45.5 109.5v308h65v-120q46 -14 83 -14q83 0 83 71v137zM346 -208h-71l-95 150h60z" />
    <glyph glyph-name="uni0932094D" horiz-adv-x="412" 
d="M413 420q-82 0 -82 -70v-143h-65v143q0 70 -75 70q-43 0 -59 -18.5t-16 -53.5v-193q0 -46 21.5 -71t80.5 -25q29 0 57 4v-58q-27 -5 -59 -5q-165 0 -165 154v195q0 62 34.5 96.5t108 34.5t104.5 -46q34 46 112 46q40 0 94 -18v-60q-46 18 -91 18zM505 650v-56h-529v56
h529z" />
    <glyph glyph-name="uni0933094D" horiz-adv-x="415" 
d="M-24 650h590v-56h-590v56zM52 125v233q0 129 137 129q79 0 110 -51q29 51 110 51q135 0 135 -130v-232q0 -130 -134 -130q-80 0 -111 51q-29 -51 -111 -51q-136 0 -136 130zM266 125v232q0 35 -17 54.5t-60.5 19.5t-59.5 -19.5t-16 -54.5v-232q0 -35 15.5 -54t59.5 -19
q78 0 78 73zM483 125v232q0 35 -16 54.5t-59.5 19.5t-60.5 -19.5t-17 -54.5v-232q0 -73 78 -73q44 0 59.5 19t15.5 54z" />
    <glyph glyph-name="uni0935094D" horiz-adv-x="223" 
d="M315 91q-44 -22 -117 -22t-112 34.5t-39 98.5v172q0 61 38.5 96t112.5 35q23 0 43 -2v-58q-12 2 -38 2q-92 0 -92 -74v-171q0 -75 94 -75q58 0 110 22v-58zM319 650v-56h-343v56h343z" />
    <glyph glyph-name="uni0936094D" horiz-adv-x="396" 
d="M360 524v-141q0 -129 -145 -129q-47 0 -86 14v-122q0 -44 29.5 -67t82.5 -23t116 18v-60q-58 -18 -128.5 -18t-117.5 40t-47 109v259h65v-77q42 -14 83 -14q83 0 83 71v139q0 71 -83 71t-83 -72q0 -28 3 -37h-65q-3 9 -3 39q0 62 37 96.5t111 34.5t111 -34.5t37 -96.5z
" />
    <glyph glyph-name="uni0937094D" horiz-adv-x="261" 
d="M211 174q80 0 112 34l-206 236v-192q0 -78 94 -78zM209 115q-80 0 -118.5 36t-38.5 99v344h-76v56h399v-56h-258v-81l250 -285v-60q-55 -53 -158 -53z" />
    <glyph glyph-name="uni0938094D" horiz-adv-x="384" 
d="M273 524q0 36 -9 70h-288v56h485v-56h-132q8 -24 8 -70v-141q0 -22 -4 -37h127v-57h-156q-36 -36 -110 -36q-38 0 -70 9v-119q0 -88 112 -88q58 0 122 18v-61q-61 -17 -134.5 -17t-119 37.5t-45.5 109.5v308h65v-129q34 -9 65 -9q84 0 84 71v141z" />
    <glyph glyph-name="uni0939094D" horiz-adv-x="362" 
d="M444 310v-57h-244q-87 0 -87 -65v-56q0 -79 107 -79q70 0 136 11v-57q-62 -12 -138 -12q-170 0 -170 135v57q0 69 54 94q-51 23 -52 91v14q0 119 144 119h87v89h-305v56h468v-56h-98v-148h-152q-45 0 -62 -15.5t-17 -46.5v-12q0 -31 18 -46.5t64 -15.5h247z" />
    <glyph glyph-name="uni0915093C094D" horiz-adv-x="400" 
d="M123 -71q-42 0 -42 41.5t42 41.5t42 -41.5t-42 -41.5zM473 356v21q0 35 -15.5 52t-59 17t-73.5 -9v-437h-64v78q-40 -10 -74 -10q-141 0 -141 125v186q0 125 141 125q18 0 30 -3v-57q-16 2 -26 2q-82 0 -82 -68v-184q0 -68 82 -68q34 0 70 9v459h-285v56h583v-56h-234
v-100q29 10 75 10q74 0 104 -32.5t30 -93.5v-22h-61z" />
    <glyph glyph-name="uni0916093C094D" horiz-adv-x="527" 
d="M380 252v124q0 62 33 93.5t105 31.5t105 -31.5t33 -93.5v-124q0 -67 -32 -96t-106 -29t-106 29t-32 96zM594 252v124q0 34 -16 51t-60 17t-60 -17t-16 -51v-124q0 -34 16 -51t60 -17t60 17t16 51zM260 524q0 42 -13 70h-271v56h678v-56h-343q11 -24 11 -70v-121
q0 -145 -145 -145q-34 0 -67 7v-88q0 -121 163 -121q76 0 138 18v-62q-62 -16 -153 -16t-151.5 43.5t-60.5 136.5v266h64v-119q36 -6 65 -6q85 0 85 86v121zM35 -23q42 0 42 -42t-42 -42t-42 42t42 42z" />
    <glyph glyph-name="uni0917093C094D" horiz-adv-x="253" 
d="M46 67q0 42 42 42t42 -42t-42 -42t-42 42zM29 255l28 -2q70 0 70 69v272h-151v56h302v-56h-86v-275q0 -58 -32 -92.5t-95 -34.5q-27 0 -36 3v60z" />
    <glyph glyph-name="uni091C093C094D" horiz-adv-x="341" 
d="M216 354q0 42 -9 69h-110v59h325v-57h-149q8 -24 8 -69v-177q0 -66 -40 -101.5t-115 -35.5q-48 0 -93 12v60q48 -12 92 -12q91 0 91 78v174zM421 650v-56h-445v56h445zM85 -107q-42 0 -42 41.5t42 41.5t42 -41.5t-42 -41.5z" />
    <glyph glyph-name="uni0928093C094D" horiz-adv-x="376" 
d="M186 420q-39 0 -54 -15.5t-15 -47.5v-173q0 -32 15 -48t54 -16t54 15.5t15 48.5v164q0 48 -12 72h-57zM472 479v-59h-165q11 -39 11 -71v-166q0 -122 -132.5 -122t-132.5 122v175q0 121 133 121h286zM-11 -28q0 42 41.5 42t41.5 -42t-41.5 -42t-41.5 42zM473 650v-56
h-497v56h497z" />
    <glyph glyph-name="uni092B093C094D" horiz-adv-x="429" 
d="M277 594h-159v-346q0 -71 89 -71q28 0 70 9v408zM340 594v-105q30 10 96 10q127 0 127 -126v-7h-62v6q0 35 -16 52t-65.5 17t-79.5 -9v-432h-63v128q-47 -10 -75 -10q-74 0 -111.5 33.5t-37.5 95.5v347h-77v56h597v-56h-233zM30 9q0 42 42 42t42 -42t-42 -42t-42 42z" />
    <glyph glyph-name="uni092F093C094D" horiz-adv-x="298" 
d="M183 524q0 44 -7 70h-200v56h402v-56h-138q7 -24 7 -70v-73q0 -117 -129 -119v-71q0 -59 32.5 -87t97 -28t134.5 14v-60q-69 -15 -131 -15q-197 0 -197 172v127h21q63 0 85.5 14.5t22.5 58.5v67zM48 -3q0 42 41.5 42t41.5 -42t-41.5 -42t-41.5 42z" />
    <glyph glyph-name="itfStar" horiz-adv-x="672" 
d="M686 472l-233 -150q33 -81 100 -264l-218 180q-30 -22 -219 -180l102 264q-17 10 -121 77t-114 73l278 -9q46 174 74 264l71 -264q25 2 139 5.5t141 3.5z" />
    <glyph glyph-name="uni09080902" horiz-adv-x="399" 
d="M369 839q-81 0 -81 -73q0 -48 37 -116h97v-56h-92v-148h-143q-46 0 -63.5 -16t-17.5 -48v-5q0 -32 18 -48t63 -16h23q148 0 148 -123v-39q0 -63 -37 -94t-117 -31q-51 0 -91 9v-100h-62v236h62v-78q40 -7 86 -7q94 0 94 66v37q0 33 -18 49.5t-65 16.5h-23
q-146 0 -146 121v7q0 121 146 121h78v90h-289v56h284q-37 66 -37 126.5t38 90t96 29.5q21 0 48 -5v-55q-17 3 -36 3zM355 745q0 38 37.5 38t37.5 -38t-37.5 -38t-37.5 38z" />
    <glyph glyph-name="uni09300941" horiz-adv-x="586" 
d="M349 594q7 -40 7 -68v-102q22 24 65 24h5q129 0 129 -125v-84q0 -60 -34 -93.5t-100 -33.5h-14v60h11q41 0 56.5 17t15.5 50v78q0 37 -17 54t-53 17h-3q-28 0 -45 -14.5t-32 -44.5q-30 -62 -128 -62q-45 0 -87 14v-138q0 -88 111 -88q60 0 122 16v-60q-57 -16 -132 -16
t-120.5 37.5t-45.5 109.5v324h65v-126q46 -14 83 -14q83 0 83 71v127q0 40 -8 70h-307v56h634v-56h-261z" />
    <glyph glyph-name="uni09300942" horiz-adv-x="617" 
d="M291 524q0 40 -8 70h-307v56h665v-56h-292q7 -24 7 -70v-76q35 19 94.5 19t96 -34t36.5 -95v-111q0 -60 -34 -93.5t-100 -33.5h-36v60h32q42 0 57.5 16.5t15.5 50.5v107q0 73 -80.5 73t-80.5 -81q0 -43 5 -88h-65q0 1 -1.5 18.5t-2.5 30.5q-31 -15 -78.5 -15t-89.5 14
v-143q0 -88 111 -88q61 0 125 18v-61q-61 -17 -135.5 -17t-120 37.5t-45.5 109.5v323h65v-120q46 -14 83 -14q83 0 83 71v122z" />
    <glyph glyph-name="uni09390941" horiz-adv-x="420" 
d="M273 -5h-53q-172 -1 -172 135v57q0 69 54 94q-51 23 -52 91v14q0 119 144 119h87v89h-305v56h468v-56h-98v-148h-152q-45 0 -62 -15.5t-17 -46.5v-12q0 -31 18 -46.5t64 -15.5h47q66 0 96.5 -29.5t30.5 -89.5v-30h-62v28q0 34 -13 49t-56 15h-40q-87 0 -87 -65v-56
q0 -79 107 -79h58q64 0 92 -27.5t28 -90t-28.5 -90t-94.5 -27.5h-84q-70 0 -122 56l-93 95h84l53 -53q40 -40 82 -40h74q41 0 53.5 13.5t12.5 45.5t-12 46t-50 14z" />
    <glyph glyph-name="uni09390942" horiz-adv-x="418" 
d="M235 -5h-28q-38 0 -49.5 -13.5t-11.5 -44t11.5 -44t47.5 -13.5l86 1v-58l-89 -1q-64 0 -91 27.5t-27 87.5t36 82q-73 26 -73 111v57q0 69 54 94q-52 24 -52 91v14q0 119 144 119h87v89h-304v56h466v-56h-97v-148h-152q-45 0 -62 -15t-17 -47v-12q0 -31 18 -46.5t63 -15.5
h48q66 0 96 -29.5t30 -89.5v-30h-61v28q0 34 -13 49t-56 15h-40q-87 0 -87 -65v-56q0 -79 107 -79h19q50 0 79.5 -14.5t58.5 -49.5l134 -163h-79l-93 115q-27 32 -46.5 43t-56.5 11z" />
    <glyph glyph-name="uni09260943" horiz-adv-x="404" 
d="M331 442h-139q-47 0 -65.5 -17t-18.5 -50v-106q0 -75 94 -75q39 0 82 10v90h62v-272q-38 6 -75 6t-57 -13.5t-20 -58.5t21.5 -58t57 -13t77.5 5v-62q-35 -6 -74 -6q-144 0 -144 134t137 134h15v55q-37 -10 -87 -10q-73 0 -113.5 35t-40.5 98v108q0 126 149 126h74v92
h-290v56h452v-56h-97v-152z" />
    <glyph glyph-name="uni09390943" horiz-adv-x="467" 
d="M111 202v-214q0 -87 123 -87q70 0 125 16v-55q-46 -17 -130.5 -17t-132.5 37.5t-48 104.5v216q0 66 53 89q-50 23 -50 90v4q0 119 143 119h132v89h-350v56h515v-56h-100v-148h-198q-45 0 -61.5 -15t-16.5 -47v-1q0 -32 17.5 -47t63.5 -15h125q62 0 91.5 -23.5t29.5 -77.5
t-29.5 -77.5t-91.5 -23.5h-7q-32 0 -46 -8.5t-14 -36t18.5 -36t69 -8.5t108.5 13v-55q-57 -15 -122 -15t-100.5 22t-35.5 79t30.5 79.5t91.5 22.5h5q33 0 47 8.5t14 35.5t-14 36t-47 9h-123q-85 0 -85 -63z" />
    <glyph glyph-name="uni094D0930" horiz-adv-x="0" 
d="M-69 -143h-69l-77 149l-76 -149h-69l83 154h124z" />
    <glyph glyph-name="uni0930094D.1" horiz-adv-x="247" 
d="M360 329v-57h-170q-88 0 -129 20t-41 83v4h62q0 -37 26 -44q24 -6 82 -6h170zM-24 594v56h384v-56h-384z" />
    <glyph glyph-name="uni0930094D.2" horiz-adv-x="0" 
d="M-137 650q-37 35 -37 98.5t39.5 93t104.5 29.5l19 -1v-58h-11q-90 0 -90 -76q0 -24 9 -45.5t19 -30.5l9 -10h-62z" />
    <glyph glyph-name="uni0930094D0902" horiz-adv-x="0" 
d="M-12 701q-38 0 -38 37.5t38 37.5t38 -37.5t-38 -37.5zM-134 650q-39 45 -39 113t41 98t108 30l19 -1v-58h-12q-94 0 -94 -81q0 -25 10 -50.5t29 -50.5h-62z" />
    <glyph glyph-name="uni0930094D.aMatraI" horiz-adv-x="0" 
d="M0 676h-44v60q0 124 130 124h15v-59q-6 1 -12 1q-89 0 -89 -77v-49z" />
    <glyph glyph-name="uni0902.aMatraI" horiz-adv-x="0" 
d="M20 755q0 42 42 42t42 -42t-42 -42t-42 42z" />
    <glyph glyph-name="uni0930094D0902.aMatraI" horiz-adv-x="0" 
d="M83.5 757q37.5 0 37.5 -37.5t-37.5 -37.5t-37.5 37.5t37.5 37.5zM-44 676v67q0 124 130 124q11 0 15 -1v-59q-4 1 -12 1q-89 0 -89 -76v-56h-44z" />
    <glyph glyph-name="uni09400930094D" 
d="M137 650h96v-56h-96v-594h-65v594h-96v56h96v106q0 32 -14.5 48t-52.5 16h-3q-38 0 -52.5 -16t-14.5 -48v-41h-64v42q0 123 127 123h2q76 0 106 -44q28 45 105 45l11 -1v-58h-6q-40 0 -59.5 -16.5t-19.5 -59.5v-96z" />
    <glyph glyph-name="uni09400902" 
d="M212 767q0 42 42 42t42 -42t-42 -42t-42 42zM72 650v106q0 32 -14.5 48t-52.5 16h-3q-38 0 -52.5 -16t-14.5 -48v-41h-64v42q0 123 131 123h3q132 0 132 -123v-107h96v-56h-96v-594h-65v594h-96v56h96z" />
    <glyph glyph-name="uni09400930094D0902" 
d="M238.5 776q37.5 0 37.5 -37.5t-37.5 -37.5t-37.5 37.5t37.5 37.5zM137 748v-98h96v-56h-96v-594h-65v594h-96v56h96v106q0 32 -14.5 48t-52.5 16h-3q-38 0 -52.5 -16t-14.5 -48v-41h-64v42q0 123 127 123h2q74 0 104 -41q27 52 113 52l14 -1v-58h-8q-45 0 -65.5 -18.5
t-20.5 -65.5z" />
    <glyph glyph-name="uni0940.aLong" 
d="M137 689v-39h96v-56h-96v-594h-65v594h-96v56h96v39q0 68 -35 99t-121 31h-21q-76 0 -111.5 -24.5t-35.5 -79.5h-65v4q1 160 211 160h26q106 0 161.5 -43.5t55.5 -146.5z" />
    <glyph glyph-name="uni09400930094D.aLong" 
d="M137 650h96v-56h-96v-594h-65v594h-96v56h96v39q0 68 -35 99t-121 31h-21q-76 0 -111.5 -24.5t-35.5 -79.5h-65v4q1 160 211 160h26q129 0 176 -66q20 68 115 68l11 -1v-58h-6q-40 0 -59.5 -16.5t-19.5 -59.5v-96z" />
    <glyph glyph-name="uni09400902.aLong" 
d="M212 769q0 42 42 42t42 -42t-42 -42t-42 42zM137 689v-39h96v-56h-96v-594h-65v594h-96v56h96v39q0 68 -35 99t-121 31h-21q-76 0 -111.5 -24.5t-35.5 -79.5h-65v4q1 160 211 160h26q106 0 161.5 -43.5t55.5 -146.5z" />
    <glyph glyph-name="uni09400930094D0902.aLong" 
d="M238 776q38 0 38 -37.5t-38 -37.5t-38 37.5t38 37.5zM137 748v-98h96v-56h-96v-594h-65v594h-96v56h96v39q0 68 -35 99t-121 31h-21q-76 0 -111.5 -24.5t-35.5 -79.5h-65v4q1 160 211 160h26q128 0 174 -64q22 76 123 76l14 -1v-58h-8q-45 0 -65.5 -18.5t-20.5 -65.5z
" />
    <glyph glyph-name="uni09470930094D" horiz-adv-x="0" 
d="M-13 822h-6q-79 0 -79 -76q0 -48 20 -84l6 -12h-68l-86 133q-26 39 -67 39q-10 0 -26 -2v57q18 2 43 2q52 0 94 -65l31 -48q2 57 35.5 86t91.5 29l11 -1v-58z" />
    <glyph glyph-name="uni09470902" horiz-adv-x="0" 
d="M-56 766q0 42 42 42t42 -42t-42 -42t-42 42zM-320 877q18 2 43 2q56 0 98 -65l106 -164h-68l-86 133q-26 39 -67 39q-10 0 -26 -2v57z" />
    <glyph glyph-name="uni09470901" horiz-adv-x="0" 
d="M184 835h62v-2q0 -65 -39.5 -93t-120.5 -28t-120.5 28t-39.5 93v2h62q0 -37 22 -51.5t76 -14.5t76 14.5t22 51.5zM46 872q0 41 40.5 41t40.5 -41t-40.5 -41t-40.5 41zM-319 877q18 2 43 2q56 0 98 -65l106 -164h-68l-86 133q-26 39 -67 39q-10 0 -26 -2v57z" />
    <glyph glyph-name="uni09470930094D0902" horiz-adv-x="0" 
d="M-2 776q38 0 38 -37.5t-38 -37.5t-38 37.5t38 37.5zM-15 832q-85 0 -85 -82q0 -25 7 -50t21 -50h-68l-86 133q-26 39 -67 39q-10 0 -26 -2v57q18 2 43 2q52 0 94 -65l30 -46q1 60 36 91.5t96 31.5l15 -1v-59q-6 1 -10 1z" />
    <glyph glyph-name="uni09480930094D" horiz-adv-x="0" 
d="M-122 764q0 117 115 117l14 -1v-58h-8q-82 0 -82 -76q0 -52 11 -96h-60l-49 125q-10 25 -19.5 36t-23.5 11t-26 -2v57q16 2 28 2q34 0 52.5 -17t32.5 -58l15 -44v4zM-412 877q16 2 41 2q51 0 97 -68l107 -161h-65l-87 133q-26 39 -67 39q-12 0 -26 -2v57z" />
    <glyph glyph-name="uni09480902" horiz-adv-x="0" 
d="M-39 756q0 42 42 42t42 -42t-42 -42t-42 42zM-206 879q69 0 92 -75l47 -154h-59l-39 125q-8 25 -17 36t-23.5 11t-28.5 -2v57q16 2 28 2zM-407 877q16 2 41 2q55 0 99 -68l107 -161h-67l-87 133q-26 39 -67 39q-12 0 -26 -2v57z" />
    <glyph glyph-name="uni09480901" horiz-adv-x="0" 
d="M216 835h62v-2q0 -65 -39.5 -93t-120.5 -28t-120.5 28t-39.5 93v2h62q0 -37 22 -51.5t76 -14.5t76 14.5t22 51.5zM78 872q0 41 40.5 41t40.5 -41t-40.5 -41t-40.5 41zM-211 879q69 0 92 -75l47 -154h-59l-39 125q-8 25 -17 36t-23.5 11t-28.5 -2v57q16 2 28 2zM-412 877
q16 2 41 2q55 0 99 -68l107 -161h-67l-87 133q-26 39 -67 39q-12 0 -26 -2v57z" />
    <glyph glyph-name="uni09480930094D0902" horiz-adv-x="0" 
d="M-3.5 776q37.5 0 37.5 -37.5t-37.5 -37.5t-37.5 37.5t37.5 37.5zM11 832h-8q-86 0 -86 -84q0 -52 11 -98h-62q-54 140 -59 149q-14 23 -36 23q-9 0 -23 -2v57q16 2 29 2q34 0 52 -17t33 -58l14 -40q0 127 121 127l14 -1v-58zM-414 877q18 2 42 2q50 0 96 -68l107 -161
h-64l-88 133q-26 39 -67 39q-10 0 -26 -2v57z" />
    <glyph glyph-name="uni094A0902" 
d="M164 769q0 42 42 42t42 -42t-42 -42t-42 42zM72 594h-96v56h97q0 42 -21 64.5t-76 22.5q-83 0 -120.5 35t-37.5 107h62q0 -43 20.5 -65t76.5 -22q82 0 120 -35.5t38 -106.5h98v-56h-96v-594h-65v594z" />
    <glyph glyph-name="uni094B0930094D" 
d="M233 650v-56h-96v-594h-65v594h-96v56h90l-86 133q-26 39 -67 39q-12 0 -26 -2v57q16 2 41.5 2t48.5 -14t47 -51l34 -53q1 60 34 90t93 30l11 -1v-58h-6q-79 0 -79 -76q0 -48 19 -84l7 -12h96z" />
    <glyph glyph-name="uni094B0902" 
d="M233 650v-56h-96v-594h-65v594h-96v56h92l-86 133q-26 39 -67 39q-10 0 -26 -2v57q18 2 43 2q56 0 98 -65l106 -164h97zM192 727q-42 0 -42 42t42 42t42 -42t-42 -42z" />
    <glyph glyph-name="uni094B0930094D0902" 
d="M207 776q38 0 38 -37.5t-38 -37.5t-38 37.5t38 37.5zM194 832q-85 0 -85 -82q0 -25 7 -50t21 -50h96v-56h-96v-594h-65v594h-96v56h89l-86 133q-26 39 -67 39q-12 0 -26 -2v57q16 2 41.5 2t48.5 -14t47 -51l34 -53v4q0 62 35 94t97 32l15 -1v-59q-6 1 -10 1z" />
    <glyph glyph-name="uni094C0930094D" 
d="M233 650v-56h-96v-594h-65v594h-146v56h52l-88 133q-26 39 -67 39q-12 0 -26 -2v57q16 2 41 2q51 0 97 -68l107 -161h35l-49 125q-10 25 -19 36t-22.5 11t-27.5 -2v57q16 2 29 2q34 0 52 -17t33 -58l13 -39q0 116 116 116l14 -1v-58h-8q-82 0 -82 -76q0 -43 11 -96h96z
" />
    <glyph glyph-name="uni094C0902" 
d="M216 801q42 0 42 -42t-42 -42t-42 42t42 42zM233 650v-56h-96v-594h-65v594h-140v56h43l-88 133q-26 39 -67 39q-12 0 -26 -2v57q16 2 42 2q52 0 98 -68l107 -161h34l-38 125q-8 25 -17.5 36t-24 11t-28.5 -2v57q16 2 29 2q69 0 92 -75l46 -154h99z" />
    <glyph glyph-name="uni094C0930094D0902" 
d="M206 776q38 0 38 -37.5t-38 -37.5t-38 37.5t38 37.5zM220 832h-8q-86 0 -86 -84q0 -43 11 -98h96v-56h-96v-594h-65v594h-146v56h51l-87 133q-27 39 -67 39q-12 0 -26 -2v57q16 2 41 2q51 0 97 -68l107 -161h33l-49 125q-10 25 -19.5 36t-23.5 11t-26 -2v57q16 2 28 2
q34 0 52.5 -17t32.5 -58l14 -40q0 61 31 94t92 33l13 -1v-58z" />
    <glyph glyph-name="uni0915094D0937" horiz-adv-x="602" 
d="M286 460v69q0 34 -14.5 50.5t-55 16.5t-55 -17t-14.5 -50v-69q0 -33 14.5 -50t55 -17t55 16.5t14.5 50.5zM349 529v-65q0 -50 -20 -71h136v257h161v-56h-96v-594h-65v337h-261q-42 0 -57 -18t-15 -53v-89q0 -67 76 -67q40 0 66 8v114h62v-232h-62v59q-38 -8 -70 -8
q-137 0 -137 127v93q0 76 58 99q-43 22 -43 94v65q0 126 133.5 126t133.5 -126z" />
    <glyph glyph-name="uni0915094D0937094D" horiz-adv-x="390" 
d="M286 460v69q0 34 -14.5 50.5t-55 16.5t-55 -17t-14.5 -50v-69q0 -33 14.5 -50t55 -17t55 16.5t14.5 50.5zM508 393v-56h-304q-42 0 -57 -18t-15 -53v-89q0 -67 76 -67q40 0 66 8v114h62v-232h-62v59q-38 -8 -70 -8q-137 0 -137 127v93q0 76 58 99q-43 22 -43 94v65
q0 126 133.5 126t133.5 -126v-65q0 -50 -20 -71h179z" />
    <glyph glyph-name="uni0915094D0937094D092E" horiz-adv-x="991" 
d="M419 650h596v-56h-96v-594h-64v374h-128v-192q0 -61 -33 -91t-104 -30t-104 30t-33 91v129q0 10 2 26h-251q-42 0 -57 -18t-15 -53v-89q0 -67 76 -67q40 0 66 8v114h62v-232h-62v59q-38 -8 -70 -8q-137 0 -137 127v93q0 76 58 99q-43 22 -43 94v65q0 126 133.5 126
t133.5 -126v-65q0 -50 -20 -71h149q33 37 112 37h73v164h-244v56zM286 460v69q0 34 -14.5 50.5t-55 16.5t-55 -17t-14.5 -50v-69q0 -33 14.5 -50t55 -17t55 16.5t14.5 50.5zM663 183v191h-73q-44 0 -58.5 -15t-14.5 -49v-127q0 -33 14.5 -48.5t58.5 -15.5t58.5 15.5
t14.5 48.5zM855 430v164h-128v-164h128z" />
    <glyph glyph-name="uni0915094D0937094D092E094D" horiz-adv-x="794" 
d="M885 594h-158v-164h158v-56h-158v-192q0 -61 -33 -91t-104 -30t-104 30t-33 91v129q0 10 2 26h-251q-42 0 -57 -18t-15 -53v-89q0 -67 76 -67q40 0 66 8v114h62v-232h-62v59q-38 -8 -70 -8q-137 0 -137 127v93q0 76 58 99q-43 22 -43 94v65q0 126 133.5 126t133.5 -126
v-65q0 -50 -20 -71h149q33 37 112 37h73v164h-252v56h474v-56zM286 460v69q0 34 -14.5 50.5t-55 16.5t-55 -17t-14.5 -50v-69q0 -33 14.5 -50t55 -17t55 16.5t14.5 50.5zM663 183v191h-73q-44 0 -58.5 -15t-14.5 -49v-127q0 -33 14.5 -48.5t58.5 -15.5t58.5 15.5t14.5 48.5z
" />
    <glyph glyph-name="uni0915094D0937094D092E094D092F" horiz-adv-x="1295" 
d="M1319 650v-56h-96v-594h-65v97q-48 -12 -111 -12q-197 0 -197 172v67q0 31 -12.5 40.5t-46.5 9.5h-68v-192q0 -61 -33 -91t-104 -30t-103.5 30t-32.5 91v129q0 10 2 26h-248q-42 0 -57 -18t-15 -53v-89q0 -67 76 -67q40 0 66 8v114h62v-232h-62v59q-38 -8 -70 -8
q-137 0 -137 127v93q0 76 58 99q-43 22 -43 94v65q0 126 133.5 126t133.5 -126v-65q0 -50 -20 -71h146q31 37 111 37h73v164h-245v56h905zM286 460v69q0 34 -14.5 50.5t-55 16.5t-55 -17t-14.5 -50v-69q0 -33 14.5 -50t55 -17t55 16.5t14.5 50.5zM659 183v191h-73
q-44 0 -58.5 -15t-14.5 -49v-127q0 -33 14.5 -48.5t58.5 -15.5t58.5 15.5t14.5 48.5zM979 524q0 44 -7 70h-249v-164h78q78 0 100 -45q44 3 61 18.5t17 53.5v67zM1158 594h-122q7 -24 7 -70v-73q0 -117 -129 -119v-71q0 -59 32.5 -87t93.5 -28t118 11v437z" />
    <glyph glyph-name="uni0915094D0937094D092F" horiz-adv-x="919" 
d="M604 524q0 40 -8 70h-185v56h532v-56h-96v-594h-65v97q-46 -12 -110 -12q-198 0 -198 172v80h-270q-42 0 -57 -18t-15 -53v-89q0 -67 76 -67q40 0 66 8v114h62v-232h-62v59q-38 -8 -70 -8q-137 0 -137 127v93q0 76 58 99q-43 22 -43 94v65q0 126 133.5 126t133.5 -126
v-65q0 -50 -20 -71h179v-1q55 2 75.5 17t20.5 56v59zM286 460v69q0 34 -14.5 50.5t-55 16.5t-55 -17t-14.5 -50v-69q0 -33 14.5 -50t55 -17t55 16.5t14.5 50.5zM782 594h-122q8 -24 8 -70v-65q0 -116 -129 -118v-80q0 -59 32 -87t94 -28t117 11v437z" />
    <glyph glyph-name="uni0915094D0937094D0935" horiz-adv-x="846" 
d="M411 650h460v-56h-97v-594h-65v82q-33 -13 -92 -13q-149 0 -149 133v135h-264q-42 0 -57 -18t-15 -53v-89q0 -67 76 -67q40 0 66 8v114h62v-232h-62v59q-38 -8 -70 -8q-137 0 -137 127v93q0 76 58 99q-43 22 -43 94v65q0 126 133.5 126t133.5 -126v-65q0 -50 -20 -71h140
q5 53 42.5 82.5t97.5 29.5t100 -12v101h-298v56zM286 460v69q0 34 -14.5 50.5t-55 16.5t-55 -17t-14.5 -50v-69q0 -33 14.5 -50t55 -17t55 16.5t14.5 50.5zM623 447q-91 0 -91 -74v-171q0 -75 91 -75q59 0 88 13v295q-30 12 -88 12z" />
    <glyph glyph-name="uni091C094D091E" horiz-adv-x="604" 
d="M-24 650h652v-56h-96v-594h-65v425h-142q8 -32 8 -77v-128q0 -62 -34 -95t-100 -33q-39 0 -81 10v-102h-64v283h64v-122q36 -9 77.5 -9t57.5 18t16 52v126q0 47 -10 77h-119v57h327v112h-491v56z" />
    <glyph glyph-name="uni091C094D091E094D" horiz-adv-x="394" 
d="M-24 650h523v-56h-523v56zM140 425v57h359v-57h-174q8 -32 8 -77v-128q0 -62 -34 -95t-100 -33q-39 0 -81 10v-102h-64v283h64v-122q36 -9 77.5 -9t57.5 18t16 52v126q0 47 -10 77h-119z" />
    <glyph glyph-name="uni091C094D091E094D092F" horiz-adv-x="904" 
d="M928 650v-56h-96v-594h-65v124q-32 -39 -122 -39q-186 0 -186 172v115q0 33 -17 43t-63 10h-54q8 -32 8 -77v-128q0 -62 -34 -95t-100 -33q-39 0 -81 10v-102h-64v283h64v-122q36 -9 77.5 -9t57.5 18t16 52v126q0 47 -10 77h-119v57h245q126 0 130 -81q42 4 58 19t16 52
v52q0 34 -15.5 52t-54.5 18h-543v56h952zM767 594h-141q27 -14 27 -70v-58q0 -116 -129 -118v-87q0 -61 27 -88t93 -27t92.5 23.5t30.5 77.5v347z" />
    <glyph glyph-name="uni0915094D0928" horiz-adv-x="999" 
d="M1024 650v-56h-97v-594h-65v420h-136q4 -4 8 -27.5t4 -43.5v-166q0 -122 -132.5 -122t-132.5 122v194q0 35 -16.5 52t-60 17t-71.5 -9v-437h-64v78q-40 -10 -74 -10q-141 0 -141 125v186q0 125 141 125q19 0 29 -3v-57q-14 2 -25 2q-82 0 -82 -68v-184q0 -68 82 -68
q34 0 70 9v459h-285v56h1048zM675 184v164q0 48 -12 72h-58q-38 0 -53.5 -15.5t-15.5 -47.5v-173q0 -32 15.5 -48t54 -16t54 16t15.5 48zM862 479v115h-537v-100q30 10 73 10q86 0 117 -47q32 22 90 22h257z" />
    <glyph glyph-name="uni0916094D0928" horiz-adv-x="1121" 
d="M260 524q0 42 -13 70h-271v56h1170v-56h-97v-594h-65v420h-136q4 -4 8 -27.5t4 -43.5v-166q0 -122 -133 -122q-107 0 -127 81q-32 -15 -94 -15t-94 29t-32 96v124q0 62 33 93.5t112 31.5t109 -47q32 25 93 25h257v115h-673q11 -24 11 -70v-121q0 -145 -145 -145
q-34 0 -67 7v-88q0 -121 163 -121q76 0 138 18v-62q-62 -16 -153 -16t-151.5 43.5t-60.5 136.5v266h64v-119q36 -6 65 -6q85 0 85 86v121zM594 252v124q0 34 -16 51t-60 17t-60 -17t-16 -51v-124q0 -34 16 -51t60 -17t60 17t16 51zM797 184v164q0 48 -12 72h-58
q-38 0 -53.5 -15.5t-15.5 -47.5v-173q0 -32 15.5 -48t54 -16t54 16t15.5 48z" />
    <glyph glyph-name="uni0917094D0928" horiz-adv-x="835" 
d="M29 255l28 -2q70 0 70 69v272h-151v56h883v-56h-97v-594h-65v420h-136q4 -4 8 -27.5t4 -43.5v-166q0 -122 -132.5 -122t-132.5 122v175q0 121 132 121h257v115h-505v-275q0 -58 -32 -92.5t-95 -34.5q-27 0 -36 3v60zM510 184v164q0 48 -12 72h-58q-38 0 -53.5 -15.5
t-15.5 -47.5v-173q0 -32 15.5 -48t54 -16t54 16t15.5 48z" />
    <glyph glyph-name="uni0918094D0928" horiz-adv-x="873" 
d="M69 524q0 44 7 70h-100v56h921v-56h-97v-594h-65v420h-136q4 -4 8 -27.5t4 -43.5v-166q0 -122 -133 -122q-57 0 -89 23q-72 -21 -150 -21t-127 36.5t-49 110.5v51q0 79 59 96q-53 21 -53 97v70zM548 184v164q0 48 -12 72h-58q-38 0 -53.5 -15.5t-15.5 -47.5v-173
q0 -32 15.5 -48t54 -16t54 16t15.5 48zM735 479v115h-593q-8 -25 -8 -70v-69q0 -33 17 -50t63 -17h35v-61h-37q-47 0 -65.5 -17t-18.5 -50v-46q0 -50 30.5 -71t84 -21t110.5 11q-7 21 -7 50v175q0 121 132 121h257z" />
    <glyph glyph-name="uni091A094D0928" horiz-adv-x="854" 
d="M81 338q0 44 9 85h-86v59h259v-57h-107q-10 -29 -10 -87v-143q0 -74 91 -74q44 0 98 13q-7 21 -7 49v175q0 121 132 121h257v115h-749v56h911v-56h-97v-594h-65v420h-136q4 -4 8 -27.5t4 -43.5v-166q0 -122 -133 -122q-59 0 -92 24q-71 -23 -140.5 -23t-108 34t-38.5 98
v144zM530 184v164q0 48 -12 72h-58q-38 0 -53.5 -15.5t-15.5 -47.5v-173q0 -32 15.5 -48t54 -16t54 16t15.5 48z" />
    <glyph glyph-name="uni091B094D0928" horiz-adv-x="507" 
d="M531 594h-153v-92q73 -19 73 -116v-161q0 -53 -18 -84v-386h-60v201h-83q7 -28 7 -62q0 -59 -28 -88.5t-90 -29.5t-90.5 29.5t-28.5 89t28 88t91 28.5h194v82q-42 -16 -132.5 -16t-136 33t-45.5 112v10q0 77 60 94q-55 20 -55 97v99q0 53 29 72h-117v56h555v-56zM179 -43
q-38 0 -49 -14.5t-11 -48.5t11 -48.5t49 -14.5t49 14.5t11 50.5t-7 61h-53zM256 501q27 9 62 9v84h-117q-37 0 -54.5 -17t-17.5 -55v-98q0 -34 17 -50.5t64 -17.5h53v-58h-52q-48 0 -67.5 -17t-19.5 -52v-5q0 -52 26.5 -70t105 -18t105 19t26.5 71v154q0 38 -16 55.5
t-52.5 17.5t-62.5 -10v58z" />
    <glyph glyph-name="uni091C094D0928" horiz-adv-x="938" 
d="M216 354q0 42 -9 69h-110v59h238q75 0 107 -35q32 32 101 32h257v115h-824v56h986v-56h-97v-594h-65v420h-136q4 -4 8 -27.5t4 -43.5v-166q0 -122 -132.5 -122t-132.5 122v175q0 18 3 35q-14 32 -76 32h-65q8 -24 8 -69v-177q0 -66 -40 -101.5t-115 -35.5q-48 0 -93 12
v60q48 -12 92 -12q91 0 91 78v174zM613 184v164q0 48 -12 72h-58q-38 0 -53.5 -15.5t-15.5 -47.5v-173q0 -32 15.5 -48t54 -16t54 16t15.5 48z" />
    <glyph glyph-name="uni091D094D0928" horiz-adv-x="992" 
d="M1017 650v-56h-97v-594h-65v420h-136q4 -4 8 -27.5t4 -43.5v-166q0 -122 -132.5 -122t-132.5 122v75h-147q28 -21 28 -70v-46q0 -64 -33.5 -93.5t-110.5 -29.5q-47 0 -85 9v-88h-62v217h62v-70q37 -10 82 -10t63.5 17t18.5 50v45q0 32 -18 49t-62 17h-5q-148 0 -148 121
v8q0 121 149 121h82v89h-304v56h1041zM668 184v164q0 48 -12 72h-58q-38 0 -53.5 -15.5t-15.5 -47.5v-173q0 -32 15.5 -48t54 -16t54 16t15.5 48zM855 479v115h-510v-148h-147q-47 0 -65 -15.5t-19 -46.5v-6q0 -33 17.5 -49t63.5 -16h271v45q0 121 132 121h257z" />
    <glyph glyph-name="uni091F094D0928" horiz-adv-x="963" 
d="M987 650v-56h-97v-594h-65v420h-136q4 -4 8 -27.5t4 -43.5v-166q0 -122 -132.5 -122t-132.5 122v175q0 121 132 121h257v115h-499v-153h-118q-48 0 -68 -18t-20 -53v-230q0 -84 107 -84q57 0 116 16v-60q-52 -16 -125 -16t-118 37.5t-45 105.5v233q0 129 149 129h57v93
h-285v56h1011zM638 184v164q0 48 -12 72h-58q-38 0 -53.5 -15.5t-15.5 -47.5v-173q0 -32 15.5 -48t54 -16t54 16t15.5 48zM175 -58h60l106 -150h-71z" />
    <glyph glyph-name="uni0920094D0928" horiz-adv-x="980" 
d="M1005 650v-56h-97v-594h-65v420h-136q4 -4 8 -27.5t4 -43.5v-166q0 -122 -132.5 -122t-132.5 122v175q0 121 132 121h257v115h-608v-88q116 -13 116 -127v-253q0 -62 -37 -96.5t-111 -34.5t-111 34.5t-37 96.5v253q0 114 115 127v88h-194v56h1029zM287 125v253
q0 34 -18.5 53t-65.5 19t-65.5 -19t-18.5 -53v-253q0 -72 84 -72t84 72zM656 184v164q0 48 -12 72h-58q-38 0 -53.5 -15.5t-15.5 -47.5v-173q0 -32 15.5 -48t54 -16t54 16t15.5 48zM178 -58h60l106 -150h-71z" />
    <glyph glyph-name="uni0921094D0928" horiz-adv-x="982" 
d="M1007 650v-56h-97v-594h-65v420h-136q4 -4 8 -27.5t4 -43.5v-166q0 -122 -132.5 -122t-132.5 122v175q0 121 132 121h257v115h-510v-148h-138q-46 0 -63.5 -16t-17.5 -48v-34q0 -32 18 -48.5t63 -16.5h19q148 0 148 -123v-36q0 -130 -171 -130q-74 0 -136 14v63
q60 -17 136 -17q106 0 106 71v34q0 33 -18 49.5t-65 16.5h-19q-146 0 -146 121v38q0 121 146 121h73v89h-294v56h1031zM658 184v164q0 48 -12 72h-58q-38 0 -53.5 -15.5t-15.5 -47.5v-173q0 -32 15.5 -48t54 -16t54 16t15.5 48zM176 -58h60l106 -150h-71z" />
    <glyph glyph-name="uni0924094D0928" horiz-adv-x="823" 
d="M203 0q-17 -1 -21 -1q-66 -2 -98 31t-32 93v224q0 64 39 98.5t116 34.5h14q70 0 106 -33q34 32 101 32h257v115h-709v56h871v-56h-97v-594h-65v420h-136q4 -4 8 -27.5t4 -43.5v-166q0 -122 -132.5 -122t-132.5 122v175q0 16 1 23q-13 39 -82 39h-8q-90 0 -90 -74v-220
q0 -34 19 -50.5t67 -15.5v-60zM498 184v164q0 48 -12 72h-58q-38 0 -53.5 -15.5t-15.5 -47.5v-173q0 -32 15.5 -48t54 -16t54 16t15.5 48z" />
    <glyph glyph-name="uni0925094D0928" horiz-adv-x="914" 
d="M387 650h551v-56h-96v-594h-65v420h-136q11 -38 11 -71v-166q0 -122 -132 -122q-76 0 -108 40q-63 -15 -146 -15q-111 0 -165 46t-54 143v102h88q65 0 92.5 19t27.5 74v52q0 40 -11 56.5t-50.5 16.5t-52.5 -17t-13 -55l4 -49h-63q-4 30 -4 47q0 67 29.5 100.5t97.5 33.5
t95.5 -33t27.5 -100v-56q0 -79 -42.5 -113.5t-132.5 -34.5h-28v-42q0 -71 35 -100.5t108 -29.5t134 11q-2 16 -2 26v175q0 121 133 121h257v115h-390v56zM589 184v164q0 48 -12 72h-57q-39 0 -54 -15.5t-15 -47.5v-173q0 -32 15 -48t54 -16t54 15.5t15 48.5z" />
    <glyph glyph-name="uni0926094D0928" horiz-adv-x="404" 
d="M331 442h-139q-47 0 -65.5 -17t-18.5 -50v-150q0 -74 94 -74q40 0 82 9v102h62v-270h-62v113l-142 -102q-49 -35 -22 -71q14 -16 50 -24l-44 -37q-41 4 -63 31q-26 27 -18 65t55 72l82 57q-139 8 -139 128v152q0 126 149 126h74v92h-290v56h452v-56h-97v-152z" />
    <glyph glyph-name="uni0927094D0928" horiz-adv-x="873" 
d="M69 524q0 40 8 70h-101v56h237v-56h-70q-9 -25 -9 -70v-65q0 -33 17 -50t63 -17h35v-61h-37q-47 0 -65.5 -17t-18.5 -50v-52q0 -49 30.5 -69.5t86 -20.5t107.5 14q-6 21 -6 47v175q0 121 133 121h257v115h-420v56h581v-56h-96v-594h-65v420h-137q4 -4 8 -27.5t4 -43.5
v-166q0 -122 -132 -122q-61 0 -92 25q-81 -23 -140 -23q-86 0 -135 36t-49 109v57q0 79 59 96q-53 21 -53 97v66zM548 184v164q0 48 -12 72h-57q-39 0 -54.5 -15.5t-15.5 -47.5v-173q0 -32 15.5 -48t54 -16t54 16t15.5 48z" />
    <glyph glyph-name="uni0928094D0928" horiz-adv-x="952" 
d="M976 650v-56h-97v-594h-65v420h-136q4 -4 8 -27.5t4 -43.5v-166q0 -122 -132.5 -122t-132.5 122v175q0 36 12 62h-138q4 -4 8 -27.5t4 -43.5v-166q0 -122 -132.5 -122t-132.5 122v175q0 121 132 121h636v115h-838v56h1000zM248 184v164q0 48 -12 72h-58
q-38 0 -53.5 -15.5t-15.5 -47.5v-173q0 -32 15.5 -48t54 -16t54 16t15.5 48zM627 184v164q0 48 -12 72h-58q-38 0 -53.5 -15.5t-15.5 -47.5v-173q0 -32 15.5 -48t54 -16t54 16t15.5 48z" />
    <glyph glyph-name="uni092A094D0928" horiz-adv-x="815" 
d="M839 650v-56h-97v-594h-65v420h-136q4 -4 8 -27.5t4 -43.5v-166q0 -122 -133 -122q-106 0 -127 79q-41 -13 -89 -13q-75 0 -113 33.5t-38 95.5v338h-77v56h863zM490 184v164q0 48 -12 72h-58q-38 0 -53.5 -15.5t-15.5 -47.5v-173q0 -32 15.5 -48t54 -16t54 16t15.5 48z
M677 479v115h-559v-337q0 -70 90 -70q41 0 80 11v160q0 121 132 121h257z" />
    <glyph glyph-name="uni092B094D0928" horiz-adv-x="1020" 
d="M1045 650v-56h-97v-594h-65v420h-136q4 -4 8 -27.5t4 -43.5v-166q0 -122 -132.5 -122t-132.5 122v188q0 35 -16.5 52t-62.5 17t-75 -8v-432h-63v128q-47 -10 -75 -10q-74 0 -111.5 33.5t-37.5 95.5v347h-77v56h1069zM277 594h-159v-346q0 -71 89 -71q28 0 70 9v408z
M696 184v164q0 48 -12 72h-58q-38 0 -53.5 -15.5t-15.5 -47.5v-173q0 -32 15.5 -48t54 -16t54 16t15.5 48zM883 479v115h-543v-105q27 9 80 9q82 0 114 -43q32 24 92 24h257z" />
    <glyph glyph-name="uni092C094D0928" horiz-adv-x="812" 
d="M836 650v-56h-97v-594h-65v420h-136q4 -4 8 -27.5t4 -43.5v-166q0 -122 -133 -122q-76 0 -109 41q-37 -32 -111 -32q-151 0 -151 129v173q0 130 151 130q91 0 126 -49q32 26 94 26h257v115h-698v56h860zM285 371q0 38 -20 56t-68 18q-79 0 -87 -57l175 -135v118zM109 201
q0 -37 19.5 -55.5t67 -18.5t68 17.5t21.5 52.5l-176 136v-132zM487 184v164q0 48 -12 72h-58q-38 0 -53.5 -15.5t-15.5 -47.5v-173q0 -32 15.5 -48t54 -16t54 16t15.5 48z" />
    <glyph glyph-name="uni092D094D0928" horiz-adv-x="965" 
d="M382 650h608v-56h-97v-594h-64v420h-137q4 -4 8 -27.5t4 -43.5v-166q0 -122 -132.5 -122t-132.5 122v157h-119v-158q0 -121 -136 -121q-71 0 -104 30t-33 91v95q0 60 32.5 89.5t104.5 29.5h72v131q0 34 -14 50.5t-55.5 16.5t-55.5 -16.5t-14 -50.5l4 -51h-65q-4 26 -4 52
q0 127 134.5 127t134.5 -127v-132h122q18 83 128 83h258v115h-447v56zM256 183v157h-72q-44 0 -58.5 -15t-14.5 -49v-93q0 -33 14.5 -48.5t58.5 -15.5t58 15t14 49zM641 184v164q0 48 -12 72h-58q-38 0 -53.5 -15.5t-15.5 -47.5v-173q0 -32 15.5 -48t54 -16t54 16t15.5 48z
" />
    <glyph glyph-name="uni092E094D0928" horiz-adv-x="951" 
d="M975 650v-56h-97v-594h-65v420h-136q4 -4 8 -27.5t4 -43.5v-166q0 -122 -132.5 -122t-132.5 122v175q0 11 1 16h-119v-192q0 -121 -136 -121q-71 0 -104 30t-33 91v129q0 60 32.5 89.5t104.5 29.5h73v164h-267v56h999zM243 183v191h-73q-44 0 -58.5 -15t-14.5 -49v-127
q0 -33 14.5 -48.5t58.5 -15.5t58.5 15.5t14.5 48.5zM626 184v164q0 48 -12 72h-58q-38 0 -53.5 -15.5t-15.5 -47.5v-173q0 -32 15.5 -48t54 -16t54 16t15.5 48zM813 479v115h-507v-164h135q30 49 115 49h257z" />
    <glyph glyph-name="uni092F094D0928" horiz-adv-x="887" 
d="M183 524q0 44 -7 70h-200v56h936v-56h-97v-594h-65v420h-136q4 -4 8 -27.5t4 -43.5v-166q0 -122 -133 -122q-76 0 -108 41q-73 -17 -134 -17q-197 0 -197 172v127h21q63 0 85.5 14.5t22.5 58.5v67zM563 184v164q0 48 -12 72h-58q-38 0 -53.5 -15.5t-15.5 -47.5v-173
q0 -32 15.5 -48t54 -16t54 16t15.5 48zM750 479v115h-510q7 -24 7 -70v-73q0 -117 -129 -119v-71q0 -59 32.5 -87t92.5 -28t120 12q-2 16 -2 25v175q0 121 132 121h257z" />
    <glyph glyph-name="uni0935094D0928" horiz-adv-x="820" 
d="M844 650v-56h-97v-594h-65v420h-136q4 -4 8 -27.5t4 -43.5v-166q0 -122 -133 -122q-66 0 -100 32q-55 -24 -126.5 -24t-111.5 34.5t-40 98.5v172q0 61 38.5 96t112.5 35q22 0 32 -1v-58q-10 1 -27 1q-92 0 -92 -74v-171q0 -75 94 -75q42 0 93 15q-5 20 -5 41v175
q0 121 132 121h257v115h-706v56h868zM495 184v164q0 48 -12 72h-58q-38 0 -53.5 -15.5t-15.5 -47.5v-173q0 -32 15.5 -48t54 -16t54 16t15.5 48z" />
    <glyph glyph-name="uni0936094D0928" horiz-adv-x="573" 
d="M436 650h161v-56h-96v-594h-63v149l-91 65l-115 -113q-45 -43 -12 -73q15 -13 53 -17l-39 -42q-41 -2 -67 21q-30 23 -28 61.5t43 79.5l119 116l-105 76l-83 -76l-84 11l117 104q-47 38 -66.5 69.5t-19.5 85.5v12q0 126 133.5 126t133.5 -126v-12q0 -36 -12 -64.5
t-27 -44.5t-46 -44l194 -140v426zM124 529v-19q0 -23 12 -44t21.5 -30t36.5 -31q26 21 36 30.5t21.5 30.5t11.5 44v19q0 34 -14 50.5t-55 16.5t-55.5 -17t-14.5 -50z" />
    <glyph glyph-name="uni0938094D0928" horiz-adv-x="981" 
d="M273 524q0 36 -9 70h-288v56h1029v-56h-97v-594h-65v420h-136q4 -4 8 -27.5t4 -43.5v-166q0 -122 -132.5 -122t-132.5 122v106h-150q-36 -36 -110 -36q-38 0 -70 9v-119q0 -88 112 -88q58 0 122 18v-61q-61 -17 -134.5 -17t-119 37.5t-45.5 109.5v308h65v-129
q34 -9 65 -9q84 0 84 71v141zM656 184v164q0 48 -12 72h-58q-38 0 -53.5 -15.5t-15.5 -47.5v-173q0 -32 15.5 -48t54 -16t54 16t15.5 48zM843 479v115h-514q8 -24 8 -70v-141q0 -22 -4 -37h121v12q0 121 132 121h257z" />
    <glyph glyph-name="uni0939094D0928" horiz-adv-x="951" 
d="M976 650v-56h-97v-594h-65v420h-136q4 -4 8 -27.5t4 -43.5v-166q0 -122 -132.5 -122t-132.5 122v70h-225q-87 0 -87 -65v-56q0 -79 107 -79q70 0 136 11v-57q-62 -12 -138 -12q-170 0 -170 135v57q0 69 54 94q-51 23 -52 91v14q0 119 144 119h87v89h-305v56h1000z
M627 184v164q0 48 -12 72h-58q-38 0 -53.5 -15.5t-15.5 -47.5v-173q0 -32 15.5 -48t54 -16t54 16t15.5 48zM814 479v115h-468v-148h-152q-45 0 -62 -15.5t-17 -46.5v-12q0 -31 18 -46.5t64 -15.5h228v48q0 121 132 121h257z" />
    <glyph glyph-name="uni0915094D0930" horiz-adv-x="610" 
d="M433 73l-23 1v61q5 -1 18 -1q37 0 51 17.5t14 49.5v178q0 68 -81 68q-34 0 -66 -9v-438h-64v110l-3 -1l-152 -156h-84l149 147q-126 8 -126 125v154q0 125 141 125q19 0 30 -3v-57q-14 2 -26 2q-81 0 -81 -68v-152q0 -68 81 -68q35 0 71 9v427h-306v56h659v-56h-289v-99
q28 10 70 10q141 0 141 -125v-182q0 -57 -30 -91t-94 -34z" />
    <glyph glyph-name="uni0916094D0930" horiz-adv-x="730" 
d="M260 524q0 42 -13 70h-271v56h779v-56h-97v-594h-64v136q-30 -9 -78 -9q-71 0 -103.5 31.5t-32.5 93.5v124q0 63 32 94.5t103 31.5q39 0 79 -9v101h-283q11 -24 11 -70v-121q0 -145 -145 -145q-34 0 -67 7v-88q0 -121 163 -121q45 0 76 7v-60l-149 -109l-90 11v4l141 91
q-205 9 -205 176v266h64v-119q36 -6 65 -6q85 0 85 86v121zM594 435q-36 9 -78 9t-58 -17t-16 -51v-124q0 -34 16 -51t61.5 -17t74.5 9v242z" />
    <glyph glyph-name="uni0917094D0930" horiz-adv-x="476" 
d="M500 650v-56h-96v-594h-63v80q0 107 4 121h-1q-9 -17 -99 -109l-88 -92h-82l264 283v311h-147v-237q0 -58 -32.5 -92.5t-94.5 -34.5q-27 0 -36 3v61q12 -2 28 -2q70 0 70 68v234h-151v56h524z" />
    <glyph glyph-name="uni0918094D0930" horiz-adv-x="493" 
d="M69 524q0 40 8 70h-101v56h541v-56h-96v-594h-65v103l-157 -151h-88l145 137h-11q-85 0 -133.5 36t-48.5 110v28q0 78 60 96q-54 21 -54 97v68zM128 262v-28q0 -50 30.5 -71t92 -21t105.5 14v438h-213q-9 -25 -9 -70v-67q0 -33 17 -50t64 -17h35v-61h-37q-47 0 -66 -17
t-19 -50z" />
    <glyph glyph-name="uni0919094D0930" horiz-adv-x="446" 
d="M-26 650h496v-56h-137v-148h-138q-46 0 -63.5 -16t-17.5 -48v-26q0 -32 18 -48.5t63 -16.5h19q148 0 148 -123v-44q0 -94 -92 -120l80 -147h-69l-71 137h-12l-70 -137h-69l75 139q-46 5 -81 13v60q62 -15 138 -15q106 0 106 70v43q0 33 -18 49.5t-65 16.5h-19
q-146 0 -146 121v30q0 121 146 121h73v89h-294v56zM406.5 396q41.5 0 41.5 -41.5t-41.5 -41.5t-41.5 41.5t41.5 41.5z" />
    <glyph glyph-name="uni091A094D0930" horiz-adv-x="463" 
d="M90 338q0 53 9 85h-84v59h257v-57h-107q-10 -29 -10 -87v-106q0 -37 20.5 -55.5t65 -18.5t85.5 14v422h-350v56h511v-56h-96v-594h-65v116l-3 -1l-162 -164h-83l149 151q-137 4 -137 132v104z" />
    <glyph glyph-name="uni091B094D0930" horiz-adv-x="507" 
d="M64 524q0 37 11 70h-99v56h555v-56h-153v-108q73 -19 73 -116v-201q0 -67 -30 -101t-99 -43l82 -150h-69l-75 146h-3l-75 -146h-69l80 149q-71 9 -102.5 42.5t-31.5 99.5v34q0 76 60 95q-55 20 -55 96v133zM371 419.5q-16 17.5 -51.5 17.5t-63.5 -8v57q27 9 62 9v99h-178
q-11 -25 -11 -70v-132q0 -33 17 -49.5t64 -17.5h53v-59h-52q-48 0 -67.5 -17t-19.5 -51v-31q0 -51 26.5 -69t105 -18t105 19t26.5 71v195q0 37 -16 54.5z" />
    <glyph glyph-name="uni091C094D0930" horiz-adv-x="558" 
d="M216 354q0 42 -9 69h-110v59h326v112h-447v56h606v-56h-96v-594h-63v25q0 119 1 125l-1 1q-5 -14 -103 -100l-115 -102h-87l305 278v198h-150q8 -24 8 -69v-100q0 -65 -40 -100.5t-115 -35.5q-48 0 -93 12v60q48 -12 92 -12q91 0 91 77v97z" />
    <glyph glyph-name="uni091D094D0930" horiz-adv-x="639" 
d="M202 446q-45 0 -63 -15.5t-18 -47.5v-6q0 -32 17.5 -47.5t61.5 -16.5h303v281h-111v-148h-190zM348 188v-44q0 -64 -36 -94.5t-113 -30.5q-45 0 -81 9v-88h-63v218h63v-71q32 -9 76 -9q89 0 89 68v43q0 32 -18 49t-62 17h-3q-144 0 -144 121v8q0 121 146 121h125v89h-351
v56h688v-56h-97v-596h-62v49q0 14 4 62q-11 -27 -62 -84l-104 -112h-77l231 255v90h-178q29 -21 29 -70z" />
    <glyph glyph-name="uni091E094D0930" horiz-adv-x="561" 
d="M423 279h-131v-58q0 -63 -37.5 -97t-100 -34t-102.5 14v61q50 -15 94 -15q81 0 81 77v147q0 37 -18.5 57t-64 20t-85.5 -15v61q35 14 86 14q147 0 147 -131v-44h132v258h-448v56h609v-56h-96v-596h-65v86q0 37 3 58h-4q-14 -36 -58 -82l-133 -140h-77l268 289v70z" />
    <glyph glyph-name="uni091F094D0930" horiz-adv-x="392" 
d="M326 441h-118q-48 0 -68 -18t-20 -53v-230q0 -84 107 -84q57 0 116 16v-60q-30 -10 -70 -14l77 -141h-69l-72 139l-9 1l-72 -140h-69l82 153q-86 33 -86 129v233q0 129 149 129h57v93h-285v56h440v-56h-90v-153z" />
    <glyph glyph-name="uni0920094D0930" horiz-adv-x="406" 
d="M211 -5h-11l-71 -138h-69l79 147q-84 25 -84 122v253q0 114 115 127v88h-194v56h454v-56h-195v-88q116 -13 116 -127v-253q0 -94 -81 -121l81 -148h-69zM287 125v253q0 34 -18.5 53t-65.5 19t-65.5 -19t-18.5 -53v-253q0 -72 84 -72t84 72z" />
    <glyph glyph-name="uni0921094D0930" horiz-adv-x="412" 
d="M335 446h-138q-46 0 -63.5 -16t-17.5 -48v-34q0 -32 18 -48.5t63 -16.5h19q148 0 148 -123v-36q0 -95 -91 -120l80 -147h-69l-71 138l-12 -1l-70 -137h-69l75 139q-39 3 -80 12v63q60 -17 136 -17q106 0 106 71v34q0 33 -18 49.5t-65 16.5h-19q-146 0 -146 121v38
q0 121 146 121h73v89h-294v56h460v-56h-101v-148z" />
    <glyph glyph-name="uni0922094D0930" horiz-adv-x="407" 
d="M216 -5h-11l-71 -138h-69l79 146q-89 26 -89 128v246q0 126 147 126h63v91h-289v56h455v-56h-102v-151h-127q-47 0 -65 -17t-18 -50v-243q0 -37 20 -57.5t70 -20.5t69.5 20t19.5 57v44q0 66 -62 66q-15 0 -41 -7v59q18 7 46 7q55 0 88 -31.5t33 -92.5v-47
q0 -101 -86 -126l80 -147h-69z" />
    <glyph glyph-name="uni0923094D0930" horiz-adv-x="611" 
d="M475 594h-134v-246q0 -130 -144 -130t-144 130v246h-77v56h660v-56h-97v-594h-64v83q0 59 4 135q-10 -19 -103 -104l-126 -114h-87l312 292v302zM118 594v-245q0 -34 16.5 -52.5t62.5 -18.5t62.5 18.5t16.5 52.5v245h-158z" />
    <glyph glyph-name="uni0924094D0930" horiz-adv-x="449" 
d="M216 437q-109 0 -109 -84v-59h-64v61q0 69 42 106t126 37q51 0 101 -14v110h-336v56h497v-56h-96v-594h-63v138q0 88 4 120h-3q-11 -21 -67 -79l-126 -132h-86l276 286v90q-44 14 -96 14z" />
    <glyph glyph-name="uni0925094D0930" horiz-adv-x="550" 
d="M414 650h160v-56h-96v-594h-64v124l-208 -162h-99v4l187 139q-10 -1 -30 -1q-111 0 -163.5 44t-52.5 141v88h89q64 0 91.5 19t27.5 74v52q0 40 -11 56.5t-50 16.5t-52 -17t-13 -55l4 -49h-63q-4 30 -4 47q0 67 29.5 100.5t97 33.5t95.5 -33t28 -100v-56
q0 -79 -42.5 -113.5t-133.5 -34.5h-27v-28q0 -71 35 -100.5t117.5 -29.5t147.5 16v474z" />
    <glyph glyph-name="uni0926094D0930" horiz-adv-x="404" 
d="M333 442h-139q-47 0 -65.5 -17t-18.5 -50v-142q0 -75 94 -75q42 0 81 10v71h63v-247h-63v121l-3 -1l-158 -181h-78l151 173q-74 1 -113 33.5t-39 94.5v144q0 126 149 126h74v92h-292v56h454v-56h-97v-152z" />
    <glyph glyph-name="uni0927094D0930" horiz-adv-x="493" 
d="M69 524q0 40 8 70h-101v56h266v-56h-99q-9 -25 -9 -70v-67q0 -33 17 -50t64 -17h35v-61h-37q-47 0 -66 -17t-19 -50v-28q0 -50 30.5 -71t92 -21t105.5 14v494h161v-56h-96v-594h-65v103l-157 -151h-88l145 137h-11q-85 0 -133.5 36t-48.5 110v28q0 78 60 96
q-54 21 -54 97v68z" />
    <glyph glyph-name="uni0928094D0930" horiz-adv-x="569" 
d="M171 420q-39 0 -54.5 -15.5t-15.5 -47.5v-98q0 -31 15.5 -47t54 -16t54 15.5t15.5 47.5v92q0 45 -12 69h-57zM432 420h-141q4 -4 8 -26t4 -42v-93q0 -122 -132.5 -122t-132.5 122v99q0 121 133 121h261v115h-456v56h617v-56h-96v-594h-63v35q0 96 3 138q-6 -11 -42 -52
q-33 -38 -144 -156h-82l263 283v172z" />
    <glyph glyph-name="uni092A094D0930" horiz-adv-x="433" 
d="M-24 650h481v-56h-96v-594h-65v212l-188 -212h-81l176 198q-71 1 -107 35t-36 94v267h-84v56zM125 594v-268q0 -71 89 -71q50 0 82 14v325h-171z" />
    <glyph glyph-name="uni092B094D0930" horiz-adv-x="610" 
d="M499 373q0 67 -72 67q-37 0 -79 -11v-429h-63v185h-1l-160 -203h-77l155 193q-70 2 -105 35.5t-35 93.5v290h-86v56h659v-56h-287v-105q36 11 76 11q69 0 104.5 -33.5t35.5 -92.5v-184q0 -59 -32.5 -92t-97.5 -33l-14 1h-3v60q46 -1 64 15.5t18 50.5v181zM127 594v-293
q0 -71 89 -71q40 0 69 9v355h-158z" />
    <glyph glyph-name="uni092C094D0930" horiz-adv-x="424" 
d="M-24 650h473v-56h-97v-594h-61v110l-4 -2l-163 -160h-83l154 149q-145 5 -145 126v152q0 130 155 130q50 0 86 -13v102h-315v56zM208 448q-83 0 -93 -56l176 -141v184q-36 13 -83 13zM113 224q0 -75 95 -75q50 0 83 12v33l-178 142v-112z" />
    <glyph glyph-name="uni092D094D0930" horiz-adv-x="595" 
d="M262 252v115h-73q-44 0 -58.5 -15t-14.5 -48v-52q0 -33 14.5 -48.5t58.5 -15.5t58.5 15.5t14.5 48.5zM458 367h-132v-116q0 -61 -33 -91t-104 -30t-104 30t-33 91v54q0 60 32.5 89.5t104.5 29.5h73v103q0 34 -14.5 50.5t-55.5 16.5t-55.5 -16.5t-14.5 -50.5l4 -48h-65
q-4 22 -4 49q0 127 135 127t135 -127v-104h131v226h161v-56h-96v-596h-63v30q0 108 5 138h-1q-8 -22 -89 -107l-98 -106h-84l265 285v129z" />
    <glyph glyph-name="uni092E094D0930" horiz-adv-x="567" 
d="M-24 650h615v-56h-96v-596h-64v64q0 59 4 107v1q-12 -23 -89 -107l-99 -105h-83l267 285v159h-131v-137q0 -127 -134 -127t-134 125v75q0 61 32.5 91t103.5 30h69v135h-261v56zM237 266v136h-69q-44 0 -58 -15.5t-14 -49.5v-73q0 -34 13.5 -51t56.5 -17t57 17.5t14 52.5z
M431 459v135h-131v-135h131z" />
    <glyph glyph-name="uni092F094D0930" horiz-adv-x="499" 
d="M183 524q0 44 -7 70h-200v56h547v-56h-96v-594h-65v146l-6 -1l-204 -168h-92l196 158h-5q-197 0 -197 171v92h21q63 0 85.5 14.5t22.5 57.5v54zM118 308q0 -59 32.5 -87t93.5 -28t118 11v390h-122q7 -24 7 -70v-60q0 -116 -129 -118v-38z" />
    <glyph glyph-name="uni0935094D0930" horiz-adv-x="431" 
d="M-24 650h479v-56h-96v-594h-65v118l-3 -1l-169 -166h-84l159 154q-145 3 -145 133v136q0 61 38.5 96t101 35t102.5 -12v101h-318v56zM116 373v-139q0 -75 92 -75q56 0 88 13v263q-33 12 -89 12q-91 0 -91 -74z" />
    <glyph glyph-name="uni0936094D0930" horiz-adv-x="573" 
d="M436 650h161v-56h-96v-594h-65v236q-34 -42 -78 -86l-134 -135l-82 6l187 185l-133 94l-83 -75l-84 11l117 103q-47 38 -66.5 69.5t-19.5 85.5v35q0 126 133.5 126t133.5 -126v-35q0 -36 -12 -64.5t-27 -44.5t-46 -44l130 -93l64 64v338zM124 529v-42q0 -23 12 -44
t21.5 -30t36.5 -31q26 21 36 30.5t21.5 30.5t11.5 44v42q0 34 -14 50.5t-55 16.5t-55.5 -17t-14.5 -50z" />
    <glyph glyph-name="uni0938094D0930" horiz-adv-x="612" 
d="M259 594h-283v56h660v-56h-96v-594h-63v177q0 89 2 114l-3 1q-9 -14 -149 -143l-82 9l200 174h-125q-26 -65 -123 -65q-41 0 -74 9v-129q0 -92 113 -92q59 0 127 14v-59q-60 -15 -127 -15q-177 0 -177 152v310h64v-122q30 -9 71 -9q79 0 79 71v129q0 39 -5.5 53.5
t-8.5 14.5zM337 389h138v205h-146q8 -24 8 -71v-134z" />
    <glyph glyph-name="uni0939094D0930" horiz-adv-x="445" 
d="M365 449h-171q-45 0 -62 -15.5t-17 -47.5v-11q0 -32 18 -47t64 -15h89q67 0 96.5 -28.5t29.5 -87.5v-35h-61v32q0 31 -9 44l-107 -126l-66 3l122 143h-91q-87 0 -87 -65v-54q0 -45 27.5 -68t97.5 -23t160 15v-57q-78 -16 -168 -16q-182 0 -182 147v55q0 68 54 92
q-51 23 -52 93v12q0 60 35 88.5t109 28.5h106v88h-324v56h493v-56h-104v-145z" />
    <glyph glyph-name="uni0915093C094D0930" horiz-adv-x="610" 
d="M433 73l-23 1v61q5 -1 18 -1q37 0 51 17.5t14 49.5v178q0 68 -81 68q-34 0 -66 -9v-438h-64v110l-3 -1l-152 -156h-84l149 147q-126 8 -126 125v154q0 125 141 125q19 0 30 -3v-57q-14 2 -26 2q-81 0 -81 -68v-152q0 -68 81 -68q35 0 71 9v427h-306v56h659v-56h-289v-99
q28 10 70 10q141 0 141 -125v-182q0 -57 -30 -91t-94 -34zM213 -43q42 0 42 -42t-42 -42t-42 42t42 42z" />
    <glyph glyph-name="uni0916093C094D0930" horiz-adv-x="735" 
d="M260 524q0 42 -13 70h-271v56h779v-56h-97v-594h-64v136q-30 -9 -78 -9q-71 0 -103.5 31.5t-32.5 93.5v124q0 63 32 94.5t103 31.5q39 0 79 -9v101h-283q11 -24 11 -70v-121q0 -145 -145 -145q-34 0 -67 7v-88q0 -121 163 -121q45 0 76 7v-60l-149 -109l-90 11v4l141 91
q-205 9 -205 176v266h64v-119q36 -6 65 -6q85 0 85 86v121zM594 435q-36 9 -78 9t-58 -17t-16 -51v-124q0 -34 16 -51t61.5 -17t74.5 9v242zM482 4q42 0 42 -42t-42 -42t-42 42t42 42z" />
    <glyph glyph-name="uni0917093C094D0930" horiz-adv-x="476" 
d="M500 650v-56h-96v-594h-63v80q0 107 4 121h-1q-9 -17 -99 -109l-88 -92h-82l264 283v311h-147v-237q0 -58 -32.5 -92.5t-94.5 -34.5q-27 0 -36 3v61q12 -2 28 -2q70 0 70 68v234h-151v56h524zM263 -30q42 0 42 -42t-42 -42t-42 42t42 42z" />
    <glyph glyph-name="uni091C093C094D0930" horiz-adv-x="573" 
d="M-3 19q0 42 42 42t42 -42t-42 -42t-42 42zM231 354q0 35 -9 69h-110v59h326v112h-447v56h606v-56h-96v-594h-63v25q0 119 1 125l-1 1q-5 -14 -103 -100l-115 -102h-87l305 278v198h-150q8 -24 8 -69v-100q0 -65 -40 -100.5t-115 -35.5q-48 0 -93 12v60q48 -12 92 -12
q91 0 91 77v97z" />
    <glyph glyph-name="uni0921093C094D0930" horiz-adv-x="452" 
d="M374 446h-137q-46 0 -63.5 -16t-17.5 -48v-34q0 -32 18 -48.5t63 -16.5h18q149 0 149 -123v-36q0 -94 -92 -120l80 -147h-69l-71 137h-12l-70 -137h-69l75 139q-40 3 -79 12v63q59 -17 136 -17q106 0 106 70v35q0 33 -18.5 49.5t-65.5 16.5h-18q-146 0 -146 121v38
q0 121 146 121h72v89h-333v56h500v-56h-102v-148zM25 8q42 0 42 -42t-42 -42t-42 42t42 42z" />
    <glyph glyph-name="uni0922093C094D0930" horiz-adv-x="442" 
d="M250 -6h-12l-71 -139h-68l79 147q-89 26 -89 129v246q0 126 147 126h63v91h-323v56h490v-56h-102v-151h-128q-47 0 -65 -17t-18 -50v-244q0 -37 20 -57.5t70 -20.5t69.5 20t19.5 57v45q0 66 -61 66q-24 0 -42 -8v59q20 8 49 8q55 0 86.5 -31t31.5 -93v-47
q0 -102 -86 -127l79 -148h-68zM-10 -32q0 42 41.5 42t41.5 -42t-41.5 -42t-41.5 42z" />
    <glyph glyph-name="uni0928093C094D0930" horiz-adv-x="569" 
d="M313 -88q0 42 42 42t42 -42t-42 -42t-42 42zM171 420q-39 0 -54.5 -15.5t-15.5 -47.5v-98q0 -31 15.5 -47t54 -16t54 15.5t15.5 47.5v92q0 45 -12 69h-57zM432 420h-141q4 -4 8 -26t4 -42v-93q0 -122 -132.5 -122t-132.5 122v99q0 121 133 121h261v115h-456v56h617v-56
h-96v-594h-63v35q0 96 3 138q-6 -11 -42 -52q-33 -38 -144 -156h-82l263 283v172z" />
    <glyph glyph-name="uni092B093C094D0930" horiz-adv-x="610" 
d="M499 373q0 67 -72 67q-37 0 -79 -11v-429h-63v185h-1l-160 -203h-77l155 193q-70 2 -105 35.5t-35 93.5v290h-86v56h659v-56h-287v-105q36 11 76 11q69 0 104.5 -33.5t35.5 -92.5v-184q0 -59 -32.5 -92t-97.5 -33l-14 1h-3v60q46 -1 64 15.5t18 50.5v181zM127 594v-293
q0 -71 89 -71q40 0 69 9v355h-158zM215 -37q42 0 42 -42t-42 -42t-42 42t42 42z" />
    <glyph glyph-name="uni092F093C094D0930" horiz-adv-x="499" 
d="M183 524q0 44 -7 70h-200v56h547v-56h-96v-594h-65v146l-6 -1l-204 -168h-92l196 158h-5q-197 0 -197 171v92h21q63 0 85.5 14.5t22.5 57.5v54zM118 308q0 -59 32.5 -87t93.5 -28t118 11v390h-122q7 -24 7 -70v-60q0 -116 -129 -118v-38zM272 -22q42 0 42 -42t-42 -42
t-42 42t42 42z" />
    <glyph glyph-name="uni0915094D0930094D" horiz-adv-x="426" 
d="M569 594h-223v-100q30 10 79 10q74 0 105 -32.5t31 -93.5v-7h-61v6q0 35 -16.5 52t-61.5 17t-76 -9v-437h-64v109l-4 -1l-151 -155h-84l148 146q-125 8 -125 125v155q0 125 141 125q19 0 30 -3v-57q-14 2 -26 2q-81 0 -81 -68v-158q0 -68 81 -68q42 0 71 9v433h-306v56
h593v-56z" />
    <glyph glyph-name="uni0916094D0930094D" horiz-adv-x="527" 
d="M380 252v124q0 62 33 93.5t105 31.5t105 -31.5t33 -93.5v-124q0 -67 -32 -96t-106 -29t-106 29t-32 96zM594 252v124q0 34 -16 51t-60 17t-60 -17t-16 -51v-124q0 -34 16 -51t60 -17t60 17t16 51zM260 524q0 42 -13 70h-271v56h678v-56h-343q11 -24 11 -70v-121
q0 -145 -145 -145q-34 0 -67 7v-88q0 -121 163 -121q45 0 76 7v-60l-149 -109l-90 11v4l141 91q-205 9 -205 176v266h64v-119q36 -6 65 -6q85 0 85 86v121z" />
    <glyph glyph-name="uni0917094D0930094D" horiz-adv-x="266" 
d="M192 594v-233q0 -58 -32.5 -93t-94.5 -35q-18 0 -36 3v61q12 -2 28 -2q70 0 70 68v231h-151v56h360v-56h-144zM348 295v-80q-15 -28 -94 -113l-97 -102h-82z" />
    <glyph glyph-name="uni0918094D0930094D" horiz-adv-x="287" 
d="M69 524q0 44 7 70h-100v56h394v-56h-228q-8 -25 -8 -70v-65q0 -34 17 -50.5t63 -17.5h35v-60h-37q-47 0 -65.5 -17t-18.5 -51v-29q0 -50 31.5 -71t94.5 -21q23 0 115 9v-58l-154 -139h-83l148 130q-11 -1 -33 -1q-88 0 -136 36.5t-48 110.5v34q0 80 59 97q-53 21 -53 97
v66z" />
    <glyph glyph-name="uni091A094D0930094D" horiz-adv-x="246" 
d="M81 338q0 44 9 85h-86v59h259v-57h-107q-10 -29 -10 -87v-137q0 -37 22.5 -55.5t79 -18.5t103.5 13v-62l-153 -138h-83l146 129q-7 -1 -23 -1q-157 0 -157 132v138zM325 650v-56h-357v56h357z" />
    <glyph glyph-name="uni091C094D0930094D" horiz-adv-x="350" 
d="M216 354q0 42 -9 69h-110v59h344v-57h-168q8 -24 8 -69v-112q0 -65 -40 -100.5t-115 -35.5q-48 0 -93 12v60q48 -12 92 -12q91 0 91 77v109zM440 650v-56h-464v56h464zM141 -51v4l312 281v-68q-26 -40 -87 -96l-142 -121h-83z" />
    <glyph glyph-name="uni091D094D0930094D" horiz-adv-x="445" 
d="M348 188v-46q0 -64 -36 -94.5t-113 -30.5q-45 0 -81 9v-88h-63v218h63v-71q32 -9 76 -9q89 0 89 68v45q0 32 -18 49t-62 17h-5q-142 0 -142 121v8q0 121 146 121h125v89h-351v56h552v-56h-136v-148h-190q-45 0 -63 -15.5t-18 -47.5v-6q0 -32 17.5 -48t61.5 -16h329v-55
h-210q29 -21 29 -70zM529 203v-74q-15 -29 -82 -104l-104 -112h-77z" />
    <glyph glyph-name="uni091E094D0930094D" horiz-adv-x="363" 
d="M449 227v-63q-3 -10 -25 -41.5t-50 -61.5l-131 -139h-77zM449 650v-56h-473v56h473zM449 323v-57h-157v-50q0 -63 -37.5 -97t-102.5 -34t-100 13v61q45 -14 92 -14q83 0 83 77v147q0 37 -18 57t-66.5 20t-83.5 -14v61q32 13 86 13q147 0 147 -131v-52h157z" />
    <glyph glyph-name="uni091F094D0930094D" horiz-adv-x="392" 
d="M326 441h-118q-48 0 -68 -18t-20 -53v-230q0 -84 107 -84q57 0 116 16v-60q-24 -8 -67 -13l78 -143h-69l-72 140l-9 1l-72 -141h-69l82 152q-90 33 -90 131v233q0 129 149 129h57v93h-285v56h440v-56h-90v-153zM177 -159h60l106 -150h-71z" />
    <glyph glyph-name="uni0920094D0930094D" horiz-adv-x="406" 
d="M210 -5h-11l-71 -139h-69l80 148q-84 25 -84 122v253q0 114 115 127v88h-194v56h454v-56h-195v-88q116 -13 116 -127v-253q0 -96 -82 -122l81 -148h-69zM287 125v253q0 34 -18.5 53t-65.5 19t-65.5 -19t-18.5 -53v-253q0 -72 84 -72t84 72zM177 -159h60l106 -150h-71z
" />
    <glyph glyph-name="uni0921094D0930094D" horiz-adv-x="411" 
d="M333 446h-138q-46 0 -63.5 -16t-17.5 -48v-34q0 -32 18 -48.5t63 -16.5h19q148 0 148 -123v-36q0 -95 -91 -120l81 -149h-69l-72 140l-10 -1l-71 -139h-69l76 141q-41 3 -82 12v63q60 -17 136 -17q106 0 106 71v34q0 33 -18 49.5t-65 16.5h-19q-146 0 -146 121v38
q0 121 146 121h73v89h-294v56h460v-56h-101v-148zM176 -159h60l106 -150h-71z" />
    <glyph glyph-name="uni0922094D0930094D" horiz-adv-x="407" 
d="M216 -5h-11l-71 -139h-69l79 147q-89 25 -89 128v246q0 126 147 126h63v91h-289v56h455v-56h-102v-151h-127q-47 0 -65 -17t-18 -50v-243q0 -37 20 -57.5t70 -20.5t69.5 20t19.5 57v44q0 66 -62 66q-15 0 -41 -7v59q18 7 46 7q55 0 88 -31.5t33 -92.5v-47
q0 -101 -86 -126l80 -148h-69zM185 -159h60l106 -150h-71z" />
    <glyph glyph-name="uni0923094D0930094D" horiz-adv-x="389" 
d="M197 278q46 0 62.5 18.5t16.5 52.5v245h-158v-245q0 -34 16.5 -52.5t62.5 -18.5zM163 0l308 291v-71q-35 -49 -95 -106l-126 -114h-87zM471 650v-56h-130v-246q0 -130 -144 -130t-144 130v246h-77v56h495z" />
    <glyph glyph-name="uni0924094D0930094D" horiz-adv-x="240" 
d="M213 422q-109 0 -109 -85v-59h-63v61q0 69 42 106t115.5 37t173.5 -33v-134q-4 -5 -59.5 -65.5t-60.5 -66.5l-131 -136h-85l274 286v75q-50 14 -97 14zM398 650v-56h-425v56h425z" />
    <glyph glyph-name="uni0925094D0930094D" horiz-adv-x="344" 
d="M112 318v-42q0 -72 35.5 -101t111 -29t167.5 16v-58l-193 -152h-96l181 138q-26 -3 -52 -3q-111 0 -165 45.5t-54 142.5v102h88q65 0 92.5 19t27.5 74v52q0 40 -11 56.5t-50.5 16.5t-52.5 -17t-13 -55l4 -49h-63q-4 30 -4 47q0 67 29.5 100.5t97.5 33.5t95.5 -33
t27.5 -100v-56q0 -79 -42.5 -113.5t-132.5 -34.5h-28z" />
    <glyph glyph-name="uni0926094D0930094D" horiz-adv-x="404" 
d="M350 -63l106 -150h-71l-95 150h60zM346 -8h-62v121l-3 -1l-158 -181h-78l149 171q-72 1 -111 33.5t-39 94.5v146q0 126 148 126h74v92h-292v56h454v-56h-97v-152h-139q-47 0 -65.5 -17t-18.5 -50v-144q0 -74 94 -74q44 0 82 16v66h62v-247z" />
    <glyph glyph-name="uni0927094D0930094D" horiz-adv-x="295" 
d="M69 524q0 40 8 70h-101v56h241v-56h-74q-9 -25 -9 -70v-61q0 -34 17 -50.5t63 -17.5h35v-60h-37q-47 0 -65.5 -17t-18.5 -51v-33q0 -50 31.5 -71t94.5 -21q23 0 115 9v-58l-154 -139h-83l148 130q-10 -1 -33 -1q-88 0 -136 36.5t-48 110.5v38q0 80 59 97q-53 21 -53 96
v63z" />
    <glyph glyph-name="uni0928094D0930094D" horiz-adv-x="364" 
d="M178 420q-38 0 -53.5 -15.5t-15.5 -47.5v-98q0 -31 15.5 -47t54 -16t54 15.5t15.5 47.5v92q0 45 -12 69h-58zM455 650v-56h-479v56h479zM457 479v-59h-158q4 -4 8 -26t4 -42v-93q0 -122 -132.5 -122t-132.5 122v99q0 121 132 121h279zM457 280v-71q-60 -84 -121 -152
l-87 -92h-82z" />
    <glyph glyph-name="uni092A094D0930094D" horiz-adv-x="221" 
d="M124 594v-283q0 -70 98 -70q54 0 95 10v-53l-203 -205h-82l192 188h-8q-157 0 -157 129v284h-83v56h325v-56h-177z" />
    <glyph glyph-name="uni092B094D0930094D" horiz-adv-x="439" 
d="M571 594h-223v-105q30 10 96 10q127 0 127 -126v-7h-62v6q0 35 -16 52t-65.5 17t-79.5 -9v-432h-64v185l-161 -203h-76l155 193q-70 2 -105.5 35.5t-35.5 93.5v290h-85v56h595v-56zM126 594v-289q0 -71 89 -71q40 0 69 9v351h-158z" />
    <glyph glyph-name="uni092C094D0930094D" horiz-adv-x="226" 
d="M-24 650h399v-56h-399v56zM50 211v164q0 130 152.5 130t152.5 -130v-164q0 -43 -16 -67.5t-60 -66.5l-152 -145h-87l160 150q-150 3 -150 129zM293 374q0 38 -20.5 56t-69.5 18q-81 0 -89 -56l179 -131v113zM113 212q0 -36 20 -55t68.5 -19t69 17t22.5 52l-180 130v-125z
" />
    <glyph glyph-name="uni092D094D0930094D" horiz-adv-x="415" 
d="M262 252v115h-73q-44 0 -58.5 -15t-14.5 -48v-52q0 -33 14.5 -48.5t58.5 -15.5t58.5 15.5t14.5 48.5zM494 277v-70q-44 -67 -117 -147l-100 -107h-84zM494 424v-57h-168v-116q0 -61 -33 -91t-104 -30t-104 30t-33 91v54q0 60 32.5 89.5t104.5 29.5h73v103
q0 34 -14.5 50.5t-55.5 16.5t-55.5 -16.5t-14.5 -50.5l5 -48h-65q-5 27 -5 49q0 127 135 127t135 -127v-104h167z" />
    <glyph glyph-name="uni092E094D0930094D" horiz-adv-x="369" 
d="M454 650v-56h-154v-135h154v-57h-154v-137q0 -127 -134 -127t-134 125v75q0 61 32.5 91t103.5 30h69v135h-261v56h478zM454 270v-74q-56 -75 -108 -133l-99 -105h-83zM237 266v136h-69q-44 0 -58 -15.5t-14 -49.5v-73q0 -34 13.5 -51t56.5 -17t57 17.5t14 52.5z" />
    <glyph glyph-name="uni092F094D0930094D" horiz-adv-x="317" 
d="M118 299q0 -68 34 -97t106.5 -29t157.5 16v-56l-187 -158h-91l177 142q-24 -3 -48 -3q-108 0 -160.5 43.5t-52.5 137.5v103h21q63 0 85.5 14.5t22.5 57.5v54q0 35 -15.5 52.5t-54.5 17.5h-137v56h427v-56h-182q26 -15 26 -70v-60q0 -116 -129 -118v-47z" />
    <glyph glyph-name="uni0935094D0930094D" horiz-adv-x="221" 
d="M-24 650h356v-56h-356v56zM115 362v-148q0 -72 106 -72q68 0 109 11v-60l-159 -155h-80l154 148q-20 -2 -31 -2q-163 0 -163 129v150q0 126 148 126q21 0 45 -4v-57q-24 3 -41 3q-88 0 -88 -69z" />
    <glyph glyph-name="uni0938094D0930094D" horiz-adv-x="408" 
d="M123 457v-122q30 -9 71 -9q79 0 79 71v129q0 39 -5.5 53.5t-8.5 14.5h-283v56h475v-56h-122q8 -24 8 -71v-134h156v-86q-3 -5 -56 -55q-56 -52 -106 -99l-82 9l200 174h-129q-26 -65 -123 -65q-41 0 -74 9v-129q0 -92 113 -92q59 0 127 14v-59q-60 -15 -127 -15
q-177 0 -177 152v310h64z" />
    <glyph glyph-name="uni0915093C094D0930094D" horiz-adv-x="427" 
d="M569 594h-223v-100q30 10 79 10q74 0 105 -32.5t31 -93.5v-7h-61v6q0 35 -16.5 52t-61.5 17t-76 -9v-437h-64v109l-4 -1l-151 -155h-84l148 146q-125 8 -125 125v155q0 125 141 125q19 0 30 -3v-57q-14 2 -26 2q-81 0 -81 -68v-158q0 -68 81 -68q42 0 71 9v433h-306v56
h593v-56zM234 -43q42 0 42 -42t-42 -42t-42 42t42 42z" />
    <glyph glyph-name="uni0916093C094D0930094D" horiz-adv-x="526" 
d="M380 252v124q0 62 33 93.5t105 31.5t105 -31.5t33 -93.5v-124q0 -67 -32 -96t-106 -29t-106 29t-32 96zM594 252v124q0 34 -16 51t-60 17t-60 -17t-16 -51v-124q0 -34 16 -51t60 -17t60 17t16 51zM511 27q42 0 42 -42t-42 -42t-42 42t42 42zM260 524q0 42 -13 70h-271v56
h678v-56h-343q11 -24 11 -70v-121q0 -145 -145 -145q-34 0 -67 7v-88q0 -121 163 -121q45 0 76 7v-60l-149 -109l-90 11v4l141 91q-205 9 -205 176v266h64v-119q36 -6 65 -6q85 0 85 86v121z" />
    <glyph glyph-name="uni0917093C094D0930094D" horiz-adv-x="266" 
d="M263 -33q0 42 42 42t42 -42t-42 -42t-42 42zM192 594v-233q0 -58 -32.5 -93t-94.5 -35q-18 0 -36 3v61q12 -2 28 -2q70 0 70 68v231h-151v56h360v-56h-144zM348 295v-80q-15 -28 -94 -113l-97 -102h-82z" />
    <glyph glyph-name="uni091C093C094D0930094D" horiz-adv-x="377" 
d="M232 354q0 42 -9 69h-110v59h344v-57h-168q8 -24 8 -69v-112q0 -65 -40 -100.5t-115 -35.5q-48 0 -93 12v60q48 -12 92 -12q91 0 91 77v109zM456 650v-56h-464v56h464zM157 -51v4l312 281v-68q-26 -40 -87 -96l-142 -121h-83zM1 11q0 42 42 42t42 -42t-42 -42t-42 42z
" />
    <glyph glyph-name="uni0928093C094D0930094D" horiz-adv-x="364" 
d="M364 -53q0 42 42 42t42 -42t-42 -42t-42 42zM178 420q-38 0 -53.5 -15.5t-15.5 -47.5v-98q0 -31 15.5 -47t54 -16t54 15.5t15.5 47.5v92q0 45 -12 69h-58zM455 650v-56h-479v56h479zM457 479v-59h-158q4 -4 8 -26t4 -42v-93q0 -122 -132.5 -122t-132.5 122v99
q0 121 132 121h279zM457 280v-71q-60 -84 -121 -152l-87 -92h-82z" />
    <glyph glyph-name="uni092B093C094D0930094D" horiz-adv-x="461" 
d="M571 594h-223v-105q30 10 96 10q127 0 127 -126v-7h-62v6q0 35 -16 52t-65.5 17t-79.5 -9v-432h-64v185l-161 -203h-76l155 193q-70 2 -105.5 35.5t-35.5 93.5v290h-85v56h595v-56zM126 594v-289q0 -71 89 -71q40 0 69 9v351h-158zM215 -49q42 0 42 -42t-42 -42t-42 42
t42 42z" />
    <glyph glyph-name="uni092F093C094D0930094D" horiz-adv-x="315" 
d="M118 299q0 -68 34 -97t106.5 -29t157.5 16v-56l-187 -158h-91l177 142q-24 -3 -48 -3q-108 0 -160.5 43.5t-52.5 137.5v103h21q63 0 85.5 14.5t22.5 57.5v54q0 35 -15.5 52.5t-54.5 17.5h-137v56h427v-56h-182q26 -15 26 -70v-60q0 -116 -129 -118v-47zM301 -16
q42 0 42 -42t-42 -42t-42 42t42 42z" />
    <glyph glyph-name="uni0915094D0915" horiz-adv-x="1009" 
d="M839 73l-23 1v61q6 -1 18 -1q38 0 52 17.5t14 49.5v178q0 68 -82 68q-34 0 -66 -9v-438h-64v78q-40 -10 -74 -10q-141 0 -141 125v184q0 34 -15.5 51.5t-59 17.5t-73.5 -9v-437h-64v78q-40 -10 -74 -10q-141 0 -141 125v186q0 125 141 125q18 0 30 -3v-57q-16 2 -26 2
q-82 0 -82 -68v-184q0 -68 82 -68q34 0 70 9v459h-285v56h1057v-56h-281v-99q28 10 70 10q141 0 141 -125v-182q0 -57 -30 -91t-94 -34zM688 594h-363v-100q32 10 75 10q73 0 105 -35q37 35 109 35q18 0 30 -3v-57q-16 2 -26 2q-82 0 -82 -68v-184q0 -68 82 -68q34 0 70 9
v459z" />
    <glyph glyph-name="uni0915094D0916" horiz-adv-x="1156" 
d="M1181 650v-56h-97v-594h-64v136q-30 -9 -78 -9q-71 0 -103.5 31.5t-32.5 93.5v124q0 63 32 94.5t103 31.5q39 0 79 -9v101h-283q11 -24 11 -70v-121q0 -145 -145 -145q-34 0 -67 7v-88q0 -121 163 -121q76 0 138 18v-62q-62 -16 -153 -16t-151 43.5t-60 136.5v201
q0 35 -15.5 52t-59 17t-73.5 -9v-437h-64v78q-40 -10 -74 -10q-141 0 -141 125v186q0 125 141 125q18 0 30 -3v-57q-16 2 -26 2q-82 0 -82 -68v-184q0 -68 82 -68q34 0 70 9v459h-285v56h1205zM686 524q0 42 -13 70h-348v-100q29 10 75 10q74 0 105 -32.5t31 -93.5v-55
q36 -6 65 -6q85 0 85 86v121zM1020 435q-36 9 -77.5 9t-58 -17t-16.5 -51v-124q0 -34 16.5 -51t62.5 -17t73 9v242z" />
    <glyph glyph-name="uni0915094D091A" horiz-adv-x="906" 
d="M533 263q0 45 9 85h-69v29q0 35 -15.5 52t-59 17t-73.5 -9v-437h-64v78q-40 -10 -74 -10q-141 0 -141 125v186q0 125 141 125q18 0 30 -3v-57q-16 2 -26 2q-82 0 -82 -68v-184q0 -68 82 -68q34 0 70 9v459h-285v56h954v-56h-96v-594h-65v75q-39 -13 -89 -13
q-147 0 -147 132v69zM769 594h-444v-100q29 10 75 10q120 0 132 -98h183v-57h-107q-10 -29 -10 -87v-67q0 -38 20.5 -56t66.5 -18t84 13v460z" />
    <glyph glyph-name="uni0915094D091C" horiz-adv-x="1050" 
d="M715 354q0 35 -9 69h-86v59h293v112h-588v-100q29 10 75 10q75 0 106.5 -33t31.5 -93v-95h-65v94q0 35 -15.5 52t-59 17t-73.5 -9v-437h-64v78q-40 -10 -74 -10q-141 0 -141 125v186q0 125 141 125q18 0 30 -3v-57q-16 2 -26 2q-82 0 -82 -68v-184q0 -68 82 -68
q34 0 70 9v459h-285v56h1098v-56h-96v-594h-65v425h-141q8 -24 8 -69v-177q0 -66 -40 -101.5t-115 -35.5q-47 0 -87 10v61q42 -11 86 -11q91 0 91 78v174z" />
    <glyph glyph-name="uni0915094D091F" horiz-adv-x="810" 
d="M744 441h-118q-89 0 -89 -71v-230q0 -84 108 -84q57 0 116 16v-60q-52 -16 -125 -16t-118 37.5t-45 105.5v238q0 35 -15.5 52t-59 17t-73.5 -9v-437h-64v78q-40 -10 -74 -10q-141 0 -141 125v186q0 125 141 125q18 0 30 -3v-57q-16 2 -26 2q-82 0 -82 -68v-184
q0 -68 82 -68q34 0 70 9v459h-285v56h858v-56h-90v-153zM325 594v-100q29 10 75 10q75 0 109 -37q37 34 113 34h57v93h-354z" />
    <glyph glyph-name="uni0915094D0923" horiz-adv-x="1037" 
d="M1061 650v-56h-96v-594h-64v594h-135v-345q0 -130 -144 -130t-144 130v123q-6 52 -76 52q-47 0 -77 -9v-415h-64v78q-40 -10 -74 -10q-141 0 -141 125v186q0 125 141 125q18 0 30 -3v-57q-16 2 -26 2q-82 0 -82 -68v-184q0 -68 82 -68q34 0 70 9v459h-285v56h1085z
M325 594v-122q35 10 78.5 10t74.5 -13v125h-153zM701 250v344h-158v-344q0 -35 16.5 -53.5t62.5 -18.5t62.5 18.5t16.5 53.5z" />
    <glyph glyph-name="uni0915094D0924" horiz-adv-x="614" 
d="M413 110l18 -1q37 1 51 18t14 50v185q0 68 -81 68q-35 0 -66 -9v-421h-64v422q-33 5 -75.5 5t-57.5 -17t-15 -51v-183q0 -34 18.5 -51t65.5 -16v-59q-4 -2 -19 -2q-65 -1 -97 32.5t-32 93.5v185q0 41 19 69h-78v56h193q36 0 78 -6v116h-309v56h663v-56h-290v-115
q31 9 70 9q141 0 141 -125v-189q0 -57 -30 -91t-94 -34q-17 0 -23 1v60z" />
    <glyph glyph-name="uni0915094D0925" horiz-adv-x="974" 
d="M838 650h160v-56h-96v-594h-64v102q-60 -16 -145 -16q-112 0 -166 46t-54 143v52q0 35 -15.5 52t-59 17t-73.5 -9v-387h-64v78q-40 -10 -74 -10q-141 0 -141 125v186q0 125 141 125q18 0 30 -3v-57q-16 2 -26 2q-82 0 -82 -68v-184q0 -68 82 -68q34 0 70 9v459h-285v56
h472v-56h-123v-150q29 10 75 10q108 0 128 -77h34q64 0 91.5 19t27.5 74v52q0 40 -11 56.5t-50.5 16.5t-52 -17.5t-12.5 -55.5l4 -48h-63q-5 27 -5 48q0 66 30 99.5t97.5 33.5t95 -33t27.5 -100v-56q0 -79 -42.5 -113.5t-132.5 -34.5h-28v-42q0 -71 35 -100.5t116.5 -29.5
t148.5 16v488z" />
    <glyph glyph-name="uni0915094D0926" horiz-adv-x="833" 
d="M760 442h-139q-47 0 -65.5 -17t-18.5 -50v-168q0 -74 94 -74q40 0 82 9v97h62v-247h-62v91q-39 -9 -87 -9q-74 0 -114 34.5t-40 97.5v184q-2 28 -18 42t-57.5 14t-71.5 -9v-437h-64v78q-40 -10 -74 -10q-141 0 -141 125v186q0 125 141 125q18 0 30 -3v-57q-16 2 -26 2
q-82 0 -82 -68v-184q0 -68 82 -68q34 0 70 9v459h-285v56h881v-56h-97v-152zM325 594v-100q29 10 75 10q74 0 106 -35q38 33 115 33h74v92h-370z" />
    <glyph glyph-name="uni0915094D092A" horiz-adv-x="851" 
d="M875 650v-56h-96v-594h-65v141q-36 -14 -86 -14q-74 0 -111.5 33.5t-37.5 95.5v99q0 35 -16.5 52t-62 17t-75.5 -9v-415h-64v78q-40 -10 -74 -10q-141 0 -141 125v186q0 125 141 125q18 0 30 -3v-57q-16 2 -26 2q-82 0 -82 -68v-184q0 -68 82 -68q34 0 70 9v459h-285v56
h899zM325 594v-122q35 10 79 10t75 -13v125h-154zM714 594h-170v-337q0 -70 89 -70q49 0 81 13v394z" />
    <glyph glyph-name="uni0915094D092B" horiz-adv-x="1027" 
d="M917 373q0 67 -73 67q-38 0 -78 -11v-429h-63v128q-47 -10 -75 -10q-74 0 -111.5 33.5t-37.5 95.5v108q0 35 -16.5 52t-62 17t-75.5 -9v-415h-64v78q-40 -10 -74 -10q-141 0 -141 125v186q0 125 141 125q18 0 30 -3v-57q-16 2 -26 2q-82 0 -82 -68v-184q0 -68 82 -68
q34 0 70 9v459h-285v56h1076v-56h-286v-105q35 11 76 11q69 0 104.5 -33.5t35.5 -92.5v-184q0 -59 -32.5 -92t-97.5 -33l-15 1h-3v60q47 -1 65 15.5t18 50.5v181zM325 594v-122q35 10 79 10t75 -13v125h-154zM703 594h-159v-346q0 -71 89 -71q28 0 70 9v408z" />
    <glyph glyph-name="uni0915094D092E" horiz-adv-x="1010" 
d="M1034 650v-56h-96v-594h-64v374h-128v-192q0 -121 -136 -121q-71 0 -104 30t-33 91v195q0 35 -15.5 52t-59 17t-73.5 -9v-437h-64v78q-40 -10 -74 -10q-141 0 -141 125v186q0 125 141 125q18 0 30 -3v-57q-16 2 -26 2q-82 0 -82 -68v-184q0 -68 82 -68q34 0 70 9v459
h-285v56h1058zM683 183v191h-73q-44 0 -58.5 -15t-14.5 -49v-127q0 -33 14.5 -48.5t58.5 -15.5t58.5 15.5t14.5 48.5zM683 430v164h-358v-100q29 10 75 10q115 0 133 -87q29 13 77 13h73zM874 430v164h-128v-164h128z" />
    <glyph glyph-name="uni0915094D092F" horiz-adv-x="917" 
d="M942 650v-56h-96v-594h-65v97q-48 -12 -111 -12q-197 0 -197 172v118q0 35 -15.5 52t-59 17t-73.5 -9v-435h-64v78q-40 -10 -74 -10q-141 0 -141 125v186q0 125 141 125q18 0 30 -3v-57q-16 2 -26 2q-82 0 -82 -68v-184q0 -68 82 -68q34 0 70 9v459h-285v56h966zM602 524
q0 35 -7 70h-270v-102q29 10 75 10q71 0 101.5 -30t32.5 -86q38 4 53 19.5t15 51.5v67zM781 594h-122q7 -24 7 -70v-73q0 -117 -129 -119v-71q0 -59 32.5 -87t93.5 -28t118 11v437z" />
    <glyph glyph-name="uni0915094D0932" horiz-adv-x="1041" 
d="M1065 650v-56h-96v-594h-65v406q-30 14 -70 14q-81 0 -81 -70v-143h-65v143q0 70 -75 70q-43 0 -59 -18.5t-16 -53.5v-193q0 -46 21.5 -71t80.5 -25q29 0 57 4v-58q-27 -5 -59 -5q-165 0 -165 154v223q0 35 -15.5 52t-59 17t-73.5 -9v-437h-64v78q-40 -10 -74 -10
q-141 0 -141 125v186q0 125 141 125q18 0 30 -3v-57q-16 2 -26 2q-82 0 -82 -68v-184q0 -68 82 -68q34 0 70 9v459h-285v56h1089zM904 594h-579v-100q29 10 75 10q87 0 118 -50q34 26 102.5 26t99.5 -46q34 46 111 46q40 0 73 -14v128z" />
    <glyph glyph-name="uni0915094D0935" horiz-adv-x="853" 
d="M877 650v-56h-96v-594h-65v82q-36 -13 -92 -13q-150 0 -150 133v175q0 35 -16 52t-59.5 17t-73.5 -9v-437h-64v78q-40 -10 -74 -10q-141 0 -141 125v186q0 125 141 125q18 0 30 -3v-57q-16 2 -26 2q-82 0 -82 -68v-184q0 -68 82 -68q34 0 70 9v459h-285v56h901zM325 594
v-100q32 10 75 10q75 0 109 -37q40 38 115 38q48 0 92 -12v101h-391zM629 447q-91 0 -91 -74v-171q0 -75 91 -75q59 0 88 13v295q-30 12 -88 12z" />
    <glyph glyph-name="uni0915094D0936" horiz-adv-x="1007" 
d="M870 650h161v-56h-96v-594h-65v650zM475 491q-2 22 -2 33q0 62 37 96.5t111 34.5t111 -34.5t37 -96.5v-145q0 -129 -145 -129q-47 0 -87 14v-118q0 -44 29.5 -67t82 -23t117.5 18v-60q-58 -18 -128.5 -18t-117.5 40t-47 109v200q0 34 -15.5 51t-58.5 17t-74 -8v-405h-64
v78q-40 -10 -74 -10q-141 0 -141 125v186q0 125 141 125q18 0 30 -3v-57q-16 2 -26 2q-82 0 -82 -68v-184q0 -68 82 -68q34 0 70 9v459h-285v56h439v-56h-90v-132q33 10 75 10q75 0 106.5 -33t31.5 -93v-24q41 -13 83 -13q83 0 83 71v143q0 71 -83.5 71t-83.5 -72l3 -31h-65
z" />
    <glyph glyph-name="uni0915094D0938" horiz-adv-x="1015" 
d="M1039 650v-56h-96v-594h-65v289h-160q-38 -36 -111 -36q-32 0 -70 9v-119q0 -88 112 -88q59 0 123 18v-61q-61 -17 -134.5 -17t-119 37.5t-45.5 109.5v235q0 35 -15.5 52t-59 17t-73.5 -9v-437h-64v78q-40 -10 -74 -10q-141 0 -141 125v186q0 125 141 125q18 0 30 -3v-57
q-16 2 -26 2q-82 0 -82 -68v-184q0 -68 82 -68q34 0 70 9v459h-285v56h1063zM686 524q0 40 -8 70h-353v-100q29 10 75 10q75 0 106 -32.5t31 -93.5v-57q34 -9 66 -9q83 0 83 71v141zM878 346v248h-135q8 -24 8 -70v-141q0 -22 -4 -37h131z" />
    <glyph glyph-name="uni0916094D0916" horiz-adv-x="1278" 
d="M260 524q0 42 -13 70h-271v56h1326v-56h-96v-594h-64v136q-30 -9 -78 -9q-71 0 -103.5 31.5t-32.5 93.5v124q0 63 32 94.5t103 31.5q39 0 79 -9v101h-283q11 -24 11 -70v-121q0 -145 -145 -145q-34 0 -67 7v-88q0 -121 163 -121q76 0 138 18v-62q-62 -16 -140 -16
q-200 0 -222 143q-31 -12 -79 -12q-74 0 -106 29t-32 96v124q0 62 33 93.5t105 31.5q140 0 140 -125v-53q36 -6 65 -6q85 0 85 86v121q0 42 -13 70h-484q11 -24 11 -70v-121q0 -145 -145 -145q-34 0 -67 7v-88q0 -121 163 -121q76 0 138 18v-62q-62 -16 -153 -16
t-151.5 43.5t-60.5 136.5v266h64v-119q36 -6 65 -6q85 0 85 86v121zM442 376v-124q0 -34 16 -51t60 -17t60 17t16 51v124q0 34 -16 51t-60 17t-60 -17t-16 -51zM1142 435q-36 9 -77.5 9t-58 -17t-16.5 -51v-124q0 -34 16.5 -51t61.5 -17t74 9v242z" />
    <glyph glyph-name="uni0916094D0924" horiz-adv-x="975" 
d="M260 524q0 42 -13 70h-271v56h1023v-56h-96v-594h-65v431q-60 12 -90 12q-91 0 -91 -74v-243q0 -34 19 -50.5t67 -15.5v-61h-21q-128 0 -128 124v15q-31 -11 -76 -11q-74 0 -106 29t-32 96v124q0 62 33 93.5t107.5 31.5t108.5 -37q37 39 115 39q46 0 94 -13v104h-527
q11 -24 11 -70v-121q0 -145 -145 -145q-34 0 -67 7v-88q0 -121 163 -121q76 0 138 18v-62q-62 -16 -153 -16t-151.5 43.5t-60.5 136.5v266h64v-119q36 -6 65 -6q85 0 85 86v121zM442 376v-124q0 -34 16 -51t60 -17t60 17t16 51v124q0 34 -16 51t-60 17t-60 -17t-16 -51z" />
    <glyph glyph-name="uni0916094D092E" horiz-adv-x="1130" 
d="M260 524q0 42 -13 70h-271v56h1178v-56h-96v-594h-64v374h-128v-192q0 -61 -33 -91t-104 -30q-112 0 -130 79q-30 -13 -92.5 -13t-94.5 29t-32 96v124q0 62 33 93.5t105 31.5q116 0 134 -84q29 13 77 13h73v164h-491q11 -24 11 -70v-121q0 -145 -145 -145q-34 0 -67 7
v-88q0 -121 163 -121q76 0 138 18v-62q-62 -16 -153 -16t-151.5 43.5t-60.5 136.5v266h64v-119q36 -6 65 -6q85 0 85 86v121zM442 376v-124q0 -34 16 -51t60 -17t60 17t16 51v124q0 34 -16 51t-60 17t-60 -17t-16 -51zM802 183v191h-73q-44 0 -58.5 -15t-14.5 -49v-127
q0 -33 14.5 -48.5t58.5 -15.5t58.5 15.5t14.5 48.5zM994 430v164h-128v-164h128z" />
    <glyph glyph-name="uni0916094D092F" horiz-adv-x="1039" 
d="M260 524q0 42 -13 70h-271v56h1088v-56h-96v-594h-65v97q-48 -12 -111 -12q-125 0 -172 72q-32 -30 -104 -30t-104 29t-32 96v124q0 62 33 93.5t105 31.5q129 0 134 -116q40 4 56 19.5t16 52.5v67q0 35 -7 70h-406q11 -24 11 -70v-121q0 -145 -145 -145q-34 0 -67 7v-88
q0 -121 163 -121q76 0 138 18v-62q-62 -16 -153 -16t-151.5 43.5t-60.5 136.5v266h64v-119q36 -6 65 -6q85 0 85 86v121zM594 252v124q0 34 -16 51t-60 17t-60 -17t-16 -51v-124q0 -34 16 -51t60 -17t60 17t16 51zM903 594h-122q7 -24 7 -70v-73q0 -117 -129 -119v-71
q0 -59 32.5 -87t93.5 -28t118 11v437z" />
    <glyph glyph-name="uni0916094D0935" horiz-adv-x="973" 
d="M260 524q0 42 -13 70h-271v56h1022v-56h-96v-594h-65v82q-36 -13 -92 -13q-112 0 -141 76q-30 -18 -95 -18t-97 29t-32 96v124q0 62 33 93.5t106.5 31.5t106.5 -38q39 42 119 42q48 0 92 -12v101h-526q11 -24 11 -70v-121q0 -145 -145 -145q-34 0 -67 7v-88
q0 -121 163 -121q76 0 138 18v-62q-62 -16 -153 -16t-151.5 43.5t-60.5 136.5v266h64v-119q36 -6 65 -6q85 0 85 86v121zM594 252v124q0 34 -16 51t-60 17t-60 -17t-16 -51v-124q0 -34 16 -51t60 -17t60 17t16 51zM750 447q-91 0 -91 -74v-171q0 -75 91 -75q59 0 88 13v295
q-30 12 -88 12z" />
    <glyph glyph-name="uni0916094D0936" horiz-adv-x="1127" 
d="M990 650h161v-56h-96v-594h-65v650zM595 490q-2 22 -2 34q0 62 37 96.5t111 34.5t111 -34.5t37 -96.5v-141q0 -129 -145 -129q-48 0 -86 14v-122q0 -44 29.5 -67t81.5 -23t117 18v-60q-58 -18 -127.5 -18t-116 38t-48.5 104q-31 -11 -76 -11q-74 0 -106 29t-32 96v85
q0 125 138 125t138 -125v-16q48 -8 85 -8q83 0 83 71v139q0 71 -83 71t-83 -72l2 -32h-65zM442 337v-85q0 -34 16 -51t60 -17t60 17t16 51v85q0 33 -16 50t-60 17t-60 -17t-16 -50zM260 524q0 42 -13 70h-271v56h564v-56h-229q11 -24 11 -70v-121q0 -145 -145 -145
q-34 0 -67 7v-88q0 -121 163 -121q76 0 138 18v-62q-62 -16 -153 -16t-151.5 43.5t-60.5 136.5v266h64v-119q36 -6 65 -6q85 0 85 86v121z" />
    <glyph glyph-name="uni0917094D0917" horiz-adv-x="716" 
d="M29 255l28 -2q70 0 70 69v272h-151v56h764v-56h-96v-594h-65v594h-151v-275q0 -58 -32 -92.5t-95 -34.5q-27 0 -36 3v60l28 -2q70 0 70 69v272h-171v-275q0 -58 -32 -92.5t-95 -34.5q-27 0 -36 3v60z" />
    <glyph glyph-name="uni0917094D0918" horiz-adv-x="755" 
d="M29 255l28 -2q70 0 70 69v272h-151v56h803v-56h-96v-594h-65v77q-56 -14 -111 -14q-84 0 -132.5 36.5t-48.5 110.5v51q0 79 59 96q-53 21 -53 97v70q0 35 7 70h-147v-275q0 -58 -32 -92.5t-95 -34.5q-27 0 -36 3v60zM618 594h-213q-8 -25 -8 -70v-69q0 -33 17 -50t63 -17
h35v-61h-37q-47 0 -65.5 -17t-18.5 -50v-46q0 -50 30.5 -71t91.5 -21t105 14v458z" />
    <glyph glyph-name="uni0917094D091C" horiz-adv-x="800" 
d="M29 255l28 -2q70 0 70 69v272h-151v56h848v-56h-96v-594h-65v425h-141q8 -24 8 -69v-177q0 -66 -40 -101.5t-115 -35.5q-48 0 -93 12v60q48 -12 92 -12q91 0 91 78v174q0 35 -9 69h-110v59h317v112h-471v-275q0 -58 -32 -92.5t-95 -34.5q-27 0 -36 3v60z" />
    <glyph glyph-name="uni0917094D0923" horiz-adv-x="879" 
d="M29 255l28 -2q70 0 70 69v272h-151v56h927v-56h-96v-594h-64v594h-135v-345q0 -130 -144 -130t-144 130v345h-128v-275q0 -58 -32 -92.5t-95 -34.5q-27 0 -36 3v60zM543 250v344h-158v-344q0 -35 16.5 -53.5t62.5 -18.5t62.5 18.5t16.5 53.5z" />
    <glyph glyph-name="uni0917094D0926" horiz-adv-x="667" 
d="M29 255l28 -2q70 0 70 69v272h-151v56h715v-56h-97v-152h-139q-47 0 -65.5 -17t-18.5 -50v-168q0 -74 94 -74q40 0 82 9v97h62v-247h-62v91q-39 -9 -87 -9q-74 0 -114 34.5t-40 97.5v170q0 126 149 126h74v92h-337v-275q0 -58 -32 -92.5t-95 -34.5q-27 0 -36 3v60z" />
    <glyph glyph-name="uni0917094D0927" horiz-adv-x="755" 
d="M29 255l28 -2q70 0 70 69v272h-151v56h529v-56h-98q-10 -25 -10 -70v-65q0 -33 17 -50t63 -17h35v-61h-37q-47 0 -65.5 -17t-18.5 -50v-52q0 -49 30 -69.5t90 -20.5t107 14v514h162v-56h-97v-594h-65v76q-46 -13 -120.5 -13t-123 36t-48.5 109v57q0 79 59 96
q-53 21 -53 97v66q0 43 9 70h-149v-275q0 -58 -32 -92.5t-95 -34.5q-27 0 -36 3v60z" />
    <glyph glyph-name="uni0917094D092C" horiz-adv-x="682" 
d="M29 255l28 -2q70 0 70 69v272h-151v56h730v-56h-96v-594h-61v82q-33 -12 -85 -12q-156 0 -156 130v175q0 130 154 130q51 0 87 -13v102h-357v-275q0 -58 -32 -92.5t-95 -34.5q-27 0 -36 3v60zM466 448q-83 0 -93 -57l176 -140v184q-36 13 -83 13zM371 202q0 -75 95 -75
q50 0 83 12v55l-178 142v-134z" />
    <glyph glyph-name="uni0917094D092D" horiz-adv-x="849" 
d="M519 396v131q0 34 -14.5 50.5t-55.5 16.5t-55.5 -16.5t-14.5 -50.5l4 -51h-65q-4 29 -4 52q0 127 135 127t135 -127v-132h128v254h161v-56h-96v-594h-65v340h-130v-158q0 -61 -32.5 -91t-103.5 -30t-104 30t-33 91v95q0 60 32.5 89.5t104.5 29.5h73zM519 183v157h-73
q-44 0 -58.5 -15t-14.5 -49v-93q0 -33 14.5 -48.5t58.5 -15.5t58.5 15t14.5 49zM29 255l28 -2q70 0 70 69v272h-151v56h284v-56h-68v-275q0 -58 -32 -92.5t-95 -34.5q-27 0 -36 3v60z" />
    <glyph glyph-name="uni0917094D092E" horiz-adv-x="830" 
d="M29 255l28 -2q70 0 70 69v272h-151v56h878v-56h-96v-594h-64v374h-128v-192q0 -121 -136 -121q-71 0 -104 30t-33 91v129q0 60 32.5 89.5t104.5 29.5h73v164h-311v-275q0 -58 -32 -92.5t-95 -34.5q-27 0 -36 3v60zM503 183v191h-73q-44 0 -58.5 -15t-14.5 -49v-127
q0 -33 14.5 -48.5t58.5 -15.5t58.5 15.5t14.5 48.5zM694 430v164h-128v-164h128z" />
    <glyph glyph-name="uni0917094D092F" horiz-adv-x="762" 
d="M29 255l28 -2q70 0 70 69v272h-151v56h810v-56h-96v-594h-65v97q-48 -12 -111 -12q-197 0 -197 172v127h21q63 0 85.5 14.5t22.5 58.5v67q0 35 -7 70h-247v-275q0 -58 -32 -92.5t-95 -34.5q-27 0 -36 3v60zM625 594h-122q7 -24 7 -70v-73q0 -117 -129 -119v-71
q0 -59 32.5 -87t93.5 -28t118 11v437z" />
    <glyph glyph-name="uni0917094D0932" horiz-adv-x="880" 
d="M29 255l28 -2q70 0 70 69v272h-151v56h928v-56h-96v-594h-65v406q-30 14 -70 14q-81 0 -81 -70v-143h-65v143q0 70 -75 70q-43 0 -59 -18.5t-16 -53.5v-193q0 -46 21.5 -71t80.5 -25q29 0 57 4v-58q-27 -5 -59 -5q-165 0 -165 154v195q0 62 34.5 96.5t108 34.5t104.5 -46
q35 46 111 46q40 0 73 -14v128h-551v-275q0 -58 -32 -92.5t-95 -34.5q-27 0 -36 3v60z" />
    <glyph glyph-name="uni0917094D0935" horiz-adv-x="687" 
d="M29 255l28 -2q70 0 70 69v272h-151v56h735v-56h-96v-594h-65v82q-36 -13 -92 -13q-150 0 -150 133v172q0 61 38.5 96t111.5 35q48 0 92 -12v101h-358v-275q0 -58 -32 -92.5t-95 -34.5q-27 0 -36 3v60zM463 447q-91 0 -91 -74v-171q0 -75 91 -75q59 0 88 13v295
q-30 12 -88 12z" />
    <glyph glyph-name="uni0917094D0938" horiz-adv-x="863" 
d="M29 255l28 -2q70 0 70 69v272h-151v56h911v-56h-96v-594h-65v289h-160q-36 -36 -110 -36q-38 0 -70 9v-119q0 -88 112 -88q58 0 122 18v-61q-61 -17 -134.5 -17t-119 37.5t-45.5 109.5v308h65v-129q34 -9 65 -9q84 0 84 71v141q0 36 -9 70h-334v-275q0 -58 -32 -92.5
t-95 -34.5q-27 0 -36 3v60zM726 346v248h-135q8 -24 8 -70v-141q0 -22 -4 -37h131z" />
    <glyph glyph-name="uni0918094D092E" horiz-adv-x="883" 
d="M69 524q0 44 7 70h-100v56h931v-56h-96v-594h-64v374h-128v-192q0 -121 -136 -121q-61 0 -95 23q-79 -21 -139 -21q-88 0 -137 36.5t-49 110.5v51q0 79 59 96q-53 21 -53 97v70zM556 183v191h-73q-44 0 -58.5 -15t-14.5 -49v-127q0 -33 14.5 -48.5t58.5 -15.5t58.5 15.5
t14.5 48.5zM556 430v164h-414q-8 -25 -8 -70v-69q0 -33 17 -50t63 -17h35v-61h-37q-47 0 -65.5 -17t-18.5 -50v-46q0 -50 30.5 -71t82 -21t111.5 12q-6 21 -6 48v129q0 60 32.5 89.5t104.5 29.5h73zM747 430v164h-128v-164h128z" />
    <glyph glyph-name="uni0918094D092F" horiz-adv-x="791" 
d="M69 524q0 44 7 70h-100v56h839v-56h-96v-594h-65v97q-48 -12 -120 -12t-120 30q-80 -28 -165 -28q-186 0 -186 147v43q0 79 59 96q-53 21 -53 97v54zM475 524q0 44 -7 70h-326q-8 -25 -8 -70v-53q0 -34 17 -50.5t63 -17.5h35v-60h-37q-47 0 -65.5 -17t-18.5 -50v-39
q0 -50 30.5 -70.5t87 -20.5t122.5 16q-22 38 -22 95v127h21q63 0 85.5 14.5t22.5 58.5v67zM654 594h-122q7 -24 7 -70v-73q0 -117 -129 -119v-71q0 -59 32.5 -87t93.5 -28t118 11v437z" />
    <glyph glyph-name="uni091A094D091A" horiz-adv-x="708" 
d="M335 338q0 44 9 87h-48v57h221v-57h-107q-10 -29 -10 -87v-143q0 -38 20.5 -56t67.5 -18t83 13v460h-595v56h756v-56h-96v-594h-65v75q-39 -13 -96.5 -13t-91.5 25q-56 -25 -135 -25t-119 34.5t-40 97.5v144q0 44 9 85h-86v59h226v-57h-74q-10 -29 -10 -87v-143
q0 -39 22.5 -56.5t73.5 -17.5t95 13q-10 24 -10 60v144z" />
    <glyph glyph-name="uni091A094D091B" horiz-adv-x="786" 
d="M344 524q0 37 11 70h-379v56h835v-56h-153v-108q73 -19 73 -116v-201q0 -81 -44 -114.5t-151 -33.5q-137 0 -177 60q-57 -19 -117 -19q-153 0 -153 132v144q0 44 9 85h-86v59h259v-57h-107q-10 -29 -10 -87v-143q0 -74 91 -74q46 0 96 13q-2 20 -2 32v34q0 76 60 95
q-55 20 -55 96v133zM651 419.5q-16 17.5 -51.5 17.5t-63.5 -8v57q27 9 62 9v99h-178q-11 -25 -11 -70v-132q0 -33 17 -49.5t64 -17.5h53v-59h-52q-48 0 -67.5 -17t-19.5 -51v-31q0 -51 26.5 -69t105 -18t105 19t26.5 71v195q0 37 -16 54.5z" />
    <glyph glyph-name="uni091A094D092E" horiz-adv-x="865" 
d="M89 338q0 44 9 85h-86v59h259v-57h-107q-10 -29 -10 -87v-143q0 -74 91 -74q44 0 89 12q-7 20 -7 49v129q0 60 32.5 89.5t104.5 29.5h73v164h-561v56h912v-56h-96v-594h-64v374h-128v-192q0 -121 -136 -121q-61 0 -95 23q-57 -22 -127 -22q-153 0 -153 132v144zM537 183
v191h-73q-44 0 -58.5 -15t-14.5 -49v-127q0 -33 14.5 -48.5t58.5 -15.5t58.5 15.5t14.5 48.5zM728 430v164h-128v-164h128z" />
    <glyph glyph-name="uni091A094D092F" horiz-adv-x="776" 
d="M461 524q0 44 -7 70h-478v56h825v-56h-96v-594h-65v97q-48 -12 -118 -12t-119 28q-81 -36 -158.5 -36t-116.5 34.5t-39 98.5v128q0 44 9 85h-86v59h259v-57h-107q-10 -29 -10 -87v-127q0 -38 21.5 -56t71.5 -18t111 19q-26 38 -26 101v127h21q63 0 85.5 14.5t22.5 58.5
v67zM640 594h-122q7 -24 7 -70v-73q0 -117 -129 -119v-71q0 -59 32.5 -87t93.5 -28t118 11v437z" />
    <glyph glyph-name="uni091B094D092F" horiz-adv-x="986" 
d="M1010 650v-56h-96v-594h-65v84q-70 -11 -119 -11q-189 0 -189 171v53h32q56 0 76.5 13.5t20.5 51.5v7q0 33 -14 49t-55 16h-153q4 -16 4 -40v-225q0 -81 -44 -114.5t-150.5 -33.5t-152 33t-45.5 112v34q0 76 60 95q-31 11 -42.5 34.5t-11.5 61.5v131q0 53 28 72h-118v56
h1034zM257 509q27 9 74 9t79 -24h190q134 0 134 -122v-11q0 -116 -129 -116v-2q0 -57 29 -83.5t93.5 -26.5t121.5 12v449h-647q-37 0 -54.5 -17t-17.5 -55v-130q0 -33 17 -49.5t64 -17.5h53v-59h-52q-48 0 -67.5 -17t-19.5 -51v-31q0 -51 26.5 -69t105 -18t105 19t26.5 71
v218q0 38 -16 55.5t-52.5 17.5t-62.5 -11v59z" />
    <glyph glyph-name="uni091B094D0935" horiz-adv-x="507" 
d="M531 594h-153v-108q73 -19 73 -116v-201q0 -81 -44 -114v-315h-64v81q-34 -32 -98 -32q-149 0 -149 125v37q0 57 40 87q-77 29 -77 128v34q0 76 60 95q-55 20 -55 96v131q0 53 29 72h-117v56h555v-56zM256 21h-7q-90 0 -90 -70v-35q0 -34 20.5 -52t69.5 -18q87 0 94 62
v120q-34 -7 -87 -7zM371 419.5q-16 17.5 -52.5 17.5t-62.5 -10v58q28 10 62 10v99h-117q-37 0 -54.5 -17t-17.5 -55v-130q0 -33 17 -49.5t64 -17.5h53v-59h-52q-48 0 -67.5 -17t-19.5 -51v-31q0 -51 26.5 -69t105 -18t105 19t26.5 71v195q0 37 -16 54.5z" />
    <glyph glyph-name="uni091C094D0915" horiz-adv-x="937" 
d="M216 354q0 42 -9 69h-110v59h353q32 22 92 22q18 0 30 -3v-57q-16 2 -26 2q-82 0 -82 -68v-184q0 -68 82 -68q34 0 70 9v459h-640v56h985v-56h-281v-99q28 10 70 10q141 0 141 -125v-182q0 -57 -30 -91t-94 -34l-23 1v61q6 -1 18 -1q38 0 52 17.5t14 49.5v178
q0 68 -82 68q-34 0 -66 -9v-438h-64v78q-40 -10 -74 -10q-141 0 -141 125v186q0 25 6 46h-134q8 -24 8 -69v-177q0 -66 -40 -101.5t-115 -35.5q-48 0 -93 12v60q48 -12 92 -12q91 0 91 78v174z" />
    <glyph glyph-name="uni091C094D091C" horiz-adv-x="910" 
d="M216 354q0 42 -9 69h-110v59h676v112h-797v56h959v-56h-97v-594h-65v425h-141q8 -24 8 -69v-177q0 -66 -40 -101.5t-115 -35.5q-48 0 -93 12v60q50 -12 92 -12q91 0 91 78v174q0 35 -9 71h-293q8 -24 8 -69v-177q0 -66 -40 -101.5t-115 -35.5q-48 0 -93 12v60
q48 -12 92 -12q91 0 91 78v174z" />
    <glyph glyph-name="uni091C094D091D" horiz-adv-x="939" 
d="M216 354q0 42 -9 69h-110v59h337q37 23 101 23h77v89h-636v56h988v-56h-96v-594h-65v258h-146q28 -21 28 -70v-45q0 -63 -35.5 -93.5t-111.5 -30.5q-49 0 -85 9v-88h-63v217h63v-70q36 -10 79 -10q89 0 89 69v42q0 33 -18.5 50t-63.5 17h-5q-146 0 -146 121v8q0 21 5 41
h-120q8 -24 8 -69v-177q0 -66 -40 -101.5t-115 -35.5q-48 0 -93 12v60q48 -12 92 -12q91 0 91 78v174zM803 313v281h-126v-148h-142q-46 0 -64 -15.5t-18 -47.5v-6q0 -31 17.5 -47t61.5 -17h271z" />
    <glyph glyph-name="uni091C094D091F" horiz-adv-x="748" 
d="M216 354q0 42 -9 69h-110v59h369q35 19 92 19h57v93h-639v56h794v-56h-90v-153h-118q-48 0 -68 -18t-20 -53v-230q0 -84 107 -84q57 0 116 16v-60q-52 -16 -125 -16t-118 37.5t-45 105.5v233q0 29 8 53h-144q8 -24 8 -69v-177q0 -66 -40 -101.5t-115 -35.5q-48 0 -93 12
v60q48 -12 92 -12q91 0 91 78v174z" />
    <glyph glyph-name="uni091C094D0921" horiz-adv-x="752" 
d="M216 354q0 42 -9 69h-110v59h340q35 23 100 23h73v89h-634v56h800v-56h-101v-148h-138q-46 0 -63.5 -16t-17.5 -48v-34q0 -32 18 -48.5t63 -16.5h19q148 0 148 -123v-36q0 -130 -171 -130q-74 0 -136 14v63q60 -17 136 -17q106 0 106 71v34q0 33 -18 49.5t-65 16.5h-19
q-146 0 -146 121v38q0 21 5 41h-123q8 -24 8 -69v-177q0 -66 -40 -101.5t-115 -35.5q-48 0 -93 12v60q48 -12 92 -12q91 0 91 78v174z" />
    <glyph glyph-name="uni091C094D0924" horiz-adv-x="792" 
d="M216 354q0 42 -9 69h-110v59h371q36 21 87.5 21t99.5 -13v104h-679v56h840v-56h-96v-594h-65v431q-60 12 -90 12q-91 0 -91 -74v-243q0 -34 19 -50.5t67 -15.5v-61h-21q-130 0 -130 124v247q0 32 10 55h-146q8 -24 8 -69v-177q0 -66 -40 -101.5t-115 -35.5q-48 0 -93 12
v60q48 -12 92 -12q91 0 91 78v174z" />
    <glyph glyph-name="uni091C094D0926" horiz-adv-x="761" 
d="M216 355q0 42 -9 69h-110v58h356q35 20 96 20h74v92h-647v56h809v-56h-97v-152h-139q-47 0 -65.5 -17t-18.5 -50v-168q0 -74 94 -74q40 0 82 9v97h62v-247h-62v91q-39 -9 -87 -9q-74 0 -114 34.5t-40 97.5v170q0 29 7 50h-134q8 -24 8 -70v-177q0 -66 -40 -101.5
t-115 -35.5q-48 0 -93 12v60q48 -12 92 -12q91 0 91 78v175z" />
    <glyph glyph-name="uni091C094D092C" horiz-adv-x="776" 
d="M216 354q0 42 -9 69h-110v59h358q38 23 95 23t93 -13v102h-667v56h824v-56h-96v-594h-61v82q-33 -12 -85 -12q-156 0 -156 130v175q0 26 8 50h-137q8 -24 8 -69v-177q0 -66 -40 -101.5t-115 -35.5q-48 0 -93 12v60q48 -12 92 -12q91 0 91 78v174zM560 448q-83 0 -93 -57
l176 -140v184q-36 13 -83 13zM465 202q0 -75 95 -75q50 0 83 12v55l-178 142v-134z" />
    <glyph glyph-name="uni091C094D092E" horiz-adv-x="924" 
d="M216 354q0 42 -9 69h-110v59h249q109 0 131 -56q17 4 46 4h73v164h-620v56h971v-56h-96v-594h-64v374h-128v-192q0 -121 -136 -121q-71 0 -104 30t-33 91v129q0 61 34 91q-16 23 -83 23h-64q8 -24 8 -69v-177q0 -66 -40 -101.5t-115 -35.5q-48 0 -93 12v60q48 -12 92 -12
q91 0 91 78v174zM596 183v191h-73q-44 0 -58.5 -15t-14.5 -49v-127q0 -33 14.5 -48.5t58.5 -15.5t58.5 15.5t14.5 48.5zM787 430v164h-128v-164h128z" />
    <glyph glyph-name="uni091C094D092F" horiz-adv-x="853" 
d="M538 524q0 40 -8 70h-554v56h901v-56h-96v-594h-65v97q-46 -12 -111 -12q-197 0 -197 172v115q0 33 -18 43t-65 10h-52q8 -24 8 -69v-177q0 -66 -40 -101.5t-115 -35.5q-48 0 -93 12v60q48 -12 92 -12q91 0 91 78v174q0 42 -9 69h-110v59h237q127 0 131 -81q41 4 57 19.5
t16 51.5v52zM716 594h-122q8 -24 8 -70v-58q0 -116 -130 -118v-87q0 -59 32.5 -87t94.5 -28t117 11v437z" />
    <glyph glyph-name="uni091C094D0935" horiz-adv-x="780" 
d="M216 354q0 42 -9 69h-110v59h358q37 23 90.5 23t97.5 -12v101h-667v56h828v-56h-96v-594h-65v82q-36 -13 -92 -13q-150 0 -150 133v172q0 27 8 51h-136q8 -24 8 -69v-177q0 -66 -40 -101.5t-115 -35.5q-48 0 -93 12v60q48 -12 92 -12q91 0 91 78v174zM556 447
q-91 0 -91 -74v-171q0 -75 91 -75q59 0 88 13v295q-30 12 -88 12z" />
    <glyph glyph-name="uni091D094D092E" horiz-adv-x="988" 
d="M1012 650v-56h-96v-594h-64v374h-128v-192q0 -121 -136 -121q-71 0 -104 30t-33 91v76h-132q28 -21 28 -70v-46q0 -64 -33.5 -93.5t-110.5 -29.5q-47 0 -85 9v-88h-62v217h62v-70q37 -10 82 -10t63.5 17t18.5 50v45q0 32 -18 49t-62 17h-5q-148 0 -148 121v8
q0 121 149 121h82v89h-304v56h1036zM661 183v191h-73q-44 0 -58.5 -15t-14.5 -49v-127q0 -33 14.5 -48.5t58.5 -15.5t58.5 15.5t14.5 48.5zM661 430v164h-316v-148h-147q-47 0 -65 -15.5t-19 -46.5v-6q0 -33 17.5 -49t63.5 -16h256q1 59 33.5 88t103.5 29h73zM852 430v164
h-128v-164h128z" />
    <glyph glyph-name="uni091D094D092F" horiz-adv-x="914" 
d="M938 650v-56h-96v-594h-65v97q-48 -12 -111 -12q-197 0 -197 172v1h-150q28 -21 28 -70v-46q0 -64 -33.5 -93.5t-110.5 -29.5q-47 0 -85 9v-88h-62v217h62v-70q37 -10 82 -10t63.5 17t18.5 50v45q0 32 -18 49t-62 17h-5q-148 0 -148 121v8q0 121 149 121h82v89h-304v56
h962zM598 524q0 35 -7 70h-246v-148h-147q-47 0 -65 -15.5t-19 -46.5v-6q0 -33 17.5 -49t63.5 -16h274v71h21q63 0 85.5 14.5t22.5 58.5v67zM777 594h-122q7 -24 7 -70v-73q0 -117 -129 -119v-71q0 -59 32.5 -87t93.5 -28t118 11v437z" />
    <glyph glyph-name="uni091E094D091B" horiz-adv-x="867" 
d="M424 524q0 37 11 70h-459v56h915v-56h-153v-108q73 -19 73 -116v-201q0 -81 -44 -114.5t-150.5 -33.5t-152 33t-45.5 112v34q0 43 19 67h-131v-82q0 -136 -153 -136q-49 0 -97 16v60q56 -16 96 -16q89 0 89 78v185q0 38 -19.5 58t-67 20t-91.5 -16v60q39 16 91 16
q152 0 152 -135v-51h133q-16 23 -16 67v133zM731 419.5q-16 17.5 -51.5 17.5t-63.5 -8v57q27 9 62 9v99h-178q-11 -25 -11 -70v-132q0 -33 17 -49.5t64 -17.5h53v-59h-52q-48 0 -67.5 -17t-19.5 -51v-31q0 -51 26.5 -69t105 -18t105 19t26.5 71v195q0 37 -16 54.5z" />
    </font>
</defs>
</svg>
